<svg xmlns="http://www.w3.org/2000/svg" xml:space="preserve" width="338.75" height="338.75" viewBox="51.26 129.36 89.63 89.63"><g style="fill:#f9f9f9"><path d="M39.49 191.5c-.16-.46 1.14-4.23 2.12-6.16a39 39 0 0 1 5.85-8c2.18-2.19 4.08-3.42 9.43-6.09 4.01-2 5.55-2.72 14.28-6.7 5.88-2.67 6.73-3.76 7.82-10.04.7-3.98.67-4.44-.46-9.36-.94-4.11-.97-4.44-.98-9.42 0-4.53.06-5.42.58-7.27 1-3.59 1.99-5.3 4.53-7.81a17 17 0 0 1 5.18-3.75 28 28 0 0 1 10.63-3.16c8.57-.83 16 2.1 18.86 7.46.8 1.48 2.92 9.69 2.92 11.24 0 .37-.38 1.63-.84 2.8-.83 2.1-.84 2.17-.56 4.39.27 2.23.27 2.3-.72 5.46-2.4 7.73-3.13 10.18-3.41 11.56a5.7 5.7 0 0 1-2.93 3.95c-.55.28-2.06.7-3.35.95-1.29.23-2.48.47-2.65.52-.26.07-2.73 4.3-2.73 4.67 0 .18 4.73 4.26 5.55 4.78 1.27.82 5.18 2.1 7.54 2.48a19 19 0 0 1 3.98 1.12c2.94 1.37 6.29 5.13 7.35 8.27.64 1.88 1.78 7.57 1.6 8.02-.08.24-.47.41-.89.41-.9 0-1.09-.43-1.86-4.23-.58-2.87-1.58-5.5-2.34-6.19-.4-.36-.56-.26-1.71 1.05L121 183.9l1.35 3.37c1.77 4.4 1.8 4.55.78 4.55-.44 0-.95-.15-1.12-.33s-.88-1.64-1.56-3.23c-.67-1.6-1.34-2.95-1.48-3-.3-.1-8 2.55-8.35 2.88-.13.12 0 .77.33 1.53.77 1.8.74 2.15-.18 2.15-.88 0-1.44-.54-2.03-1.96-.43-1.01-.43-1.02-1.67-.86-.68.08-2.1.35-3.16.59l-1.93.44.17.9c.17.87.15.9-.72.89-.71 0-1-.18-1.46-.88-.5-.77-.78-.92-2.25-1.17-.92-.16-3.22-.6-5.12-.96l-9-1.73c-3.05-.6-5.74-1.08-5.97-1.08-.31 0-.58.62-1.02 2.32-.76 2.92-1.11 3.5-2.14 3.5-1 0-1.01-.39-.1-3.65.4-1.35.64-2.52.56-2.6-.09-.09-.96-.3-1.95-.5-1-.19-4.07-1.23-6.83-2.32-7.74-3.06-9.95-3.9-10.31-3.9-.5 0-2.87 2.62-4.07 4.47-.57.88-1.55 3-2.18 4.72a35 35 0 0 1-1.38 3.45c-.14.18-.59.33-1 .33-.4 0-.78-.15-.85-.33-.13-.39 1.4-4.92 2.44-7.2.4-.88 1.34-2.41 2.1-3.41s1.34-1.86 1.29-1.92-.99.06-2.07.23l-1.97.33-1.78 2.38c-2 2.65-3.28 4.97-4.18 7.54-.76 2.15-.94 2.38-1.85 2.38-.4 0-.8-.15-.85-.33m64.14-4.04c3.17-.65 3.19-.66 3.03-1.07a57 57 0 0 0-3.96-5.45c-.14-.1-.62-.07-1.07.06s-1.39.24-2.08.24-1.26.07-1.26.16c0 .57 2.8 6.45 3.07 6.45.19 0 1.2-.17 2.27-.4m-5.48-.86c-2.21-5.3-2.5-5.82-3.38-5.98l-8.31-1.48c-2.5-.45-4.67-.81-4.8-.81-.26 0-3.21 4.82-3.21 5.24 0 .31-.2.26 6.88 1.64 3.13.6 7 1.38 8.6 1.72s3.3.62 3.77.64l.86.02zm15.29-1.84c2-.7 3.64-1.35 3.64-1.45s-1.46-1.22-3.24-2.47c-3.03-2.12-3.31-2.26-4.26-2.12-1.58.24-4.55 1.3-4.45 1.6.25.76 3.94 5.67 4.28 5.68.21 0 2.03-.55 4.03-1.24m-35.96-3.95c1.5-2.56 1.7-3.01 1.26-3.01-.12 0-2.6-.36-5.49-.8s-6.74-1-8.57-1.24l-3.31-.44-1.7.96c-1.63.92-1.68.97-1.06 1.21 2.82 1.1 8.75 3.43 10.7 4.21a23 23 0 0 0 6.12 1.62c.43.03.88-.52 2.05-2.51m43.55-.14c1.39-1.55 1.35-1.7-.8-3.03q-1.48-.92-3.63-1.37c-2.1-.43-2.2-.42-3.1.06-.52.28-.9.66-.86.84.1.44 6.3 4.81 6.82 4.81.22 0 .93-.6 1.57-1.31m-19.65-1.9c.1-.1-.1-1.11-.47-2.23l-.66-2.05-2.21-.47a10 10 0 0 0-2.33-.34c-.07.07.2 1.22.62 2.55.54 1.75.89 2.48 1.29 2.65.6.27 3.47.18 3.76-.11m-6.8-.77c0-.59-1.37-4.56-1.68-4.86-.16-.16-1.43-.55-2.8-.87l-2.52-.58-2.05 2.12a16 16 0 0 0-2.05 2.36c0 .14 1.16.45 2.58.7l4.96.93c2.95.58 3.57.62 3.57.2m11.16-.48c1-.3 1.81-.62 1.81-.73s-.81-.7-1.81-1.33c-1.5-.93-1.93-1.38-2.43-2.44-.34-.72-.7-1.3-.83-1.3-.44 0-.2 2 .5 4.15.4 1.2.77 2.2.83 2.2s.93-.25 1.93-.55m-50.05-1.54.93-.43-1.43-.08c-1.49-.09-2.69.26-3.24.93-.3.34-.13.37 1.24.2.87-.1 2-.38 2.5-.62m27.4-2.71 2.37-2.42-.64-.43c-.35-.23-1.54-.92-2.64-1.52l-2.01-1.1-3.54 1.7a78 78 0 0 1-6.75 2.79q-4.43 1.52-3.46 1.55c.14 0 2.87.41 6.08.9 8.57 1.3 7.77 1.42 10.6-1.47m28.09 1.99c.05-.16-.61-.55-1.48-.87s-2.3-1.1-3.18-1.75c-1.45-1.07-1.57-1.11-1.28-.48.41.9 4.35 3.51 5.2 3.44.36-.03.69-.18.74-.34m-44.7-4.05c5.26-1.81 5.75-2 9.68-3.85l2.08-.98-.62-.66c-1.17-1.25-1.32-1.24-4.24.16-1.5.72-4.7 2.2-7.1 3.27-2.4 1.08-5.2 2.39-6.22 2.91l-1.85.95 1.5.01c1.17.01 2.59-.36 6.77-1.8m33.76-.6c.34-3.24.5-2.98-2.37-3.9-1.4-.45-2.64-.75-2.77-.67-.39.24-.3 4.81.08 5.06.3.18 3.91 1.07 4.6 1.12.16.01.36-.67.46-1.6m-7.5-2.75v-2.79l-.96-.4c-.53-.22-1.1-.34-1.27-.28-.3.12-1.92 5.13-1.71 5.3.13.12 3.16.9 3.6.94.25.02.34-.7.34-2.77m-5.3-1.57c.47-1.38.8-2.65.74-2.8-.09-.28-2.93-1.57-3.44-1.57-.4 0-2.86 4.08-2.6 4.33.32.32 4.06 2.55 4.3 2.55.09 0 .54-1.13 1-2.51m14.8-2.64c.5-.94.86-1.77.8-1.84-.17-.15-7.16-2-7.6-2-.26 0-.33.48-.27 1.9l.08 1.9 2.51.85c1.39.48 2.76.87 3.05.88.39.02.77-.43 1.43-1.7m-20.79-.86 1.28-2.04-.75-.62c-1.5-1.23-1.65-1.24-2.11-.14-.23.55-.76 1.5-1.18 2.1l-.77 1.12.99.81a6 6 0 0 0 1.12.81c.08 0 .72-.92 1.42-2.04m11.5-2.18c.07-1.7 0-2-.51-2.56-.33-.34-.68-.62-.79-.62-.22 0-.4.83-.65 2.95-.17 1.45-.15 1.51.58 1.9.42.23.88.38 1.02.34s.3-.95.35-2m-4.08-.2c.08-.4.27-1.68.42-2.85l.28-2.1-1.43-2.13a18 18 0 0 1-1.62-2.73c-.58-1.97-1.09 1.02-1.16 6.85l-.03 2.28 1.52.67c1.93.86 1.85.86 2.02 0m19.38-1.22c.17-.17.39-.58.48-.9.17-.57.12-.6-1.42-.6h-1.6v2.16l1.12-.18a3.5 3.5 0 0 0 1.42-.48m-4.8-.5a3 3 0 0 0-.36-1.03c-.25-.24-3.87-1.3-4.46-1.3-.28 0-.83.35-1.22.76l-.72.75 1.8.44c.98.24 2.32.61 2.98.82 1.93.62 2.19.56 1.98-.45m8.34-.78c0-.35-.6-.13-.74.26q-.08.3.32.15c.23-.08.42-.27.42-.41m-28.49-1.87c.1-1.2.17-3.1.17-4.2 0-2 0-2.03-.92-2.73l-.93-.7v1.8c0 .98-.18 2.8-.4 4.04l-.4 2.25 1 .86a6 6 0 0 0 1.15.86c.1 0 .24-.98.33-2.18m12.28-.16.86-.74-.65-.6c-.72-.7-1.43-.63-2.52.22l-.66.52.64.67c.8.86 1.26.85 2.33-.07m14.26-2.55c.16-1.17.2-2.22.1-2.33-.1-.12-.89-.18-1.74-.14l-1.54.08-.3 1.2c-.17.65-.39 1.7-.49 2.32l-.18 1.14 1.92-.08 1.92-.08zm3.49-.03c.32-1.1.52-2.1.43-2.24-.3-.47-1.2-.25-1.41.35-.31.83-.61 3.76-.41 3.96.41.42.85-.23 1.39-2.07m-9.39.02c.24-1.1.44-2.1.44-2.25s-.7-.26-1.56-.26h-1.56l-.73 1.73a7 7 0 0 0-.62 1.82c.16.15 2.7.9 3.17.92.32.02.53-.47.86-1.96m-11.32-.67c.92-.63 1.15-.93 1.06-1.39a76 76 0 0 1-.43-2.5c-.17-1.12-.42-1.91-.6-1.9-.17 0-1.2.22-2.3.49l-1.98.48.09 1.16c.1 1.26 1.98 4.44 2.64 4.46.2 0 .88-.36 1.52-.8m6.06-1.17c.63-1.48.72-2 .63-3.7a8 8 0 0 0-.29-2.15c-.2-.2-3.08.34-3.65.69-.28.17-.26.69.09 2.79s.55 2.7 1.15 3.33c.4.41.86.75 1.03.75s.64-.77 1.04-1.71m6.95-4.64c.83-2.4.82-2.47-.52-2.29l-2.52.32-1.39.17.16 1.5c.23 2.26.16 2.2 2.02 2.1l1.66-.08zm4.94 1.44c.09-.23.16-.8.16-1.28 0-.72-.17-.95-1.04-1.44-.64-.35-1.1-.48-1.2-.31-.16.25-1.2 3.17-1.2 3.35 0 .05.7.1 1.56.1 1.18 0 1.6-.1 1.72-.42m4.83-1.55c.34-1 .59-1.86.55-1.9s-.7.32-1.46.78q-1.4.83-1.55 1.5c-.08.36-.2.88-.28 1.14-.1.42.02.47 1 .4l1.12-.09zm-29.47.34c-.03-.34-.3-2.17-.59-4.06-.52-3.44-.52-3.44-1.61-4.46-.93-.88-1.2-1-1.93-.86a3 3 0 0 0-1.46.87c-.57.64-.61.87-.46 2.36.24 2.34.6 3.25 1.84 4.57 1.75 1.85 3.02 2.68 3.7 2.43q.58-.22.51-.85m4.62-1.95c1.7-.4 1.92-.52 1.92-1.06 0-.64-.72-4.64-.86-4.78s-4.03.48-4.27.7c-.2.2.27 5.1.55 5.6.05.1.25.14.42.08.18-.05 1.19-.3 2.24-.54m22.42-1.1c.51-.25.93-.65.93-.89s-.41-1.85-.92-3.58-.93-3.45-.93-3.81c0-.37-.08-.93-.16-1.25-.15-.54-.26-.48-1.44.79l-1.29 1.38v3.04l-.02 3.05 1.39.85c.76.46 1.41.85 1.45.85.03 0 .47-.19.99-.43m-15.93-.36c1.18-.26 1.52-.45 1.52-.83 0-.49-.97-4.18-1.14-4.35-.15-.16-3.18.4-3.37.62-.17.18.36 3.94.68 4.8.07.2.28.3.46.23s1-.28 1.85-.47m19.65-3.78c-.26-1.4-.39-1.63-1.03-1.84-.4-.14-.78-.2-.83-.15a41 41 0 0 0 1.37 5.25q.16.38.47-.63c.23-.76.23-1.44.02-2.63m-12.26 2.7 2.33-.3v-4.76l-1.13.16c-.61.08-2.22.23-3.57.32-1.34.1-2.44.22-2.44.28 0 .2 1.12 4.21 1.23 4.4.16.27.84.25 3.58-.1m-15.23-5.15c1.04-.1 2-.25 2.15-.34.3-.2 1.12-4.77 1.12-6.24v-.98l-2.7-1.28c-1.5-.7-2.8-1.23-2.89-1.17-.16.1-.89 2.36-2.1 6.52-.5 1.76-.53 2.1-.22 2.49.57.69 1.91 1.43 2.35 1.3.22-.07 1.25-.2 2.29-.3m7.46-1.06c.55-.12 1.37-1.43 1.37-2.21 0-.27-2.89-2.66-3.21-2.66-.15 0-.47 1.54-.9 4.27-.05.38-.04.76.04.84.14.13 1.4.02 2.7-.24m-15.24-.81c.64-.14.8-.4 1.28-2.04l1.31-4.4c.42-1.37.72-2.54.67-2.59-.27-.27-3.16-.86-3.32-.67-.75.81-1.85 5.97-1.85 8.65 0 1.48.02 1.54.6 1.38.32-.1.91-.24 1.31-.33m23.81.01 2.31-.17 1.49-1.68 1.48-1.7h-2.64c-2.5 0-2.76.06-4.98 1.04-2.24 1-3 1.65-3 2.63 0 .28.34.32 1.51.2zm12.1-.82c.31-.68.5-1.38.44-1.55s-.63-.39-1.26-.49c-.64-.1-1.43-.25-1.76-.33-.6-.15-.6-.1-.53 1.38.08 1.48.1 1.54 1 1.86 1.42.51 1.53.47 2.12-.87m-15.12-3.68c.48-.21.93-.54 1-.73.08-.2-.49-1.76-1.26-3.47l-1.39-3.1-2.45 2.6a32 32 0 0 0-2.45 2.8c0 .1.83.83 1.87 1.64l1.89 1.46.96-.41zm15.25-1.89c-.64-2.97-1.21-5.2-1.45-5.63-.23-.44-3.33-1.76-3.57-1.53-.07.07.07.76.3 1.54.23.77.63 2.53.9 3.9.26 1.37.52 2.53.57 2.57.11.1 2.58.6 3.15.64.38.03.39-.14.1-1.49m-5.67.09c0-1.73-1.74-7.83-2.23-7.83-.78 0-6.65 1.1-6.84 1.29-.1.1.39 1.51 1.1 3.13 2 4.53 1.43 4.05 4.93 4.05h3.04zm-15.52-3.97a27 27 0 0 0 2.55-2.98c0-.13-1.06-.76-2.36-1.4-2.3-1.12-2.38-1.14-3.04-.7a33 33 0 0 0-4.9 4.37l-.55.78 2.71 1.32c1.5.73 2.79 1.33 2.88 1.35a33 33 0 0 0 2.7-2.74m-8.3-3.13a54 54 0 0 0 2.12-2.25c0-.18-2.36-.03-3.18.2-1.04.29-3.96 2.74-3.96 3.32 0 .2.32.45.72.54.4.08.85.2 1 .24.82.28 1.4-.07 3.3-2.05m16.86-2.09c1.79-.31 3.25-.67 3.25-.78 0-.31-2.57-2.19-3.92-2.87l-1.14-.57-2.43.82a32 32 0 0 0-3.34 1.3l-.92.5 2.1 1.07a12 12 0 0 0 2.63 1.09c.28 0 1.97-.25 3.77-.56m8.28-.76c-.79-.63-3.3-2.11-3.56-2.11-.1 0 .13.39.52.86.75.91 2.29 1.77 3.17 1.77.49 0 .48-.04-.13-.52m-18.75-2.26c.44-.23.76-.47.7-.53-.14-.13-2.85.65-2.85.82 0 .29 1.4.1 2.15-.3" style="fill:#f9f9f9" transform="translate(11.789 21.462)"/><path d="M39.72 191.13c.96-5.33 6.27-13.07 11.21-16.36 2.2-1.47 9.52-5.1 17.6-8.76 5.78-2.62 6.48-3 7.83-4.34 1.74-1.73 2.1-2.65 2.9-7.42.64-3.76.6-4.47-.52-9.44-1.9-8.38-1.37-16.17 1.44-20.86 2.5-4.18 7.71-7.63 14.05-9.3 2.25-.58 3.2-.68 6.84-.7 4.9-.04 6.62.3 10.12 1.97 2.8 1.34 5.04 3.46 6.14 5.83.8 1.7 2.66 9.28 2.66 10.8 0 .47-.36 1.66-.8 2.65-.85 1.95-.94 2.8-.52 5.08.27 1.42.22 1.65-1.48 7a111 111 0 0 0-2.77 9.61c-.61 2.56-2.22 3.72-6.2 4.5a21 21 0 0 0-2.75.64c-.15.1-.83 1.2-1.5 2.43-1.45 2.65-1.64 2.2 2.2 5.4a14 14 0 0 0 5.02 3.04c1.47.56 3.64 1.15 5.05 1.36 2.94.44 4.75 1.26 6.77 3.06 1.6 1.43 3.65 4.33 4.25 6.03.43 1.2 1.72 7.24 1.72 8 0 .35-.2.47-.79.47-.44 0-.8-.06-.8-.13s-.35-1.82-.79-3.88c-.57-2.7-1.04-4.2-1.67-5.34a6 6 0 0 0-1.15-1.69c-.16-.05-.9.63-1.67 1.51l-1.39 1.6 1.49 3.6a37 37 0 0 1 1.48 3.97c0 .6-1.27.43-1.68-.23a42 42 0 0 1-1.52-3.44c-.62-1.57-1.28-2.85-1.46-2.85-.36 0-8.6 2.86-8.78 3.04-.07.07.2.96.57 1.98l.7 1.86h-.76c-.65 0-.87-.22-1.6-1.58q-.84-1.6-1.33-1.6c-.6 0-5.54 1.02-5.84 1.2-.12.08-.16.56-.07 1.06.14.88.11.92-.65.92-.6 0-.84-.14-.96-.6-.35-1.3.7-1.02-14.83-4.03-3.48-.68-6.8-1.25-7.4-1.27l-1.06-.05-.7 2.51c-.98 3.43-.99 3.44-1.85 3.44-.88 0-.89.08.18-3.77.4-1.41.65-2.64.57-2.72-.07-.07-1.02-.3-2.1-.48a34 34 0 0 1-4.99-1.56c-6.46-2.59-11.97-4.7-12.27-4.7-.43 0-3.08 2.77-4.1 4.3-.97 1.44-1.66 2.95-2.68 5.89-1.09 3.13-1.04 3.04-1.86 3.04-.89 0-.89-.08.17-3.28 1.05-3.2 2.56-6.18 4.06-8.01.73-.9 1.24-1.7 1.12-1.77s-1.1 0-2.18.15c-1.76.26-2.07.4-2.93 1.29a31 31 0 0 0-4.98 7.96l-1.12 2.94c-.21.55-.46.72-1.03.72-.65 0-.73-.08-.61-.69m64.6-3.58c1.48-.32 2.7-.71 2.7-.87 0-.34-3.85-5.73-4.28-6-.15-.1-.86-.01-1.58.18a7 7 0 0 1-2.22.2c-1.1-.19-1.12-.04-.27 1.97 1.55 3.68 2.27 5.09 2.59 5.1.19 0 1.56-.27 3.05-.58m-5.6-.11-1.51-3.57c-1.3-3.03-1.4-3.17-2.32-3.4-1.52-.4-11.44-2.14-12.58-2.2l-1.04-.07-1.66 2.76c-.92 1.52-1.6 2.83-1.53 2.91.2.22 18.87 3.92 19.91 3.96.7.02.86-.06.73-.39m14.65-2.4a29 29 0 0 0 3.91-1.54c.26-.24-.4-.81-3.03-2.64a38 38 0 0 0-3.82-2.46c-.49-.13-5.25 1.15-5.62 1.51-.3.3 4.05 6.36 4.58 6.36.22 0 2.02-.55 3.98-1.23m-35.66-4.18c1.48-2.48 1.71-3.32.95-3.33-.2 0-2.72-.36-5.63-.8-2.92-.43-6.73-.98-8.49-1.22l-3.19-.44-1.77 1a8 8 0 0 0-1.77 1.17c0 .1 3.15 1.41 7 2.92 6.4 2.5 9.5 3.47 10.84 3.37q.49-.03 2.06-2.67m43.42 0a8 8 0 0 0 1.24-1.72c0-.37-1.98-1.81-3.32-2.42a14 14 0 0 0-3-.78c-1.87-.3-1.94-.29-3 .4-.9.6-1 .77-.7 1.08.78.77 6.74 4.83 7.13 4.85.22.02.97-.62 1.65-1.4m-19.62-1.93c.32-.32-.7-4.14-1.2-4.53-.42-.31-4.67-1.18-4.86-1-.21.22 1.25 5.13 1.62 5.43.73.59 3.88.66 4.44.1m-6.66-.64c0-.16-.36-1.47-.8-2.9q-.8-2.6-1.25-2.72c-.25-.08-1.53-.38-2.84-.67l-2.38-.53-2.32 2.3c-1.27 1.27-2.28 2.42-2.23 2.56s1.63.54 3.5.88l5.28.97c2.39.46 3.04.48 3.04.11m11.25-.65c.87-.26 1.69-.55 1.81-.66s-.68-.8-1.79-1.54c-1.72-1.17-2.12-1.6-2.83-2.98-.6-1.2-.87-1.53-1.05-1.25-.56.88-.16 3.08 1.21 6.8.07.2.34.3.6.22zm-50.19-1.5c.63-.32 1.2-.66 1.27-.78s-.74-.2-1.81-.2c-1.71 0-2.1.1-3.2.78-.68.44-1.24.86-1.24.96 0 .36 3.9-.24 4.98-.77m27.23-2.63c1.35-1.35 2.45-2.57 2.45-2.72 0-.33-4.82-3.04-5.4-3.04-.24 0-1.94.72-3.8 1.61a74 74 0 0 1-6.71 2.75c-3.1 1.05-4.53 1.65-4.2 1.74.65.2 13.35 2.05 14.15 2.07 1 .03 1.21-.12 3.51-2.41m28.13 2.03c.43-.52.23-.68-1.72-1.45-.86-.35-2.32-1.2-3.24-1.9-1.71-1.32-1.97-1.3-1.26.08.47.9 4.43 3.63 5.31 3.66.31.01.72-.17.9-.39m-44.3-4.25c5.07-1.78 10.61-4.16 11.32-4.86.21-.22-.88-1.35-1.85-1.93-.2-.12-1.07.16-2.15.7-.98.5-3.34 1.59-5.23 2.42-4.53 1.98-11.51 5.34-11.51 5.53 0 .08.82.15 1.83.15 1.6 0 2.55-.25 7.59-2.01m33.53-1.12c.13-1.2.17-2.32.1-2.52-.11-.27-4.93-2.02-5.58-2.02-.28 0-.18 5.51.1 5.69a29 29 0 0 0 4.9 1.08c.14-.04.36-1.04.48-2.23m-7.56-2.23c.08-2.7.05-2.83-.54-3.22a5 5 0 0 0-1.43-.57l-.82-.16-.84 2.7a14 14 0 0 0-.73 3c.1.3 3.5 1.25 4.02 1.12.15-.04.3-1.28.34-2.87m-5.32-1.53c.46-1.38.85-2.66.86-2.85.02-.33-3.06-1.9-3.75-1.9-.38 0-3.26 4.43-3.03 4.67.43.42 4.59 2.72 4.82 2.65.14-.04.64-1.2 1.1-2.57m14.76-2.54c.53-.96.92-1.9.85-2.06-.07-.18-1.87-.77-4.01-1.33-3.22-.83-3.93-.94-4.13-.64-.12.2-.23 1.17-.23 2.14v1.78l2.84.92c1.56.5 3.04.92 3.28.93.28.01.8-.63 1.4-1.74m-20.8-.9a34 34 0 0 0 1.37-2.24c0-.17-2.44-1.98-2.67-1.98-.11 0-.34.4-.5.9-.16.48-.7 1.47-1.22 2.18l-.93 1.29 1.1.99c.61.54 1.2.99 1.3.99s.81-.96 1.56-2.13m11.53-.4c.08-.23.16-1.22.16-2.2 0-1.68-.06-1.83-.9-2.65-.5-.48-.96-.76-1.05-.63-.18.3-.76 4.86-.63 4.99s1.88.88 2.08.9c.1 0 .25-.18.34-.41m-4.2-1.45c.09-.15.32-1.49.52-2.97.38-2.99.4-2.94-1.2-5.09a14 14 0 0 1-1.4-2.31c-.44-1.04-.73-1.21-1.17-.66-.14.18-.34 2.44-.44 5.03l-.18 4.7 1.66.77c1.93.89 1.98.9 2.2.53m19.5-1.8c.25-.24.48-.73.52-1.1.08-.64.04-.66-1.64-.66h-1.72l-.09.88c-.14 1.48.07 1.7 1.35 1.5a3.6 3.6 0 0 0 1.57-.62m-4.72.02-.07-1.1c-.03-.7-.17-.8-1.88-1.32-3.15-.96-3.33-.96-4.3-.15-.48.4-.87.86-.87 1 0 .28 6.07 2.04 6.75 1.95.22-.03.38-.2.37-.38m8.14-1.03c.62-.55.62-.88.01-.88-.56 0-1.11.49-1.11.98 0 .47.52.43 1.1-.1m-28.26-2.8c.32-5.57.31-5.6-.86-6.53a6 6 0 0 0-1.19-.81c-.09 0-.17.98-.17 2.18-.01 1.2-.19 3.08-.39 4.17l-.37 1.98 1.11 1c.61.54 1.25.98 1.4.99.19 0 .36-1.1.47-2.98m12.18.5 1.04-.87-.77-.7c-.42-.4-.95-.72-1.17-.72-.44 0-2.38 1.24-2.38 1.52 0 .36 1.44 1.66 1.84 1.65.22 0 .88-.4 1.44-.87m13.84-.5c.4-.62.82-4.55.5-4.76-.49-.33-3.24-.23-3.52.13a26 26 0 0 0-1.13 4.7c0 .4 3.89.33 4.15-.07m-5.42-2.19c.25-1.16.4-2.26.34-2.44-.17-.47-2.9-.44-3.38.05-.59.58-1.62 3.32-1.35 3.58.3.3 3.01 1.04 3.54.97.27-.03.54-.72.85-2.16m9.38.14c.8-2.63.8-2.65-.4-2.65h-1.03l-.3 2c-.42 2.8-.42 2.81.41 2.72.63-.08.77-.3 1.32-2.07m-20.93-.54c.97-.67 1.17-.96 1.17-1.64 0-1.09-.54-4.25-.77-4.5s-4.28.58-4.7.97c-.56.51.07 2.66 1.29 4.39.61.87 1.28 1.58 1.48 1.58s.89-.36 1.53-.8m6.21-1.2c.8-1.8.97-3.31.61-5.5l-.17-1.02-1.09.14c-.6.09-1.56.31-2.14.5-.97.33-1.05.43-1.03 1.28.02.5.18 1.8.37 2.88.27 1.63.47 2.08 1.15 2.7.45.42.98.76 1.17.76.2 0 .7-.79 1.13-1.75m7.04-5c.4-1.23.67-2.3.6-2.38-.14-.13-4.62.3-5.19.51-.22.08-.28.55-.18 1.52.27 2.73.15 2.6 2.2 2.6h1.84zm4.86 1.56c.56-1.46.34-2.16-.89-2.88a8 8 0 0 0-1.3-.67c-.16 0-1.12 2.41-1.4 3.56-.17.67-.17.67 1.58.67 1.64 0 1.77-.04 2.01-.68m5.31-2.8c1-3.15 1.09-3.65.93-5.23-.2-1.96-.44-2.31-1.73-2.57-.7-.14-.87-.1-.76.2.08.2.48 1.65.88 3.21.85 3.26.84 3.28-1.36 4.57-1.09.64-1.35 1.06-1.44 2.37-.07.9-.02.93 1.2.93h1.19zm-29.92 1.83c0-.48-.24-2.35-.53-4.17a137 137 0 0 1-.52-3.49c-.01-.35-2-2.08-2.56-2.23-.88-.23-2.38.61-2.76 1.54-.27.65-.27 1.2-.02 2.67.44 2.59.93 3.45 2.87 5.1 1.34 1.13 1.9 1.44 2.61 1.44.85 0 .91-.06.9-.86m4.67-1.96c.95-.24 1.79-.6 1.87-.8.17-.45-.6-5.1-.9-5.38-.23-.22-4.46.33-4.75.61-.16.16.31 4.53.6 5.54.17.59.94.6 3.18.03m22.33-1.16c.58-.3 1.05-.72 1.05-.94s-.42-1.86-.93-3.63a44 44 0 0 1-1.1-4.62c-.09-.76-.25-1.38-.36-1.38s-.81.7-1.55 1.55l-1.35 1.56v6.1l1.52.94c.83.52 1.55.95 1.6.95.04 0 .54-.23 1.12-.53m-14.89-.51c.2 0 .41-.19.5-.4.2-.52-.96-4.84-1.33-4.99a8 8 0 0 0-1.95.16c-1.6.26-1.66.29-1.66 1.07 0 1.18.56 4.23.84 4.59.18.22.62.21 1.76-.06.83-.2 1.66-.37 1.84-.37m7.47-1.04 1.2-.17.07-2.35c.04-1.3-.02-2.45-.13-2.56-.24-.23-7 .25-7.28.52-.2.18.8 4.13 1.2 4.75.23.34 1.46.3 4.94-.19m-14.46-5.3c.54-.21.66-.56 1.05-3.24.7-4.62.87-4.18-2.2-5.6a44 44 0 0 0-2.96-1.3c-.46-.1-.87.89-2.1 5.08l-1.1 3.8 1 .92 1 .92 2.35-.18c1.3-.1 2.63-.28 2.96-.4m4.98-.68c1.14-.15 1.26-.24 1.65-1.21.23-.58.42-1.2.42-1.4 0-.49-3.42-2.94-3.71-2.65-.37.37-1 5.07-.72 5.35.13.13.44.2.68.16s1-.16 1.68-.25m-15.26-.75c1.3-.33 1.34-.37 1.77-1.78 1.93-6.24 2.29-7.55 2.12-7.71-.28-.28-3.26-1.02-3.5-.86-.42.25-1.32 3.07-1.71 5.32-.42 2.41-.53 5.38-.2 5.38.11 0 .8-.16 1.52-.35m23.82-.06 2.64-.16 1.65-1.71c.91-.95 1.66-1.83 1.66-1.97s-1.2-.25-2.78-.25c-2.74 0-2.83.02-5.3 1.17-1.91.9-2.57 1.34-2.77 1.87-.51 1.35-.39 1.52 1 1.36.68-.08 2.44-.22 3.9-.3m12.7-.98c.8-1.72.81-2 .06-2.17-2.3-.53-3.17-.66-3.39-.53-.37.23-.3 2.92.08 3.23.38.3 1.76.8 2.27.84.18.01.63-.6.98-1.37m-15.63-3.4c.96-.46 1.73-1 1.73-1.2 0-.4-2.56-6.2-2.89-6.53-.25-.25-5.18 4.96-5.18 5.48 0 .5 3.34 3.04 4.03 3.06.32 0 1.36-.36 2.31-.82m16.1-.7c.06-.1-.27-1.8-.75-3.76-.6-2.47-1.02-3.69-1.38-3.98-.59-.48-3.42-1.5-3.62-1.3-.07.08.22 1.56.65 3.3s.79 3.46.8 3.82c0 1.03.33 1.34 1.87 1.71 1.73.42 2.29.47 2.43.21m-5.99-1.01c.2-.53-.6-4.43-1.37-6.73-.57-1.68-.6-1.72-1.48-1.67-1.32.06-6.23.92-6.61 1.16-.24.15.04 1.02 1.06 3.33 2.1 4.72 1.62 4.32 5.2 4.32 2.53 0 3.07-.07 3.2-.41m-15.55-4.32c1.47-1.58 2.68-3.01 2.68-3.18s-1.13-.86-2.52-1.53l-2.51-1.21-1.12.76c-1.85 1.28-5.38 4.82-5.09 5.12.26.26 5.4 2.87 5.72 2.9.09.01 1.37-1.27 2.84-2.86m-8.16-3.21a32 32 0 0 0 2.37-2.54c0-.35-4.16.26-4.92.72-1.06.64-3.4 3.13-3.16 3.37.21.21 2.2.78 2.86.81.27.02 1.51-1.02 2.85-2.36m16.34-1.85c4.26-.74 4.25-.73 3.17-1.77-1.35-1.3-3.9-2.72-4.87-2.72-1.38 0-6.71 2.06-6.71 2.59 0 .28 4.25 2.4 4.84 2.42.26 0 1.87-.23 3.57-.52m9.58-.24c0-.62-3.67-3-5.16-3.34-.77-.18-.76-.14.53 1.17a7 7 0 0 0 2.78 1.87c1.67.6 1.85.63 1.85.3m-19.27-3.1c1.3-.64 2-1.33 1.11-1.06l-2.16.56c-1.97.5-3 .94-2.83 1.2.22.37 2.63-.07 3.88-.7" style="fill:#f9f9f9" transform="translate(11.789 21.462)"/><path d="M40 190.43c1.13-3.87 2.94-7.14 6.1-11.04a20 20 0 0 1 5.38-4.83c1.9-1.22 9-4.76 14.2-7.1 8.2-3.68 9.97-4.62 11.13-5.94 1.54-1.75 2-3.3 3.08-10.44.12-.8-.17-2.49-1.18-6.88-1.38-6.04-1.3-12.25.25-17.22 1.24-4 4.54-7.48 9.35-9.88 4.49-2.23 6.86-2.83 11.9-3 3.65-.12 4.45-.06 6.68.45 3.17.73 5.8 2.04 7.76 3.85 2.42 2.24 3.1 3.83 4.67 10.94.73 3.29.7 3.55-.44 6.21-.78 1.8-.78 1.83-.46 4.1l.32 2.3-2.03 6.46a120 120 0 0 0-2.19 7.55 5.7 5.7 0 0 1-2.84 4.3c-.42.22-2.03.66-3.57.98l-2.8.58-1.14 1.97c-1.58 2.75-1.64 3.11-.67 3.94l2.83 2.44a13 13 0 0 0 4.75 2.82c1.7.67 3.52 1.17 4.94 1.36 3.22.42 5.52 1.6 7.75 3.95 2.4 2.55 3.43 4.76 4.42 9.49.44 2.07.8 3.83.8 3.9s-.3.13-.65.13c-.75 0-.71.1-1.62-4.23-.75-3.58-2.19-6.88-3-6.88-.49 0-2.94 2.7-2.94 3.23 0 .2.66 2 1.46 3.99s1.45 3.7 1.45 3.78-.32.11-.7.06c-.64-.07-.85-.41-2.07-3.32a31 31 0 0 0-1.62-3.5c-.29-.3-8.45 2.41-9.02 2.99-.25.24-.15.7.44 2.1l.75 1.78h-.73c-.65 0-.82-.2-1.41-1.56a7 7 0 0 0-.96-1.73c-.24-.15-2.68.28-6.07 1.06-.57.13-.62.24-.46 1.19.15.96.12 1.04-.45 1.04-.45 0-.74-.26-1.06-.93-.25-.52-.6-.99-.78-1.06-.18-.06-2.53-.54-5.23-1.06l-10.96-2.12c-3.34-.65-6.16-1.09-6.26-.98-.18.19-.9 2.55-1.55 5.03-.25.95-.4 1.12-.98 1.12-.64 0-.67-.06-.5-.96.1-.52.46-1.92.8-3.1.75-2.56.71-2.64-1.71-3.05-1-.17-5.05-1.6-9.6-3.38l-7.89-3.1-1.2 1.18c-2.6 2.51-4.8 6.51-6.2 11.29-.27.9-.45 1.12-.95 1.12-.85 0-.8-.52.3-3.57 1.35-3.75 2.32-5.6 3.98-7.67l1.48-1.85-1-.07a13 13 0 0 0-2.59.27c-1.56.32-1.59.34-3.38 2.7-1.9 2.5-3.81 6.1-4.6 8.67-.42 1.37-.54 1.52-1.2 1.52h-.73zm64.72-2.87c2.03-.44 2.56-.66 2.45-.96a45 45 0 0 0-3.68-5.24l-.86-1-1.31.32c-.73.18-1.76.29-2.3.25s-1.04 0-1.12.09c-.13.13 2.01 5.41 2.77 6.83q.29.55.87.41c.33-.06 1.76-.38 3.18-.7m-5.9.08c0-.58-2.54-6.4-3-6.87-.31-.31-4.47-1.18-11.36-2.38-2.07-.36-2.96-.42-3.21-.21-.45.36-3.33 5.23-3.33 5.62 0 .37-.34.3 9.52 2.2l9.4 1.84c1.68.35 1.98.32 1.98-.2m14.69-2.52c2.71-.94 3.97-1.5 3.97-1.76 0-.22-1.31-1.32-2.92-2.46-4.42-3.12-3.98-2.98-6.69-2.17l-2.76.82c-.26.08-.47.3-.47.52 0 .38 3.84 5.9 4.36 6.26.36.26.02.35 4.5-1.2m-35.61-4.3c1.06-1.8 1.56-2.9 1.4-3.07-.14-.14-2.56-.6-5.38-1.01l-8.8-1.31-3.68-.55-1.75.96c-1.89 1.03-2.32 1.35-2.1 1.56.34.34 14.38 5.7 15.5 5.92 3.05.59 2.96.63 4.81-2.5m43.06.4c1.79-1.89 1.82-1.98.96-2.79a11.2 11.2 0 0 0-7.07-2.74c-1.08 0-2.8.9-2.8 1.5 0 .27 7.05 5.36 7.46 5.37.1 0 .75-.6 1.45-1.34m-20.3-1.83c.5-.14.98-.39 1.08-.55.18-.29-.92-4.17-1.28-4.53-.33-.33-4.94-1.23-5.17-1-.23.2 1.27 5.19 1.7 5.65.18.2 1.48.55 2.5.66.14.02.67-.08 1.17-.23m-5.67-.8c.2-.32-1.38-5.27-1.82-5.73-.3-.31-4.55-1.41-5.46-1.41-.59 0-5.13 4.76-4.83 5.07.12.12 1.58.45 3.25.75 1.67.29 4.17.75 5.55 1.03 3.1.62 3.1.62 3.3.29m11.31-.86c.98-.32 1.78-.71 1.78-.86.01-.14-.85-.86-1.9-1.59-1.58-1.08-2.09-1.61-2.77-2.9-1.05-1.96-1.4-2.12-1.46-.62-.06 1.68 0 1.99.72 4.39.77 2.53.8 2.54 3.63 1.58m-53.08-.75c2.13-.3 4.48-1.36 4.16-1.88-.1-.17-.93-.23-2.11-.15-1.55.1-2.2.28-3.19.9-1.18.72-1.76 1.42-1.19 1.42.15 0 1.2-.13 2.33-.29m30.12-3.45c2.1-2.2 2.5-2.73 2.21-3a42 42 0 0 0-5.27-3.05c-.13 0-1.64.67-3.35 1.5a93 93 0 0 1-7.33 3c-2.32.82-4.26 1.62-4.31 1.77-.05.16 1.14.46 2.9.72l7.08 1.06c2.26.34 4.42.64 4.8.65.55.03 1.22-.52 3.27-2.65m27.93 2.2c.33-.27.52-.61.43-.76a7 7 0 0 0-1.81-.9c-.9-.33-2.48-1.23-3.5-2s-1.9-1.34-1.97-1.28.1.61.36 1.2c.39.86.97 1.4 2.89 2.65 1.32.86 2.53 1.56 2.7 1.57.16 0 .57-.22.9-.48m-44.39-4.25c4.96-1.73 11.35-4.5 11.7-5.06.24-.39-2.07-2.16-2.64-2.02-.65.14-13.41 6-16.47 7.54-1.2.6-2.19 1.23-2.19 1.4q0 .29 2.05.17c1.7-.1 3.02-.45 7.55-2.03m33.65.17c.07-.47.17-1.64.2-2.58l.08-1.72-2.39-.84c-1.3-.47-2.7-.85-3.1-.86l-.73-.02v2.76c0 1.92.1 2.83.33 2.98.44.28 3.84 1.08 4.75 1.11.6.02.74-.1.86-.83m-7.32-3.24c.1-3.23.01-3.5-1.45-4.13-1-.43-1.3-.46-1.55-.18-.49.5-2.04 5.54-1.79 5.78.36.35 3.07 1 3.92.96l.8-.05zm-5.47-1.85c1.07-3.33 1.03-3.5-1.22-4.39-1.34-.54-1.94-.66-2.18-.46-.68.57-2.77 4.2-2.63 4.56.2.54 4.18 2.81 4.77 2.73.36-.05.68-.68 1.26-2.44m13.61-.87c.57-.4 2.29-3.82 2.04-4.06-.36-.37-8.1-2.36-8.3-2.14-.1.1-.24 1.04-.34 2.09-.12 1.37-.07 1.96.16 2.12.28.18 5.67 2.12 6.03 2.17.07 0 .26-.07.41-.18m-19.66-2.6c.7-1.1 1.26-2.16 1.26-2.35 0-.41-2.05-1.99-2.58-1.99-.2 0-.55.44-.77.99-.23.54-.76 1.48-1.18 2.1a6 6 0 0 0-.76 1.36c0 .37 1.9 1.88 2.38 1.89.21 0 .96-.9 1.65-2m11.58-1.23c0-.62.07-1.55.16-2.08.13-.8.03-1.09-.7-1.91-1.43-1.64-1.67-1.37-2 2.24l-.18 2.03.76.41a4 4 0 0 0 1.36.42c.53.01.6-.12.6-1.11m-3.73-3.65.37-3.05-1.33-1.85a15 15 0 0 1-1.58-2.63c-.27-.84-1.3-1.25-1.53-.61-.18.5-.62 9.28-.48 9.65.15.42 3 1.66 3.65 1.6.47-.05.57-.4.9-3.11m14.3.56c0-.56-.14-1.14-.33-1.3-.19-.15-1.39-.58-2.67-.95-2.54-.74-2.72-.71-3.98.61-.59.62-.68.84-.39.96 1.05.4 7 1.9 7.18 1.8.11-.06.2-.57.2-1.12m4.84.49c.25-.31.46-.85.46-1.2 0-.6-.08-.63-1.84-.63-1 0-1.9.12-2 .27s-.09.76.01 1.36l.18 1.08 1.36-.16c.94-.1 1.5-.33 1.83-.72m3.02-.82c.74-.7.8-1.28.12-1.28q-.84-.01-1.21 1.26c-.24.77.28.78 1.1.02m-28.13-.92c.1-.67.17-2.73.17-4.56v-3.34l-1.04-.86c-1.46-1.2-1.68-1.13-1.48.53.1.77.04 2.22-.11 3.24-.71 4.6-.76 4.18.65 5.26.7.53 1.35.96 1.45.96s.27-.55.36-1.23m12.03-1.2c.6-.48 1.1-1 1.1-1.17 0-.33-1.47-1.7-1.82-1.7s-2.67 1.58-2.67 1.83c0 .28 1.77 1.88 2.08 1.88.1 0 .7-.38 1.3-.85m14.13-.71c.2-.18.72-3.4.73-4.47 0-.56-.1-.6-1.99-.6-2.28 0-2.18-.1-2.77 2.95-.5 2.57-.4 2.7 1.92 2.48 1.06-.1 2-.26 2.1-.36m3.23-.01c.31-.5 1.42-4.65 1.3-4.85-.2-.34-1.86-.23-2.17.15-.16.2-.37 1.38-.47 2.65l-.18 2.29h.69c.38 0 .75-.11.83-.24m-8.99-.62c.51-2.25.66-3.06.67-3.7 0-.73 0-.73-1.81-.73H101l-.85 1.89c-.46 1.04-.74 1.98-.63 2.1.32.3 2.76 1 3.59 1.02.54.01.75-.13.85-.58m-11.3-1.93c.79-.52 1.39-1.13 1.38-1.38 0-.88-.72-4.85-.9-5.02-.17-.18-4.52.61-5 .9-.13.1-.17.76-.08 1.5.12 1 .46 1.79 1.4 3.14.68.99 1.37 1.8 1.53 1.8s.91-.42 1.67-.94M99 151.6c.8-1.83.84-2.11.7-4.08a9 9 0 0 0-.36-2.35c-.12-.14-1.11-.02-2.28.27-1.6.4-2.1.63-2.17 1.02-.05.28.05 1.58.24 2.9.31 2.25.4 2.45 1.38 3.4.57.55 1.17.96 1.34.9.16-.05.68-.98 1.15-2.06m6.14-2.73c.3-.36 1.62-4 1.62-4.48 0-.15-.95-.18-2.45-.07-3.67.27-3.47.12-3.27 2.48.1 1.14.3 2.1.5 2.22.56.36 3.27.25 3.6-.15m5.53.03c.36-.45.64-2.38.4-2.73-.34-.49-2.3-1.62-2.62-1.51-.42.14-1.55 3.6-1.35 4.13.13.35.52.45 1.74.45.93 0 1.67-.14 1.83-.34m4.25-.01c.16-.2.78-1.9 1.38-3.8l1.09-3.46-.35-1.81c-.34-1.74-.4-1.83-1.36-2.19-.55-.2-1.08-.3-1.18-.2-.1.11.1 1.23.44 2.5.35 1.26.68 2.79.75 3.39.11 1.08.1 1.1-1.37 1.98-1.17.7-1.54 1.09-1.74 1.82-.3 1.09-.33 1.7-.09 1.94.32.31 2.13.19 2.43-.17m-28.82-.82c.23-.28.17-1.32-.28-4.43l-.6-4.06-1.1-1.13c-1.41-1.43-2.64-1.55-3.84-.35-.66.66-.77.98-.77 2.18 0 2.36.62 4.13 1.9 5.46 2.33 2.41 3.95 3.22 4.69 2.33m4.34-2.51c1.14-.27 2.18-.6 2.3-.73.27-.26-.47-5.36-.82-5.76-.24-.26-4.74.28-5.08.62-.18.17.42 5.08.74 6.04.15.43.4.42 2.86-.17m22.9-1.29c.45-.25.87-.6.94-.77s-.35-1.95-.92-3.94c-.58-2-1.04-4.2-1.04-4.9q0-1.3-.34-1.3c-.18 0-1.01.79-1.85 1.74l-1.52 1.73v2.83c0 1.56.1 2.96.2 3.12.31.47 2.8 1.95 3.29 1.95.24 0 .8-.2 1.25-.46m-16.28-.21c.9-.23 1.73-.52 1.85-.63.18-.18-.94-4.92-1.24-5.22-.16-.17-3.51.22-3.88.45-.27.16-.26.65 0 2.41.58 3.74.52 3.7 3.27 2.99m9.58-1.45c.62-.23.65-.34.65-2.64 0-2-.07-2.42-.45-2.57-.48-.18-7.21.36-7.45.6-.15.14.6 3.35 1.06 4.6.24.62.26.62 2.9.44 1.46-.1 2.94-.3 3.3-.43m-17.28-4.85a15 15 0 0 0 2.46-.49c.24-.24 1.21-6.89 1.07-7.27-.15-.37-5.28-2.99-5.88-2.99-.19 0-.46.22-.6.48-.38.72-2.4 7.82-2.4 8.45 0 .65 1.75 2.16 2.5 2.17.3 0 1.58-.16 2.85-.35m8.06-1.27c.45-.38.98-2.2.79-2.7-.23-.61-3.43-2.85-3.69-2.58-.26.25-.97 4-.98 5.16l-.01.77 1.77-.18c.98-.1 1.93-.31 2.12-.47m-16.26-.46 1.26-.35.68-2.29c.37-1.25.97-3.2 1.32-4.32s.64-2.22.64-2.44c0-.45-2.54-1.3-3.47-1.16-1.12.17-2.35 4.8-2.35 8.86 0 1.67.09 2.22.33 2.15zm25.52-.2c.96-.12 1.33-.39 2.74-1.98.9-1.01 1.56-1.91 1.47-2s-1.5-.14-3.12-.1c-2.78.06-3.08.12-5.22 1.07-1.83.82-2.36 1.2-2.74 1.9-.84 1.62-.8 1.64 2.65 1.45 1.71-.1 3.6-.25 4.22-.33m11.06-1.15q.61-1.45.36-1.76a6 6 0 0 0-2.12-.64c-2.14-.39-2.26-.3-2.3 1.44-.03 1.37.23 1.8 1.33 2.2 1.59.58 2.05.37 2.73-1.24m-15.89-3.06c1.1-.52 2-1.06 2-1.2 0-.6-3.02-6.85-3.32-6.85-.47 0-5.46 5.53-5.27 5.84.28.44 3.94 3.15 4.28 3.15.18 0 1.22-.42 2.31-.94m16.17-.73c.22-.56-1.46-7.25-1.96-7.82-.45-.52-3.66-1.7-4.02-1.48-.1.07-.03.7.17 1.38.2.7.65 2.63 1 4.3l.62 3.05 1.82.43c2.35.56 2.22.55 2.37.14m-5.94-1.04c.1-1.25-.49-4.26-1.38-7-.52-1.58-.59-1.66-1.4-1.66-1.06 0-6.84 1.04-7.09 1.28-.16.15 2.43 6.44 3.04 7.38.16.24 1.17.33 3.5.33 2.45 0 3.3-.08 3.33-.33m-15.41-4.45a30 30 0 0 0 2.68-3.18c0-.3-4.61-2.62-5.23-2.62-1.1 0-6.62 5.06-6.36 5.83.1.33 5.18 2.85 5.8 2.88.24.01 1.64-1.3 3.11-2.91m-8.34-3.05a50 50 0 0 0 2.55-2.65c0-.05-.93-.1-2.07-.1-1.86 0-2.19.08-3.28.8-1.4.94-3.11 2.73-3.11 3.29 0 .24.58.51 1.65.76.91.22 1.67.4 1.68.42a96 96 0 0 0 2.58-2.52m16.9-1.98c2.3-.4 3.38-.7 3.38-.94 0-.8-4.59-3.8-5.8-3.8-1.16 0-6.9 2.39-6.9 2.87 0 .34 5.1 2.7 5.55 2.58.22-.06 1.92-.38 3.78-.71m9.2-.08c0-.52-1.74-1.86-3.84-2.95-2.89-1.5-3.3-1.18-1.05.83.84.75 2.1 1.55 2.97 1.88 1.84.7 1.92.7 1.92.24m-18.92-3.36c1.46-.83 1.53-.9.87-.98-.91-.1-5.23 1.18-5.76 1.71-.35.36-.2.4 1.46.29 1.48-.1 2.16-.3 3.43-1.02" style="fill:#f9f9f9" transform="translate(11.789 21.462)"/><path d="M39.82 191.6c0-.65 1.72-5.13 2.54-6.63a41 41 0 0 1 5.83-7.71c.7-.67 2-1.7 2.88-2.28 2.02-1.38 9.37-5.06 15.86-7.95 11.03-4.92 11.32-5.21 12.58-12.66.65-3.85.61-4.76-.43-9.07-1.96-8.17-1.44-16.6 1.31-21.3 2.31-3.93 7.67-7.45 13.8-9.08 2.35-.62 3.15-.7 7.01-.71 4.02 0 4.56.05 6.75.72 4.5 1.37 7.58 3.69 9.1 6.84.8 1.67 2.67 9.17 2.67 10.71a10 10 0 0 1-.79 2.68c-.86 2.02-.94 2.85-.52 5.13.27 1.43.22 1.64-1.5 7-.96 3.03-1.92 6.22-2.13 7.1-.75 3.15-.91 3.59-1.72 4.51-1.12 1.28-1.8 1.58-5 2.22a17 17 0 0 0-2.92.74c-.1.11-.75 1.26-1.45 2.56l-1.27 2.37 2.1 1.95c1.16 1.08 2.6 2.3 3.22 2.74 1.7 1.18 5.73 2.63 8.5 3.04a12.1 12.1 0 0 1 8.6 5.2c1.83 2.58 2.3 3.73 3.12 7.66.9 4.35.9 4.44.25 4.44-.41 0-.57-.3-.82-1.52-1.21-6.04-1.75-7.65-3.12-9.33l-.54-.66-1.36 1.33c-.75.72-1.48 1.53-1.62 1.8-.2.36.09 1.35 1.24 4.23a155 155 0 0 0 1.62 3.95c.06.11-.17.2-.53.2-.57 0-.8-.37-2.08-3.5-.9-2.17-1.61-3.54-1.87-3.59-.63-.12-8.96 2.9-9.12 3.31-.08.2.17 1.08.55 1.96.39.87.7 1.64.7 1.7s-.27.12-.6.12c-.5 0-.72-.3-1.24-1.61-.36-.9-.82-1.68-1.03-1.77-.49-.18-6.61.98-6.8 1.3-.09.12-.03.64.1 1.15.25.87.22.93-.35.93q-.61 0-.76-.6c-.33-1.3-.71-1.49-4.8-2.3-13.61-2.67-17.74-3.45-18.28-3.45-.67 0-.8.31-1.85 4.43-.43 1.68-.57 1.92-1.1 1.92-.33 0-.6-.07-.6-.17 0-.09.36-1.4.8-2.91.85-2.96.92-3.42.55-3.65-.13-.08-1.12-.31-2.2-.52-1.07-.2-3.2-.87-4.72-1.48-6.68-2.67-12.25-4.76-12.66-4.76-.76 0-3.98 3.74-5.12 5.93-.3.6-1.06 2.5-1.67 4.26-.9 2.6-1.21 3.19-1.67 3.26-.3.04-.56-.04-.56-.18 0-.5 1.9-5.75 2.68-7.38.43-.91 1.43-2.46 2.22-3.44 1.38-1.72 1.74-2.45 1.2-2.45-.14 0-1.17.13-2.28.3-2.43.36-2.93.73-5.16 3.82-1.78 2.47-3.52 5.95-4 8.02-.26 1.15-.4 1.35-.92 1.35-.34 0-.62-.1-.62-.21m64.69-3.82c1.85-.42 2.66-.72 2.72-1 .07-.4-3.48-5.65-4.25-6.29-.26-.21-.7-.2-1.66.05-.72.19-1.81.29-2.43.23-.94-.1-1.13-.04-1.13.34 0 .25.67 2 1.5 3.87 1.23 2.83 1.58 3.4 2.04 3.4.31 0 1.75-.28 3.2-.6m-5.42.05c0-.49-2.7-6.6-3.15-7.12-.59-.68-14.15-3.11-14.72-2.64-.2.17-1.1 1.51-1.97 2.98-1.28 2.13-1.54 2.74-1.27 2.99.19.17 2.96.82 6.16 1.44s7.43 1.45 9.39 1.86c3.88.79 5.56.94 5.56.5m14.81-2.7c2.5-.9 3.84-1.5 3.84-1.75 0-.21-1.6-1.5-3.57-2.87-4.04-2.82-3.6-2.73-7.54-1.53-1.24.38-2.25.84-2.25 1.02s.59 1.13 1.31 2.13l2.25 3.1c.66.91 1.11 1.3 1.53 1.29.33 0 2.32-.63 4.43-1.39m-37.52-1.7c.73-.85 3.13-5.03 3.13-5.45 0-.5-.35-.61-2.91-.99l-12.02-1.76-3.15-.45-2 1.09a10 10 0 0 0-2.09 1.35c-.05.15.84.62 1.98 1.06l7.2 2.82c4.4 1.74 7.32 2.63 9.04 2.75.24.02.6-.17.82-.43m44.9-2.3c.74-.8 1.35-1.62 1.35-1.83 0-.57-1.75-2.02-3.3-2.72-.73-.33-2.2-.74-3.28-.91-1.94-.3-1.96-.3-3.04.46-.6.42-1.1.9-1.1 1.07 0 .38 7.01 5.33 7.58 5.35.23 0 1.03-.64 1.78-1.43m-19.62-2.09c.4-.4.39-.58-.19-2.42a8 8 0 0 0-1.04-2.35c-.38-.33-4.01-1.23-4.92-1.23-.59 0-.48.92.42 3.63.75 2.24.89 2.47 1.66 2.7 1.22.38 3.56.19 4.07-.33m-6.54-.7c0-.3-.37-1.67-.81-3.06-.61-1.9-.96-2.6-1.4-2.78-1.19-.52-5.3-1.28-5.71-1.06-.6.32-4.52 4.67-4.52 5.01s.16.37 4.37 1.12l4.9.9c2.63.5 3.17.48 3.17-.14m11-.44c1.23-.38 2.23-.84 2.23-1.01s-.9-.89-2-1.58c-1.8-1.15-2.08-1.44-2.91-3.1-.5-1-1.02-1.82-1.15-1.82-.31 0-.55.97-.55 2.25 0 1.57 1.5 5.95 2.04 5.95.07 0 1.12-.3 2.35-.69m-52.5-.87c1.7-.23 4.2-1.36 4.2-1.9 0-.13-.97-.24-2.14-.24-2.18 0-3.2.33-4.72 1.54-.73.58-.54 1.17.32.97a42 42 0 0 1 2.34-.37m29.82-3.44c1.33-1.44 2.42-2.74 2.42-2.9 0-.34-5.04-3.2-5.65-3.2-.26 0-2.1.76-4.09 1.7-2 .93-5.23 2.25-7.2 2.92-3.48 1.19-4.23 1.55-3.9 1.87.22.23 13.28 2.17 14.78 2.2 1.22.03 1.23.02 3.64-2.59m28.05 2.12c.35-.26.56-.6.47-.76a8 8 0 0 0-2.05-1 15 15 0 0 1-3.63-2.13c-1.85-1.48-2.17-1.65-2.16-1.1.01 1.03 1.32 2.54 3.43 3.96 2.43 1.64 2.97 1.78 3.94 1.03m-44.65-4.11c6.02-2.1 11.87-4.7 11.87-5.28 0-.46-2.4-2.33-2.76-2.17a940 940 0 0 0-16.75 7.79c-1.2.6-2.18 1.22-2.18 1.37s.89.26 2.09.26c1.9 0 2.55-.17 7.73-1.97m33.53.83c.15-.2.32-1.46.36-2.83l.08-2.48-2.98-.92c-1.64-.5-3.07-.83-3.17-.73-.25.25-.11 5.78.15 6.04.15.15 3.73 1.02 5.1 1.24.1.01.3-.13.46-.32m-7.16-4.5.07-3.12-1.2-.53a4 4 0 0 0-1.67-.45c-.31.05-.71.86-1.29 2.6a22 22 0 0 0-.86 3.1c-.02.6.19.69 3.02 1.36 1.88.44 1.85.5 1.93-2.96m-5.32-1.5c.48-1.54.87-2.92.88-3.08 0-.37-3.62-2.01-4.19-1.9-.47.1-3.28 4.4-3.14 4.83.14.41 4.76 3.06 5.2 2.99.24-.05.72-1.13 1.25-2.85m14.69-2.39c.55-.94.98-1.95.94-2.23-.06-.42-.76-.69-4.22-1.58-2.28-.59-4.25-.97-4.37-.86a8 8 0 0 0-.2 2.38v2.16l2.77.97c1.53.53 3.07.95 3.43.93.5-.04.88-.44 1.65-1.77m-21.97.86a29 29 0 0 0 2.6-4.26c0-.24-2.63-2.15-2.97-2.15-.1 0-.56.74-1 1.65-.46.9-1.06 1.9-1.34 2.2-.73.78-.66.99.72 2.06 1.43 1.11 1.47 1.12 2 .5m12.65-2.16c.15-.29.27-1.37.27-2.42 0-1.85-.02-1.92-.98-2.8-.54-.49-1.1-.85-1.25-.8-.33.1-.6 1.55-.72 3.87l-.1 1.72.93.45c1.2.6 1.51.6 1.85-.02m-4.1-1.33c.08-.13.26-1.17.4-2.31s.34-2.44.42-2.88c.13-.68-.08-1.16-1.28-2.91a19 19 0 0 1-1.7-2.9c-.3-.9-.9-1.13-1.47-.56-.3.3-.43 1.5-.56 5.05-.1 2.57-.1 4.8-.01 4.95.2.32 3.23 1.78 3.73 1.8.17 0 .38-.1.46-.24m19.23-1.63c.5-.27 1.14-1.94.89-2.35-.18-.29-3-.37-3.69-.1q-.42.15-.42 1.16c0 1.73.17 1.92 1.56 1.71.67-.1 1.42-.29 1.66-.42m-4.45-.09c.08-.2.07-.82-.01-1.35-.18-1.1-.57-1.33-3.7-2.12l-1.88-.48-.98.74c-.95.72-1.4 1.37-1.13 1.63.18.18 6.55 1.91 7.12 1.94.24.01.5-.15.58-.36m7.83-1.1c1.04-.88 1.05-1.43.03-1.43-.84 0-1.34.59-1.34 1.57 0 .73.32.7 1.3-.14m-27.89-4.27.2-4.42-1.3-1.13c-.7-.63-1.39-1.1-1.52-1.06s-.22 1.1-.2 2.32c.03 1.23-.12 3.19-.33 4.35a8 8 0 0 0-.2 2.44c.3.53 2.25 1.91 2.72 1.92.38 0 .46-.56.63-4.42m12.06 1.78 1.16-1.05-.91-.8c-.5-.43-1.08-.8-1.28-.8-.66 0-2.7 1.38-2.7 1.82 0 .52 1.54 1.88 2.15 1.89.23 0 .95-.47 1.58-1.06m13.89-.3c.4-.65.87-4.84.58-5.18-.36-.44-3.42-.45-3.95 0-.44.36-1.42 4.8-1.16 5.22.24.38 4.3.34 4.53-.04m-5.75-.95c.14-.55.4-1.7.57-2.55.38-1.9.23-2.05-2-1.95l-1.58.07-.86 1.69c-1.2 2.38-1.16 2.57.66 3.08.84.23 1.64.46 1.79.52.84.29 1.18.08 1.42-.86m9.71-1.26c.9-3.06.9-3.09-.61-2.99l-1.26.08-.3 1.72c-.17.95-.32 2.11-.33 2.6-.03.85 0 .87.92.79.96-.08.96-.1 1.58-2.2m-21.25-.3c1.75-1.07 1.75-1.09 1.31-4a15 15 0 0 0-.59-2.8c-.22-.24-4.96.71-5.32 1.08-.42.41.26 2.96 1.13 4.25 1.68 2.5 1.77 2.53 3.47 1.48m6.5-1.45c.87-1.95 1-3.16.67-5.62-.15-1.08-.24-1.23-.82-1.23-.83 0-3.83.77-4.13 1.05-.12.12-.02 1.54.23 3.16.44 2.84.5 2.98 1.41 3.74 1.41 1.16 1.7 1.04 2.65-1.1m6.36-3.08c.38-.7 1.36-3.7 1.36-4.14 0-.22-.1-.45-.23-.53-.34-.21-5.15.38-5.51.68-.37.31-.17 3.59.25 4.12.16.21.94.33 2.07.33 1.46 0 1.86-.09 2.06-.46m5.52 0c.1-.25.19-.99.2-1.64 0-1.1-.07-1.22-1.16-1.96-.85-.57-1.26-.71-1.56-.52-.48.3-1.71 3.76-1.52 4.25q.12.34 2 .33c1.53 0 1.9-.08 2.04-.46m4.43-.4c.2-.47.74-2.12 1.2-3.67.76-2.46.84-3.02.67-4.56a5 5 0 0 0-.57-2.14c-.4-.4-2.14-.84-2.38-.6-.08.08.23 1.5.68 3.18.45 1.67.74 3.22.65 3.45s-.74.8-1.46 1.26c-1.46.93-1.75 1.33-1.83 2.49-.1 1.42-.07 1.45 1.34 1.45 1.26 0 1.36-.05 1.7-.86m-29.04-.39c.1-.25-.08-2.3-.4-4.56l-.58-4.1-1.25-1.13c-.69-.62-1.47-1.13-1.73-1.13-.96 0-2.29.77-2.7 1.56-.51 1-.51 1.71.02 4.03.46 2.05 1.15 3.03 3.37 4.78 1.43 1.13 2.95 1.4 3.27.55m5.77-2.68c.75-.2.79-.27.75-1.58-.05-1.92-.62-4.75-.98-4.88-.22-.08-4.42.4-5.13.59-.38.1.6 6.4 1.04 6.66.25.15 1.87-.15 4.31-.8m21.36-.97c.55-.37 1-.88 1-1.15s-.42-1.89-.93-3.62c-.51-1.72-1-3.89-1.1-4.8-.1-.92-.25-1.66-.35-1.66s-.92.76-1.82 1.7l-1.63 1.69v3.16c0 3.51-.06 3.37 2.12 4.65 1.46.86 1.5.86 2.71.03m-17.53.16 2.05-.54c.88-.23 1.13-.41 1.13-.86 0-.92-1.09-4.66-1.44-4.95-.4-.33-3.56.15-4.03.6-.52.51.55 6 1.16 6 .11 0 .62-.12 1.13-.25m8.07-1.35c3.62-.4 3.34-.13 3.25-3.25l-.07-2.7-1.06.04c-2.84.1-6.43.43-6.73.61-.26.17-.2.69.26 2.43.32 1.22.7 2.43.83 2.68.27.54.38.55 3.52.19m-12.58-5.62c.57-.28.72-.6.99-2.18.17-1.02.4-2.7.5-3.76l.18-1.9-3.07-1.5c-3.25-1.6-3.66-1.63-3.95-.3-.07.32-.63 2.3-1.25 4.38l-1.12 3.8 1.02 1.05 1.02 1.07 2.5-.17c1.37-.1 2.8-.32 3.18-.5m5.57-.71c.7-.19 1.22-1 1.48-2.33.15-.74.03-.9-1.62-2.15-1.82-1.38-2.43-1.61-2.64-1.02-.38 1.02-.84 5.4-.6 5.68.25.31 1.79.23 3.38-.18m-16-.57c1.52-.47 1.65-.63 2.25-2.71.3-1.04.9-3.07 1.34-4.5s.71-2.7.59-2.82c-.12-.1-.99-.39-1.92-.62-1.53-.38-1.75-.38-2.15-.02-.88.8-2.1 6.09-2.1 9.12 0 1.78.14 2.22.64 2 .16-.07.76-.27 1.34-.45m23.8-.1c1.17-.1 2.42-.29 2.78-.44.85-.37 3.78-3.6 3.57-3.93-.09-.15-1.45-.26-3.06-.26-2.8 0-2.97.03-5.18 1.03-2.63 1.19-3.18 1.6-3.42 2.53-.32 1.28 0 1.53 1.68 1.37.83-.08 2.47-.22 3.64-.3m12.36-.07c.68-.78 1.4-2.96 1.07-3.28-.35-.35-3.76-1.08-4.23-.9-.26.1-.33.62-.28 1.92l.08 1.79 1.2.45c1.5.58 1.68.58 2.16.02M102 131.68c.94-.46 1.75-1.04 1.8-1.27.12-.7-2.77-6.98-3.23-6.98s-5.45 5.3-5.45 5.8c0 .56 3.75 3.31 4.5 3.3.36 0 1.43-.39 2.38-.85m16.24-.66c.2-.33-1.66-7.81-2.03-8.14-.45-.4-3.3-1.44-3.95-1.44-.42 0-.5.13-.4.6l.82 3.5c.38 1.6.69 3.16.7 3.46 0 .93.63 1.48 2.13 1.84 1.72.42 2.55.47 2.73.18m-6.17-1c.3-.36.28-.8-.11-2.72-.66-3.24-1.43-5.74-1.9-6.12-.31-.27-.88-.25-2.84.1-4.5.8-5.22.99-5.22 1.33 0 .6 2.96 7.16 3.39 7.5q.41.33 3.37.33c2.4 0 3.03-.08 3.31-.42m-16.34-3.48c2.54-2.67 3.89-4.2 3.89-4.4a18 18 0 0 0-2.7-1.52l-2.7-1.35-.93.49c-1.22.65-5.94 5.22-5.81 5.62.09.27 5.57 3.13 6.1 3.19.11 0 1.08-.9 2.15-2.03m-7.16-4.21a22 22 0 0 0 2.58-2.8c0-.37-4.48.05-5.36.5-.97.5-3.64 3.18-3.64 3.66 0 .22.46.5 1.13.67l1.39.38c.9.33 1.5-.04 3.9-2.41m16.6-1.81 3.64-.66c.04 0 .07-.18.07-.4 0-.92-4.58-3.84-6.03-3.84-1.73 0-7.3 2.36-7.05 2.98.18.41 4.55 2.53 5.27 2.56.3 0 2.14-.28 4.1-.64m9.53-.11c0-.51-2.58-2.48-4.39-3.35-3-1.44-3.28-1.16-1.02 1 1.45 1.38 3.64 2.55 4.81 2.58.33 0 .6-.1.6-.23m-18.8-3.57c1.93-1.05 1.97-1.09 1.13-1.17-.97-.1-5.42 1.1-6.35 1.7-1 .65-.44.93 1.47.73a9 9 0 0 0 3.75-1.26" style="fill:#f9f9f9" transform="translate(11.789 21.462)"/><path d="M39.96 191.25c.67-2.18 1.83-5 2.64-6.46 2.09-3.74 5.68-7.81 8.6-9.76 2.01-1.35 10.62-5.64 16.14-8.05 10.23-4.47 11.16-5.42 12.32-12.6.54-3.37.4-5.7-.63-10.05-1.7-7.21-1.32-14.55 1-19.32 2.32-4.78 8.45-8.8 15.67-10.29a33 33 0 0 1 11.3.12c5.2 1.24 8.92 4.04 10.3 7.75.81 2.18 2.48 9.9 2.28 10.56-.1.33-.54 1.43-.98 2.44-.76 1.76-.78 1.92-.5 3.47.45 2.44.4 2.83-.93 6.99-1.94 6.1-3 9.79-3 10.42 0 .33-.35 1.13-.77 1.8-.95 1.5-2.3 2.19-5.47 2.76-1.3.24-2.54.6-2.77.79-.53.46-2.63 4.41-2.63 4.96 0 .42 3.86 3.97 5.55 5.09 1.6 1.06 5.57 2.43 7.94 2.74 3.1.41 5.2 1.46 7.44 3.73 2.45 2.47 3.47 4.64 4.47 9.46.44 2.08.79 3.83.79 3.9s-.21.12-.47.12c-.4 0-.59-.6-1.19-3.67-.4-2.01-.93-4.13-1.18-4.7-.83-1.83-1.69-3-2.19-3-.58 0-3.16 2.84-3.17 3.49 0 .41 1.96 5.45 2.78 7.16.33.69.32.72-.29.72-.35 0-.64-.12-.64-.27 0-.36-2.64-6.68-2.91-6.97-.26-.27-8.87 2.66-9.41 3.2-.3.3-.28.57.18 1.74.3.76.65 1.49.78 1.63q.6.65-.36.67c-.49 0-.67-.23-.96-1.22a6 6 0 0 0-.92-1.87l-.57-.66-3.24.69c-1.78.37-3.31.68-3.4.68s-.1.54 0 1.2c.14 1.03.1 1.18-.33 1.18q-.5 0-.64-.76a3 3 0 0 0-.54-1.15c-.21-.21-1.8-.65-3.52-.98l-11.17-2.16c-5.67-1.1-8.14-1.48-8.37-1.3-.19.16-.66 1.5-1.05 2.99l-.81 3.03c-.06.18-.36.33-.67.33q-.59.01-.41-.4c.08-.22.52-1.67.98-3.23.96-3.32 1-3.27-1.85-3.73-1.16-.2-4.65-1.42-9.53-3.35-4.24-1.68-7.8-3.05-7.9-3.05-.37 0-3.17 3.03-4.26 4.6-1 1.44-2.7 5.38-3.49 8.04-.23.8-.47 1.12-.81 1.12-.27 0-.5-.03-.49-.06 0-.04.47-1.42 1.05-3.07 1.4-4 2.37-5.9 4.11-8.08.8-1 1.45-1.93 1.45-2.05 0-.32-1.26-.29-3.44.07-1.38.23-1.98.47-2.47 1A42 42 0 0 0 43 186c-.82 1.62-2.08 5.02-2.03 5.43.02.14-.24.3-.58.35-.54.07-.6 0-.43-.53m64.77-3.42c1.44-.32 2.66-.74 2.74-.93.07-.19-.9-1.8-2.18-3.56l-2.3-3.2-.96.16c-.53.09-1.76.23-2.75.32-.98.08-1.78.26-1.78.39 0 .54 2.95 7 3.32 7.28.22.17.61.26.86.2.25-.04 1.62-.35 3.05-.66m-5.51.3c.16-.27-2.93-7.58-3.3-7.81-.34-.2-13.21-2.52-14.03-2.52-.65 0-.92.23-1.67 1.39-1.82 2.85-2.7 4.66-2.42 4.94.15.15 3.66.94 7.8 1.75 4.14.8 8.6 1.7 9.91 1.97 2.79.58 3.49.63 3.7.27m14.31-2.78c2.29-.8 4.28-1.57 4.44-1.72q.3-.28-.1-.65a99 99 0 0 0-7.23-4.94c-.44-.2-1.2-.07-3.22.55-1.45.45-2.8.97-2.98 1.15-.28.28.12.98 2.06 3.7 1.32 1.85 2.5 3.36 2.64 3.36.13 0 2.1-.65 4.4-1.45m-35.43-4.37c1.68-2.8 1.88-3.29 1.43-3.56q-.33-.2-14.56-2.26l-3.55-.51-2.07 1.08c-2.07 1.07-2.47 1.58-1.6 2.03 1.54.81 14.39 5.65 15.5 5.84 2.95.5 2.99.48 4.85-2.62m43.33.1 1.54-1.73-.52-.71c-.62-.84-3-2.33-4.31-2.7-.51-.14-1.67-.33-2.58-.42-1.5-.16-1.75-.1-2.73.54-.68.45-1.05.88-1 1.16.1.44 7.25 5.6 7.78 5.6.16 0 .98-.78 1.82-1.73m-20.72-1.43c1.54-.43 1.61-.69.86-3.05-.36-1.16-.8-2.25-.98-2.43-.45-.46-5.28-1.42-5.6-1.12-.3.3 1.39 5.7 1.92 6.13.3.25 1.56.6 2.57.7.15.02.7-.09 1.23-.23m-5.43-.9c.13-.36-1.3-5.25-1.75-5.98-.2-.33-4.66-1.57-5.7-1.58-.58 0-5.41 4.69-5.41 5.25 0 .37.33.45 6.74 1.65 6.24 1.17 5.94 1.13 6.12.65m11.22-.83c1.31-.42 2.1-.8 2.04-1-.05-.17-1.01-.95-2.14-1.72-1.8-1.25-2.14-1.62-2.97-3.26-.52-1.04-1.07-1.8-1.25-1.74-.89.29-.45 4.59.76 7.53.43 1.06.74 1.07 3.56.19m-53.05-.73c2.05-.31 4.63-1.45 4.63-2.04 0-.74-4.04-.64-5.57.13-.99.5-2.37 1.69-2.37 2.04 0 .28.74.25 3.3-.13m29.83-3.25c2.7-2.81 2.89-3.05 2.63-3.45a42 42 0 0 0-5.64-3.27c-.21 0-2.9 1.2-6.05 2.72-.8.39-3.25 1.33-5.43 2.1-4.46 1.57-4.96 2.04-2.51 2.4.8.1 4.07.6 7.27 1.1 3.2.48 6.15.9 6.56.9.59.03 1.18-.44 3.17-2.5m28.07 1.99c.39-.3.7-.7.7-.9 0-.19-.92-.72-2.05-1.17a17 17 0 0 1-3.87-2.28c-2.51-2-2.8-1.93-1.6.42.56 1.13 1.04 1.57 3.1 2.9 1.34.87 2.57 1.57 2.73 1.57s.61-.24 1-.54m-44.48-4.2c5.43-1.88 12.1-4.8 12.1-5.28 0-.4-1.91-2.14-2.54-2.3-.33-.09-1.1.12-1.85.5-.71.36-3.58 1.68-6.37 2.93-5.38 2.4-10.9 5.08-11.29 5.45-.12.12-.14.37-.03.55.14.23.82.28 2.35.18 1.76-.1 3.13-.48 7.63-2.03m33.77.45c.12-.33.3-1.5.39-2.62.13-1.6.08-2.1-.22-2.34a19 19 0 0 0-3.1-1.2c-1.95-.63-2.81-.8-3.05-.6-.38.3-.48 5.4-.12 5.96.22.35 3.95 1.34 5.15 1.37.53.02.8-.14.95-.57m-7.27-1.41c.23-.6.19-5.48-.05-5.85-.27-.44-2.72-1.46-3.12-1.3-.18.07-.76 1.46-1.3 3.09-1.12 3.45-1.12 3.46 1.32 4.05 2.13.51 2.95.51 3.15 0m-5.65-3.35.93-3.02c.3-.97.29-1.15-.1-1.49-.7-.6-3.83-1.76-4.2-1.55-.5.28-3 4.3-3 4.83s4.32 3.13 5.2 3.14c.49 0 .67-.3 1.17-1.91m15-3.38c.62-1.1 1.1-2.16 1.06-2.38-.1-.58-8.41-2.75-8.84-2.3-.17.17-.35 1.27-.4 2.43l-.08 2.12 3.17 1.1c1.75.62 3.35 1.1 3.57 1.06.21-.02.9-.94 1.52-2.03m-20.86-.78a12 12 0 0 0 1.35-2.5c0-.5-2.78-2.65-3.14-2.43-.14.09-.62.9-1.07 1.8-.45.92-1.03 2-1.28 2.41l-.46.75 1.16 1.04c.63.57 1.37 1.03 1.63 1.03.3 0 .96-.77 1.81-2.1m11.74-2.4.21-2.24-1.22-1.16q-1.22-1.16-1.48-.9c-.28.3-.73 3.23-.75 4.9 0 .87.1 1.04.86 1.37a4 4 0 0 0 1.52.34c.63-.05.67-.16.86-2.3m-4.22.2c.08-.32.29-1.8.46-3.26l.32-2.67-1.45-2.12a15 15 0 0 1-1.63-2.82c-.13-.51-.34-.7-.8-.7-.34 0-.75.15-.9.33-.38.47-.79 9.42-.45 10.07.28.54 2.78 1.7 3.74 1.75q.57.01.71-.57m14.32-.88c.42-.17.58-1.74.25-2.6-.09-.23-1.04-.69-2.18-1.04-3.41-1.06-3.27-1.06-4.64 0-.68.54-1.2 1.15-1.16 1.37q.08.39 3.25 1.23a33 33 0 0 1 4.01 1.18c.03 0 .23-.05.47-.14m4.16-.11c.76-.22 1.05-.48 1.36-1.25.58-1.48.4-1.66-1.76-1.65-2.44 0-2.68.16-2.45 1.6.1.61.24 1.22.32 1.34.19.3 1.35.28 2.53-.04m4.25-1.6c.74-.74.77-.85.4-1.23-.64-.63-1.67-.25-2.02.75-.4 1.15-.37 1.29.26 1.29.3 0 .91-.37 1.36-.81m-28.32-.67c.1-.57.2-2.66.2-4.65l.02-3.62-1.36-1.08a7 7 0 0 0-1.62-1.08c-.16 0-.2.63-.08 1.66.1 1.06.02 2.69-.25 4.51a17 17 0 0 0-.28 3.3c.17.54 2.53 2.22 2.92 2.09.14-.05.35-.56.45-1.13m12.01-1.33c.64-.53 1.17-1.17 1.17-1.42s-.47-.79-1.05-1.19l-1.05-.73-1.15.68c-1.95 1.14-2.02 1.36-.84 2.57.56.58 1.19 1.05 1.39 1.05s.89-.43 1.53-.96m13.24-.37c.79 0 .9-.1 1.14-.99.15-.54.3-1.82.34-2.84l.08-1.85h-4.5l-.44 1.98c-.54 2.45-.59 3.62-.16 3.8.18.09.86.1 1.5.03a23 23 0 0 1 2.04-.13m3.97-.2c.38-.25 1.68-4.79 1.5-5.26s-2.35-.48-2.63-.03c-.36.58-.81 4.64-.56 5.08.24.43 1.18.55 1.69.21m-8.94-.52c.36-.67.91-4.25.74-4.7-.2-.51-3.68-.56-4.06-.07-.51.67-1.74 3.92-1.55 4.1.29.3 3.08 1.08 3.91 1.1.43.02.82-.16.96-.43m-11.43-1.99c.8-.47 1.5-1.1 1.57-1.39.19-.72-.54-5.13-.9-5.49-.3-.3-2.35-.02-4.6.6-.9.26-1 .38-1 1.14 0 .46.11 1.24.25 1.72.29 1 2.55 4.28 2.96 4.28.15 0 .93-.38 1.72-.86m6.45-1.4c.87-1.75.92-1.95.84-4.22-.1-2.97-.3-3.24-2.08-2.8-3.44.85-3.26.75-3.26 1.77 0 1.4.54 4.65.89 5.32.36.7 2.01 1.97 2.4 1.86.16-.05.7-.91 1.2-1.93m6.17-2.9c.53-.52 1.85-4.54 1.62-4.91-.2-.34-4.57-.09-5.65.32-.61.24-.63.3-.46 2.29.12 1.46.3 2.13.62 2.37.63.47 3.38.43 3.87-.06m5.54.02c.5-.5.8-2.77.44-3.22a8 8 0 0 0-1.49-1.05c-1.43-.84-1.6-.73-2.43 1.55q-.95 2.62-.23 2.92c.76.31 3.35.17 3.71-.2m4.08.17c.34-.21 1.29-2.73 2.18-5.8a6 6 0 0 0 .3-3.5c-.31-1.97-.36-2.05-1.52-2.53-1.94-.81-2.05-.44-1 3.2.91 3.13.84 3.45-.97 4.65-1.36.9-1.5 1.09-1.67 2.2q-.18 1.24.13 1.6c.33.4 2.01.52 2.55.18m-28.64-.94c.47-.34.47-.5-.2-4.78l-.68-4.42-1.14-1.03c-1.29-1.17-2.4-1.36-3.66-.62-1.32.79-1.62 2.3-1.03 5.17.38 1.81 1.3 3.15 3.28 4.75 1.65 1.34 2.54 1.58 3.43.93m4.4-2.57c1.27-.3 2.37-.7 2.44-.87.2-.53-.65-5.57-1-5.96-.29-.3-.76-.3-2.69-.05-1.29.17-2.5.46-2.68.65-.28.27-.26.87.1 3.22.43 2.82.69 3.55 1.23 3.55.15 0 1.31-.24 2.6-.54m22.83-1.32c.5-.3.98-.7 1.06-.91.07-.2-.33-2-.9-3.99a24 24 0 0 1-1.05-5.03c0-2.3-.49-2.18-2.95.76l-1.28 1.54v2.84c0 3.25.07 3.42 1.99 4.55 1.57.92 1.93.95 3.13.24m-16.28-.15q1.88-.42 2.01-.86c.15-.47-1.02-5.02-1.4-5.39-.3-.3-3.63.06-4.18.46-.42.3-.42.5 0 3.05.25 1.5.52 2.82.6 2.94.2.33.85.28 2.97-.2m7.81-1.14c1.27-.14 2.17-.36 2.32-.58.3-.49.29-4.76-.02-5.25-.2-.33-.76-.34-4-.07-2.08.17-3.9.43-4.06.59-.3.31.67 4.55 1.2 5.2.34.4 1.5.43 4.56.1m-15.63-5.14a10 10 0 0 0 2.6-.62c.22-.22 1.3-6.35 1.3-7.4 0-.4-5.55-3.26-6.36-3.26-.34 0-.64.25-.8.7a91 91 0 0 0-2.37 8.5c0 .67 2 2.44 2.76 2.43.3 0 1.6-.16 2.87-.35m7.31-1.05c.99-.26 1.23-.46 1.5-1.24.66-1.83.53-2.15-1.47-3.64-1.86-1.4-2.24-1.57-2.5-1.16-.27.45-1.01 5.56-.86 5.97.2.5 1.59.53 3.33.07m-15.7-.64c.81-.25 1.58-.64 1.7-.86.28-.55 2.43-7.64 2.58-8.54.11-.63 0-.78-.82-1.12a8 8 0 0 0-2.2-.47c-1.22-.06-1.27-.03-1.74.94-.26.55-.66 1.68-.89 2.51-.52 1.9-.83 8-.41 8a13 13 0 0 0 1.78-.46m23.66-.06 3.05-.24 1.78-1.9c.98-1.04 1.79-2.06 1.79-2.26 0-.3-.64-.37-3.26-.37-3.43 0-3.6.04-7.33 1.92-.75.38-1.7 2.13-1.48 2.72.17.46 1.12.48 5.45.13m13.15-1.07c.32-.65.59-1.51.6-1.9.01-.77.1-.73-3.1-1.48-1.6-.38-1.93.02-1.82 2.08.05.87.15 1.63.22 1.7.31.32 2.27.9 2.86.85.5-.04.8-.35 1.24-1.25m-15.95-3.3c1.11-.5 2.09-1.09 2.16-1.29.18-.46-2.63-6.83-3.17-7.18-.47-.3-1.32.44-4.16 3.65q-1.84 2.06-1.63 2.41c.3.5 4.07 3.33 4.46 3.33.17 0 1.23-.41 2.34-.92m16.47-.8c.08-.22-.23-2.03-.7-4.01-.61-2.58-1.02-3.78-1.44-4.2-.68-.68-4.07-1.87-4.39-1.54-.12.12.06 1.24.39 2.49s.76 3.15.95 4.23.44 2.1.57 2.24c.2.23 3.22 1.08 4.12 1.16.2.01.41-.15.5-.37m-6.05-1.9c.08-1.11-.93-5.65-1.65-7.36-.33-.8-.5-.93-1.27-.93-1.43 0-6.92 1.07-7.28 1.43-.27.26-.04 1 1.16 3.75a32 32 0 0 0 1.9 3.9c.36.4.82.46 3.74.4l3.32-.08zm-15.45-3.62c1.54-1.65 2.8-3.18 2.8-3.4 0-.43-4.72-2.85-5.55-2.85-1.11 0-6.62 5.02-6.62 6.03 0 .37.73.84 2.85 1.84a24 24 0 0 0 3.28 1.37c.24 0 1.7-1.34 3.24-2.99m-8.03-3.32a35 35 0 0 0 2.63-2.78c0-.08-1.04-.15-2.33-.15-2.1 0-2.44.07-3.5.75a16 16 0 0 0-2.47 2.14c-1.44 1.55-1.39 1.86.37 2.36 2.22.62 2.46.52 5.3-2.32m16.4-1.63c3.4-.59 4.1-.85 3.76-1.44-.58-1.02-4.99-3.83-6-3.83-.6 0-3.47 1-5.5 1.92-1.74.78-2.15 1.26-1.46 1.7 1.16.73 5.16 2.44 5.49 2.34a94 94 0 0 1 3.7-.69m9.78-.03c0-1.1-5.24-4.45-6.98-4.45h-.82l1.74 1.74a8.4 8.4 0 0 0 3.43 2.37c1.91.7 2.63.8 2.63.34m-19.3-3.5c2.66-1.4 3.02-1.9 1.15-1.63-1.42.2-4.42 1.04-6 1.67-1.62.65-1.28 1.13.82 1.13 1.62 0 2.03-.12 4.03-1.17" style="fill:#f9f9f9" transform="translate(11.789 21.462)"/><path d="M39.82 191.61c0-.12.1-.32.22-.46.13-.14.55-1.2.96-2.37a27 27 0 0 1 4.19-7.6c3.04-4.1 4.9-5.58 10.82-8.65a249 249 0 0 1 10-4.77c8.65-3.89 9.67-4.44 11.1-6s2.1-3.46 2.79-7.84c.55-3.54.52-4-.53-8.66a37 37 0 0 1-1.09-8.34c-.3-8.05 1.2-12.5 5.5-16.4 5.33-4.81 14.88-7.27 22.3-5.73 6.3 1.3 10.3 4.54 11.56 9.37.87 3.3 1.82 7.7 1.81 8.4 0 .36-.36 1.49-.8 2.5a8 8 0 0 0-.53 5.43c.24 1.23-.3 3.29-2.91 11.23-.43 1.3-.9 3.11-1.07 4.03-.35 2-1.34 3.5-2.75 4.17-.55.26-1.96.65-3.14.86a16 16 0 0 0-2.81.7c-.68.34-3.12 4.4-3.16 5.27-.02.47 4.96 4.92 6.26 5.58a28 28 0 0 0 7.48 2.46c3.27.49 4.97 1.33 7.16 3.52 2.8 2.78 3.47 4.19 4.58 9.43.37 1.75.75 3.39.84 3.63.13.33.04.45-.34.45s-.52-.19-.54-.72a48 48 0 0 0-1.52-7.22c-.6-1.72-1.95-3.7-2.52-3.7-.5 0-3.43 3.23-3.43 3.8 0 .34 2.45 6.32 2.93 7.14.16.27.22.55.15.63-.25.24-.96-.16-.96-.55 0-.2-.6-1.81-1.35-3.58-1.13-2.68-1.45-3.2-1.92-3.2-.48 0-2.32.6-8.37 2.76-1.19.42-1.27.98-.4 2.93.36.84.61 1.59.55 1.65-.21.21-.99-.18-.84-.42.21-.35-1.1-2.95-1.58-3.13-.57-.22-6.42.86-6.92 1.28q-.55.43.05 1.87c.15.35.07.46-.33.46-.38 0-.52-.18-.52-.68 0-1.18-.84-1.71-3.54-2.24-19.3-3.77-19.98-3.89-20.36-3.51-.34.34-1.87 5.47-1.77 5.95.04.19-.22.38-.58.44-.5.07-.59.02-.37-.26.42-.54 1.73-5.45 1.63-6.12-.07-.51-.37-.65-2.31-1.03a41 41 0 0 1-5.56-1.77c-1.83-.73-4.75-1.87-6.5-2.54-1.74-.67-3.56-1.4-4.04-1.6-1.44-.65-1.96-.5-3.4 1a19 19 0 0 0-3.66 4.94c-.91 1.8-2.52 6.22-2.52 6.9q0 .52-.53.52c-.51 0-.74-.39-.33-.57.1-.05.6-1.28 1.09-2.73 1.2-3.55 2.35-5.78 4.11-7.97.81-1 1.47-1.92 1.47-2.03s-.17-.28-.4-.36c-.48-.19-4.55.4-5.23.75-.6.32-3.82 4.66-4.88 6.61-.94 1.71-2.18 5.02-2.18 5.79q0 .51-.53.51c-.3 0-.53-.1-.53-.2m59.48-3.58c.15-.74-2.91-7.71-3.48-7.93-.87-.33-14.22-2.61-14.56-2.48-.4.15-3.87 5.78-3.87 6.27 0 .54 1.55.93 10.05 2.53 2.84.54 6.47 1.25 8.07 1.58 3.33.69 3.67.69 3.8.03m5.08.06c3.7-.74 3.81-.87 2.5-2.8-1.8-2.64-3.59-4.97-3.98-5.19-.2-.11-.82-.08-1.37.07-.54.15-1.67.27-2.51.27-1.45 0-1.52.04-1.52.67 0 .61 2.43 6.47 2.99 7.2.33.45.65.43 3.89-.22m9.43-2.64c4.7-1.62 4.98-1.8 3.9-2.74-1.6-1.4-7.05-4.91-7.62-4.91-.68 0-4.62 1.14-5.43 1.58-.76.4-.69.9.31 2.25.48.63 1.51 2.06 2.3 3.16 1.06 1.46 1.6 2 2.03 2 .33 0 2.36-.6 4.51-1.34m-37.44-1.63c.4-.33 2.43-3.56 3.24-5.14.63-1.25.2-1.5-3.58-2.04-1.8-.26-4.64-.68-6.31-.95-1.68-.26-4.2-.63-5.63-.82l-2.59-.34-1.85.9c-3 1.45-3.26 2.12-1.13 2.87.56.2 3.57 1.38 6.7 2.62 7.03 2.8 10.26 3.63 11.15 2.9m45.08-2.51c.82-.88 1.43-1.77 1.44-2.11 0-.4-.43-.92-1.4-1.65-1.78-1.35-2.74-1.73-5.27-2.14l-2.06-.33-1.25.78c-.8.49-1.26.96-1.26 1.28 0 .59 7.06 5.69 7.87 5.69.27 0 1.14-.69 1.93-1.52m-19.58-1.93c.22-.18.4-.5.4-.71 0-.63-1.07-3.95-1.44-4.45-.2-.28-1.2-.65-2.56-.94-2.67-.6-3.32-.62-3.5-.16-.15.41 1.47 5.58 1.93 6.13.17.2.63.43 1.02.5 1.17.2 3.74-.03 4.15-.37m-6.38-.49c.16-.25-.81-3.66-1.56-5.52-.3-.72-.66-1.18-1.02-1.26-4.8-1.1-5.26-1.17-5.7-.94-.95.5-5.04 5.05-4.9 5.43.15.38 1.04.61 5.13 1.33 1.24.22 3.09.56 4.1.77 2.18.44 3.75.52 3.95.2m9.74-.4c.62-.22 1.63-.51 2.23-.67 1.6-.42 1.64-.93.18-1.95l-2.2-1.55a7 7 0 0 1-1.9-2.5 7 7 0 0 0-1.22-1.9c-.45-.14-.85 1.07-.85 2.54 0 1.2.93 4.64 1.56 5.82.36.68.68.7 2.2.2m-52.1-1.08c2.48-.4 5.08-1.56 5.08-2.26 0-.31-.47-.4-2.33-.47-1.97-.06-2.51.01-3.5.5-1.37.7-2.64 1.93-2.39 2.33.23.36.32.36 3.14-.1m30.4-3.5c1.58-1.57 2.6-2.8 2.6-3.12 0-.4-.73-.94-2.92-2.2l-2.9-1.65-1.13.51-3.77 1.75c-2.05.96-10.4 4.1-10.89 4.1-.2 0-.09 1.06.1 1.07.11 0 2.17.3 4.57.66s5.38.79 6.61.95 2.3.33 2.36.4c.06.05.72.1 1.45.1h1.34zm28.09 2.02q1.34-1.05-.03-1.61a23 23 0 0 1-5.89-3.24q-2.11-1.76-2.12-.96c0 .65 1.33 3.16 1.9 3.56 2.36 1.7 4.16 2.74 4.75 2.77.38.01 1-.22 1.39-.52m-48.09-2.88c7.8-2.58 15.24-5.7 15.55-6.51.16-.43-2.35-2.76-2.97-2.76-.24 0-.86.25-1.37.57-.5.3-2.62 1.32-4.7 2.24a198 198 0 0 0-10.5 4.86c-1.82.9-2.95 1.63-3 1.92-.08.41.17.46 2.28.46 1.9 0 2.81-.15 4.71-.78m37.12-.5c.15-.27.34-1.55.44-2.85.14-1.85.1-2.43-.18-2.65a36 36 0 0 0-5.93-1.95c-.72 0-.98 1.07-.87 3.61.07 1.73.23 2.6.5 2.88.35.35 4.15 1.37 5.33 1.43.25 0 .57-.2.71-.47m-7.18-4.14c.1-3.87.07-3.97-1.52-4.5a6 6 0 0 0-1.78-.35c-.67.13-2.53 6.02-2.06 6.52.4.44 3.73 1.37 4.63 1.3.65-.06.66-.08.73-2.97m-5.34-1.81c.55-1.65.91-3.2.82-3.44-.18-.49-2.77-1.73-4.04-1.95-.79-.13-.88-.04-2.34 2.27-.83 1.32-1.48 2.6-1.43 2.83.1.48 4.84 3.29 5.55 3.29.35 0 .7-.72 1.44-3m14.65-2.36c1.45-2.62 1.42-2.97-.32-3.47a72 72 0 0 0-7.31-1.76c-.67 0-.9 1-.78 3.44l.09 1.7 2.9.99c4.18 1.4 4.14 1.4 5.42-.9m-20.72-.98a14 14 0 0 0 1.42-2.57c0-.43-2.7-2.47-3.27-2.47-.29 0-.68.54-1.11 1.5-.37.84-.96 1.9-1.32 2.37a4 4 0 0 0-.65 1.12c0 .47 2.5 2.43 3.01 2.36.3-.05 1.06-.96 1.92-2.3m11.46-.26c.15-.28.27-1.45.27-2.6 0-2.06 0-2.08-1.02-3.08-1.79-1.74-2.1-1.35-2.54 3.22l-.2 1.91 1.16.51c1.48.66 2 .67 2.33.04m-4.25-1.44c.16-.2.48-1.7.71-3.34l.42-2.99-1.45-2.14c-.8-1.18-1.61-2.5-1.81-2.94-.42-.93-1.27-1.15-1.87-.47s-.99 10.12-.43 10.58c.4.33 3.37 1.6 3.83 1.64.16.01.43-.14.6-.34m18.36-1.24c1.08-.3 2.04-1.5 2.04-2.53 0-.73-.45-.9-2.52-.9-2.1 0-2.51.35-2.31 1.92.23 1.84.7 2.1 2.8 1.51m-3.37-.6c.09-.35.03-1.12-.13-1.71-.27-1-.39-1.1-1.68-1.47-2.97-.85-3.72-1-4.26-.86-.76.2-2.61 1.94-2.48 2.34.06.17.87.53 1.8.8.94.25 2.48.7 3.43.98 2.41.7 3.13.69 3.32-.09m7.76-.94c.46-.43.82-1.03.82-1.34 0-.5-.12-.56-.99-.5-.85.08-1.06.23-1.47 1.08-.81 1.65.19 2.12 1.64.76m-28.33.16c.15-.18.36-2.36.47-4.83l.18-4.5-1.53-1.26c-.84-.7-1.66-1.21-1.82-1.16-.2.06-.26.91-.21 2.45a26 26 0 0 1-.33 4.61 51 51 0 0 0-.41 2.45c0 .21 2.94 2.58 3.2 2.58.1 0 .3-.15.45-.34m12.38-2.47c.64-.53 1.16-1.17 1.16-1.42 0-.52-1.77-1.86-2.45-1.86-.56 0-2.79 1.35-2.96 1.8-.2.54 1.67 2.44 2.42 2.44.36 0 1.18-.43 1.83-.96m13.84-.34c.22-.15.5-1.24.72-2.84.34-2.4.33-2.64-.08-2.94-.61-.45-3.91-.44-4.37.02-.42.42-1.4 5.04-1.18 5.6.12.31.64.4 2.35.4 1.2 0 2.35-.11 2.56-.24m3.41-.17c.12-.09.83-2.6 1.2-4.17.33-1.46.1-1.76-1.3-1.77-1.22 0-1.61.49-1.94 2.4-.41 2.47-.37 3.35.18 3.66.38.21 1.55.14 1.86-.12m-9.27-.19c.15-.18.47-1.37.72-2.65.57-2.88.45-3.1-1.73-3.1-.84 0-1.73.08-1.98.17-.52.2-1.97 3.3-1.97 4.2 0 .53.22.68 1.52 1.05.83.23 1.64.47 1.78.52.59.22 1.4.13 1.66-.19m-9.94-3.4c.43-.6.44-.78.04-3.14-.23-1.39-.57-2.68-.76-2.89-.3-.31-.69-.3-2.65.12-1.26.26-2.53.67-2.83.9-.48.4-.5.55-.22 1.92.2.94.7 2.05 1.38 3.03 1.6 2.3 1.67 2.34 3.24 1.45a7 7 0 0 0 1.8-1.39m5.33-.66c.57-1.31.7-2.03.7-3.7 0-2.35-.16-3.19-.64-3.37-.3-.12-3.73.62-4.71 1.01-.57.23-.57.64-.06 3.83.43 2.66.79 3.3 2.37 4.27.75.47.81.47 1.21.03.23-.25.74-1.18 1.13-2.07m7-4.85c1.14-3.3 1.1-3.33-2.62-2.92-1.5.16-2.9.43-3.09.59-.38.3-.2 3.63.24 4.48.26.49 2.02.72 3.67.48.9-.14.95-.2 1.8-2.63m8.33 2.65c.53-.2.8-.77 1.63-3.37.54-1.72 1.08-3.49 1.2-3.93.15-.49.12-1.44-.08-2.51-.32-1.69-.35-1.73-1.56-2.31-1.3-.63-2.06-.57-2.06.17 0 .24.29 1.45.64 2.68 1.15 4.07 1.19 3.77-.7 4.87-1.43.82-1.65 1.14-1.88 2.7-.19 1.2.05 1.55 1.15 1.75l.84.16c.1.02.47-.08.82-.2m-3.66-.6c.23-.34.41-1.14.41-1.86 0-1.22-.04-1.3-1.25-2.05-.7-.44-1.47-.8-1.73-.8-.49 0-1.17 1.28-1.8 3.4-.5 1.69-.3 1.89 1.98 1.89 1.74 0 2.03-.07 2.39-.59m-24.53-.69c.18-.22.27-.65.2-.96s-.37-2.22-.67-4.25l-.54-3.7-1.33-1.3c-1.25-1.22-1.38-1.28-2.43-1.14-.84.11-1.33.4-2 1.13-.87.94-.9 1.03-.75 2.62.3 3.18.63 3.95 2.45 5.75.92.91 2.06 1.86 2.53 2.12.94.5 2.01.4 2.54-.27m3.77-2.2c1.24-.32 2.42-.7 2.61-.86.27-.2.32-.69.2-1.88-.26-2.43-.68-4.3-1.04-4.6-.33-.28-4.8.2-5.41.59-.83.5.31 7.3 1.22 7.3.09 0 1.17-.25 2.42-.56m23.16-1.37c1.4-.8 1.43-1.34.28-5.12-.52-1.7-.95-3.65-.95-4.35 0-1.64-.38-2.66-.91-2.46-.23.09-1.12.99-2 2l-1.58 1.84v6.6l1.65 1.04a8 8 0 0 0 2.05 1.05c.22 0 .87-.27 1.46-.6m-16.89-.07c2.8-.63 2.73-.6 2.72-1.52 0-1.26-1.16-4.97-1.62-5.23-.52-.29-3.95.22-4.4.66-.28.27-.27.8.1 2.95.45 2.67.74 3.55 1.16 3.55.13 0 1.05-.18 2.04-.4m7.53-1.18c3.24-.33 3.67-.63 3.67-2.63 0-2.02-.3-3.67-.7-3.83-.7-.26-7.62.4-8 .78-.31.3-.28.68.22 2.55.64 2.4 1.14 3.4 1.7 3.4.2 0 1.6-.12 3.11-.27m-14.49-5.26c1.15-.14 2.24-.4 2.43-.6.34-.35 1.4-6.86 1.24-7.64-.08-.42-5.84-3.43-6.56-3.43-.54 0-.92.97-2.23 5.63-.78 2.8-1.02 4.02-.84 4.36.59 1.1 2.46 2.24 3.34 2.04.3-.06 1.48-.23 2.62-.36m7.36-1.11c.9-.23 1.03-.39 1.43-1.66.28-.9.36-1.56.2-1.83-.24-.43-3.78-3.1-4.11-3.1-.4 0-.7 1-1.12 3.66-.53 3.33-.41 3.62 1.42 3.36.66-.1 1.65-.29 2.18-.43m-15.94-.57 1.71-.6.76-2.51c.41-1.38 1.06-3.5 1.44-4.71.82-2.62.8-2.67-1.84-3.36-2.13-.56-2.32-.46-3.1 1.62-1.28 3.4-1.83 10.17-.83 10.15.09 0 .92-.27 1.86-.6m24.36-.08 2.25-.16 1.92-2.03c1.06-1.12 1.89-2.2 1.85-2.43-.06-.32-.68-.4-3.26-.47l-3.18-.07-2.52 1.17c-2.73 1.28-2.92 1.44-3.38 2.79-.47 1.41-.06 1.7 2.2 1.51zm12.49-1.18c.4-.8.7-1.75.66-2.11-.05-.6-.27-.72-1.9-1.13a11 11 0 0 0-2.52-.4c-.63.07-.67.16-.74 1.95-.09 2.09.04 2.3 1.73 2.9 1.58.58 1.97.4 2.77-1.2m-15.78-3.29c1.7-.78 1.96-1 1.96-1.59 0-.37-.67-2.17-1.49-3.99-1.1-2.42-1.62-3.3-1.96-3.3-.6 0-5.5 5.2-5.72 6.07-.13.48-.02.75.4 1.06l2.06 1.54c.82.61 1.78 1.12 2.13 1.12.36 0 1.53-.4 2.62-.9m16.4-.76c.23-.6-1.68-7.92-2.2-8.41-.69-.66-4.13-1.83-4.58-1.55-.37.23-.28.75 1.1 6.34.13.5.24 1.23.24 1.6 0 1.1.6 1.63 2.27 1.99 2.08.44 3 .45 3.17.03m-6.48-.72c.7-.37.66-1.36-.16-4.73-.85-3.52-1.52-5.05-2.2-5.05-.87 0-6.76 1.05-7.38 1.32-.33.14-.6.43-.6.65 0 .57 2.88 7.07 3.37 7.62.35.4.9.46 3.44.46 1.66 0 3.25-.12 3.53-.27m-15.13-4.75c1.62-1.74 2.94-3.35 2.94-3.58 0-.27-1-.89-2.84-1.75-3.36-1.56-3.23-1.59-6.42 1.15-2.29 1.96-3.55 3.5-3.34 4.07.16.4 5.53 3.18 6.29 3.25.25.02 1.72-1.35 3.37-3.14m-8.05-3.32c1.55-1.54 2.73-2.91 2.63-3.07-.12-.2-1-.23-2.72-.1-2.89.2-3.62.56-5.71 2.8-1.5 1.6-1.56 2.25-.2 2.6 3.1.8 2.86.88 6-2.23m15.88-1.48c3.8-.67 4.37-.86 4.37-1.48 0-.57-2.24-2.37-4.16-3.34-1.7-.87-2.57-.88-4.8-.06-3.9 1.41-5.08 2.13-4.65 2.82.26.42 4.89 2.61 5.54 2.62.3 0 1.96-.25 3.7-.56m10.38-.13c.38-1.14-5.34-4.86-7.47-4.86-.36 0-.66.09-.66.2s.8 1 1.8 1.98c1.48 1.48 2.1 1.89 3.63 2.43 1.95.68 2.54.74 2.7.25m-18.9-3.7c1.37-.7 2.3-1.32 2.23-1.5-.24-.7-4.52.12-7.66 1.45-.9.39-1.26.69-1.26 1.07 0 .5.11.52 2.17.34a10 10 0 0 0 4.51-1.37" style="fill:#f9f9f9" transform="translate(11.789 21.462)"/><path d="M40.15 191.5c.06-.19.21-.34.33-.34s.27.15.33.33-.09.33-.33.33-.39-.15-.33-.33m6.81.06c0-.15.18-.27.4-.27s.4.12.4.27c0 .14-.18.26-.4.26s-.4-.12-.4-.26m27.26 0c0-.15.17-.27.4-.27.21 0 .39.12.39.27 0 .14-.18.26-.4.26s-.4-.12-.4-.26m26.72 0c0-.15.12-.27.26-.27s.27.12.27.27c0 .14-.12.26-.27.26a.3.3 0 0 1-.26-.26m9.26 0c0-.15.18-.27.4-.27.21 0 .4.12.4.27 0 .14-.19.26-.4.26s-.4-.12-.4-.26m12.43 0c0-.15.12-.27.25-.27.14 0 .33.12.42.27.09.14-.03.26-.25.26-.23 0-.42-.12-.42-.26m5.3 0c0-.15.12-.27.26-.27s.27.12.27.27c0 .14-.12.26-.27.26a.3.3 0 0 1-.26-.26m.02-.95q.02-.46.16-.16c.07.2.06.42-.02.5-.1.1-.15-.06-.14-.34m-27.61-.9c-.25-.3-.63-.53-.85-.53-.5 0-.5-.03-.04-.9l.36-.7.44.66c.25.38.69.67 1.03.68.33 0 .46.08.3.2-.16.1-.4.4-.54.65-.24.43-.28.43-.7-.07m8.57-1.42a1.5 1.5 0 0 0-1.02-.44c-.56 0-.61-.06-.34-.4.18-.2.27-.71.2-1.11l-.15-.72.53.72c.33.46.77.72 1.2.72.5 0 .6.08.4.33-.15.18-.31.56-.36.84-.09.46-.13.47-.46.06m-4.07-.08c.18-.08.48-.08.66 0s.04.13-.33.13c-.36 0-.51-.06-.33-.13M93 187.85q-.43-.26.53-.09c1.14.21 1.36.36.5.35a2 2 0 0 1-1.03-.26m-4.55-.97c.2-.08.42-.07.51.02s-.07.15-.35.14q-.46-.03-.16-.16m-1.32-.26c.2-.08.42-.07.5.02.1.08-.06.15-.34.13q-.46-.01-.16-.15m-44.93-.34c0-.13.12-.32.26-.4q.24-.13.1.24c-.17.46-.36.54-.36.16m33.87-.76c0-.3-.12-.62-.27-.7-.43-.27-.3-.67.21-.67.27 0 .61-.13.77-.3.22-.2.37-.14.59.25.2.37.75.64 1.76.85 2 .41 1.68.59-.42.22-1.6-.29-1.7-.27-2.16.3s-.48.58-.48.05m40.48-.84c.22-.14.57-.25.8-.24q.37 0-.14.24c-.73.31-1.14.31-.66 0m2.6-.48c-.53-.06-.68-.22-.65-.68s.16-.57.63-.48c.33.06.92-.1 1.32-.36.7-.46.72-.46.33 0-.22.27-.51.74-.66 1.05-.19.4-.46.53-.96.47m-47.63-.5c.2-.07.42-.06.5.03.1.08-.06.15-.34.13q-.46-.01-.16-.16m-27.05-1.22c.1-.26.24-.4.33-.32.08.08 0 .3-.18.47q-.39.4-.15-.15m60.59-.1q-.24-.56.14-.15c.19.18.27.39.19.47s-.23-.06-.33-.32m-8.4-1.47c-.34-.71-.68-1-1.46-1.2-.6-.16-.78-.28-.45-.3.31-.01.7-.19.88-.4.26-.3.4-.27.94.27.35.35.91.65 1.25.66.57.01.57.03.08.22-.3.11-.6.54-.67.95l-.13.73zm26.04-.62c.65-.77.58-1.4-.26-2.34-.4-.45-.16-.28.53.37 1.34 1.26 1.51 1.6.81 1.6-.24 0-.69.2-1 .46q-.78.7-.08-.09m-60.4-.1c-.2-.15-.27-.27-.12-.27.14 0 .44.12.66.26s.28.26.13.26c-.14 0-.44-.12-.66-.26m41.02-.02a7 7 0 0 0-.9-.38c-.4-.12-.44-.23-.2-.46.17-.17.3-.53.3-.79 0-.44.05-.43.54.06.38.38.74.49 1.26.38.62-.13.65-.11.24.15a2 2 0 0 0-.66.78q-.18.47-.58.26m-42.33-.52c-.22-.14-.28-.25-.14-.25s.45.11.67.25c.21.14.27.26.13.26s-.45-.12-.66-.26m-13.5-.99c1.07-1.37 2.12-2.13 2.12-1.55 0 .21.07.56.15.78.12.3-.1.45-.86.59-.55.1-1.3.43-1.65.74q-.68.61.24-.56m6.18.02c.02-.25-.26-.6-.62-.8l-.66-.34h.86c.48 0 1.5-.22 2.25-.5l1.39-.48v.73c0 .65-.08.7-.8.6-.61-.1-.94.02-1.43.55-.75.8-1.04.86-.99.24m3.88-.35c-.22-.14-.28-.26-.14-.26s.45.12.67.26c.21.14.27.26.13.26s-.44-.12-.66-.26m48.94 0c.22-.14.52-.26.67-.26.14 0 .08.12-.14.26-.21.14-.51.26-.66.26-.14 0-.08-.12.13-.26m-26.45-.5c0-.3-.21-.65-.47-.8-.38-.23-.3-.27.41-.28.48 0 1.16-.2 1.52-.44.62-.4.65-.4.65.15 0 .33.24.67.6.82.48.2.41.22-.34.1-.7-.11-1.1 0-1.65.42-.72.56-.72.56-.72.03m7.07.32c.19-.07.48-.07.67 0 .18.08.03.14-.34.14-.36 0-.5-.06-.33-.14m21.82-1.02c.2-.43.43-.53 1.03-.44.46.07 1.06-.08 1.5-.36l.72-.46-.5.56c-.26.3-.43.71-.35.9.1.27-.21.36-1.26.36-1.32 0-1.38-.03-1.14-.56m-33.06-.84c.26-.06.62-.06.8.01.18.08-.03.13-.47.13s-.58-.07-.33-.14m-3.7-.53c.26-.06.61-.06.8.01.17.08-.04.13-.47.13-.44 0-.59-.07-.33-.14m46.5-.08q-.34-.23-.14-.25c.15 0 .45.11.66.25s.28.26.14.26-.45-.12-.66-.26m-60.11-.6c-.08-.57-.19-.59-2.93-.59-1.57 0-2.85-.03-2.85-.06a27 27 0 0 1 3.33-1.66c.1 0 .1.17.03.37-.27.7.44.96 2.66.96 1.52 0 2.66-.17 3.7-.53.83-.3 1.57-.53 1.65-.53s.14.37.14.82v.82l-1.5-.17a4 4 0 0 0-2.83.5l-1.32.66zm12.02.42c.26-.07.62-.06.8.01s-.04.13-.47.12c-.44 0-.58-.06-.33-.13m41.93-.51c-.13-.66.05-.73 1.06-.46q1.2.3-.17.8c-.7.26-.78.24-.9-.34m4.5.25c.18-.07.48-.07.66 0s.04.14-.33.14c-.36 0-.51-.06-.33-.14m-1.3-.27c.19-.07.41-.06.5.02.1.1-.07.15-.34.14q-.48-.01-.16-.16m-50.54-.26c.2-.08.42-.07.5.02.1.09-.06.15-.34.14q-.46-.03-.16-.16m35.6-.85c-.53-.44-.54-.48-.09-1.03l.47-.57.12.98c.07.54.11 1 .1 1.03a3 3 0 0 1-.6-.41m10.02-.04c-.88-.35-.72-.53.2-.21.44.15.8.32.8.38q0 .24-1-.17m-16.8-.85c-.24-.54-.56-1-.72-1s-.08-.27.18-.61c.47-.63.47-.63.74-.08.15.3.55.7.88.86.57.28.58.3.08.44-.28.07-.56.41-.62.76-.09.57-.14.53-.54-.37m-36.97-.73c.22-.14.51-.25.66-.25.14 0 .09.11-.13.25s-.52.26-.66.26-.1-.12.13-.26m46.71-.45q-.22-.54.15-.15c.18.18.26.4.18.48s-.23-.07-.33-.33m-44.86-.44c0-.06.18-.18.41-.27q.37-.12.25.1c-.16.26-.66.38-.66.17m27.45-.81q-.11-.67.21-.68c.19 0 .53-.07.76-.16q.41-.14.42.24c0 .23.33.53.73.67.72.27.72.27-.25.29a6 6 0 0 0-1.35.17q-.39.16-.52-.53m19.1-.08-.64-.73.72.64c.68.6.85.82.64.82-.04 0-.37-.33-.72-.73m-4.03-1.35c.08-.85.02-1.77-.13-2.05-.23-.43-.16-.57.36-.82.6-.27.64-.24.64.4q0 .69 1.11 1.82c.82.83 1 1.14.66 1.14a.7.7 0 0 0-.62.4c-.14.36-.22.36-.68-.06-.5-.45-.54-.45-1 .12-.47.58-.47.57-.34-.95m-38.89.46c.18-.19.4-.27.48-.19s-.07.23-.33.33c-.38.15-.4.12-.15-.14m22.68-.12c-.5-.4-.49-.4.08-.12.33.16.6.34.6.41 0 .2-.14.14-.68-.29m-3.5-1.97a4 4 0 0 0-1.62-.53c-.64 0-.78-.12-.87-.8q-.14-.82.15-.53c.15.15.55.27.88.27.37 0 .61.16.61.41 0 .22.42.65.93.95.5.3.92.6.92.65 0 .17-.08.14-1-.42m-3.5 0c.22-.14.52-.26.67-.26.14 0 .08.12-.14.26-.21.14-.51.26-.66.26-.14 0-.08-.12.13-.26m15.65-1.92a2 2 0 0 0-.55-1.17c-.48-.41-.49-.47-.07-.78.6-.46.85-.45.85.03 0 .21.31.55.7.75l.7.37-.68.17c-.42.1-.73.4-.8.77-.1.5-.12.48-.15-.14m3.14-.2c-.22-.14-.28-.25-.13-.25.14 0 .44.11.66.25q.34.24.13.26c-.14 0-.44-.11-.66-.26m-7.67-1.93c0-.25-.39-.7-.86-1-.77-.5-.8-.54-.2-.4.76.16 1.1-.01 1.55-.77.28-.48.3-.46.15.18-.12.5 0 .86.4 1.26.5.5.5.55.07.55-.26 0-.62.14-.8.32-.24.24-.31.21-.31-.14m-13.5-.02c0-.06.29-.29.64-.52.6-.39.62-.38.5.1-.11.42-1.14.8-1.14.42m28.31-1.71c0-.3-.11-.6-.25-.7-.14-.08-.03-.38.26-.67.62-.62.79-.65.79-.14 0 .21.16.48.36.6.27.16.18.35-.4.82-.73.6-.76.6-.76.09m-20.37-.85c0-.19-.2-.56-.44-.82-.24-.27-.3-.49-.15-.49.16 0 .48-.18.7-.41.38-.38.42-.37.42.07 0 .27.19.76.41 1.08.23.32.3.59.16.59-.15 0-.45.07-.68.16-.25.1-.42.02-.42-.18m25.16-.97c.6-.74.67-.76 1.2-.36.65.47.47.65-.94.95l-.9.2zm-14.81-.51a5 5 0 0 0-.18-1.23c-.1-.27.08-.42.62-.5.59-.08.82.02 1.04.49.25.53.2.6-.4.67q-.7.08-.88.74c-.17.62-.18.61-.2-.17m5.21.26c.2-.08.42-.07.5.02.1.09-.06.15-.34.14q-.46-.04-.16-.16M79.4 157.6c.24-1.1.32-1.17.77-.56.52.68.5.72-.28 1.09-.66.3-.67.3-.5-.53m30.54-.02c0-.25-.26-.55-.6-.67-.58-.23-.57-.23.14-.42.4-.1.82-.35.93-.54.15-.27.33-.23.82.17.45.36.5.5.22.5-.23 0-.66.32-.96.7-.4.52-.55.59-.55.26m-6.18-.6c-.4-.34-.58-.62-.4-.62s.51-.17.74-.37c.37-.33.48-.3.86.22.42.56.42.62-.02 1-.42.35-.53.33-1.18-.23m9.37.38c0-.24-.22-.57-.47-.72-.43-.24-.42-.27.08-.27.3 0 .68-.15.86-.33.47-.48.41.62-.08 1.26-.34.45-.38.46-.4.06m-22.59-1.44c-.1-.1-.17-.46-.17-.8 0-.47.14-.61.63-.61.5 0 .65.16.74.79.1.67.03.8-.45.8-.31 0-.65-.09-.75-.18m6.8-.94c-.02-.63.08-.74.7-.74 1.1 0 1.22.88.16 1.21-.78.25-.82.22-.85-.47m-13.04-.63q.03-.46.16-.16c.08.2.07.42-.02.51s-.15-.07-.14-.35m10.22-1.96c.08-.3.18-.53.23-.53s.22.24.38.53c.24.44.2.53-.23.53-.39 0-.48-.14-.38-.53m20.34-2.02c-.1-.26.03-.57.3-.77.61-.44.68-.35.35.5-.3.82-.42.86-.65.27m-9.63-.18c-.2-.23-.1-.48.34-.86.56-.51.62-.52.89-.09.23.37.16.54-.34.87-.49.32-.68.34-.9.08m5.55.02c-.25-.25-.2-.41.25-.75.52-.4.63-.4 1.05-.03.46.39.45.42-.2.76-.81.42-.7.42-1.1.02m-10.36-.34a.4.4 0 0 1 .4-.39c.21 0 .4.1.4.24s-.19.3-.4.38q-.39.13-.4-.23m-16.09-.4c-.28-.45-.25-.52.21-.52.57 0 .65.2.32.72q-.2.35-.53-.2m2.47-.35q-.5-.35-.18-.54c.17-.1.3-.65.3-1.2 0-.9.07-1 .53-.89.64.17.65.26.13.79-.28.28-.35.67-.24 1.3.2 1 .15 1.05-.54.54m-6.45-.43c0-.37.06-.52.14-.33.07.18.07.47 0 .66-.08.18-.14.03-.14-.33m-.38-1.79c-.09-.44-.25-1.13-.35-1.53-.23-.92.1-.74 1.22.67.52.65.67 1 .4.9-.25-.1-.56.01-.77.3-.31.43-.36.4-.5-.34m13.34-.88c-.34-.28-.5-.5-.37-.5.14 0 .37-.26.5-.56.24-.53.26-.53.68-.07.36.4.38.6.13 1.06-.31.57-.32.57-.94.07m18.37-.21c-.08-.13.16-.3.52-.36.53-.1.6-.06.36.23-.34.41-.67.46-.88.13m-25-.45q.03-.47.16-.16c.08.19.07.42-.02.5-.09.1-.15-.06-.14-.34m13.05-.85c-.17-.1-.25-.56-.18-1.03l.13-.85.6.7c.5.57.54.76.26 1.04-.4.4-.42.4-.81.14m7.48-.71c-.1-.23.05-.63.31-.9.47-.46.5-.45.91.27.35.6.36.75.07.75-.2 0-.54.07-.75.15s-.45-.04-.54-.27m-21.31-3.85a3 3 0 0 0-.47-1.33c-.24-.36-.28-.5-.08-.32s.57.33.83.33c.52 0 .62.28.24.68-.13.13-.3.49-.36.78q-.14.66-.16-.14m-7.26-.96c-.1-.1-.18-.65-.18-1.23 0-.9.05-1 .4-.7.32.25.57.26 1.13.02.71-.3.72-.3.16.17-.3.27-.73.8-.94 1.2s-.46.65-.57.54m13.62-.52c-.3-.34-.29-.48.11-.92s.53-.47.84-.15c.32.31.32.46.03.93-.42.66-.5.68-.98.14m-3.27-.02c.2-.08.42-.07.51.02s-.07.15-.35.14q-.46-.02-.16-.16m8.89-.8c-.47-.35-.48-.39-.04-.63.25-.15.46-.44.46-.65s.12-.38.27-.38c.14 0 .26.16.26.37s.14.42.32.48q.3.12-.23.64c-.47.48-.6.5-1.04.17m19.02-.07-.6-.48.58-.15c.7-.18.8-.1.7.58-.1.52-.11.52-.68.05m-3.64-.59c-.27-1.35-.12-1.58.63-.98.55.46.58.56.23.84-.23.18-.47.5-.54.72s-.22-.04-.32-.58m-5.77-.01c-.45-.46-.44-.49.13-.7.75-.29.76-.28.53.52-.18.63-.2.64-.66.18m-24.6-.28c-.72-.3-.73-.33-.22-.64.29-.18.57-.24.63-.13.16.3.44 1.12.38 1.1-.04 0-.4-.15-.8-.33m-4.63-1.38c0-.58.06-.78.12-.46.06.33.06.81 0 1.06-.07.26-.12-.01-.12-.6m20.74-1.6c-.24-.61-.22-.64.36-.64.62 0 .69.33.16.76-.28.24-.4.21-.52-.12m13.9-.45c-.03-.56-.18-.72-.64-.72-.5 0-.6-.15-.62-.93 0-.59.1-.93.33-.93.18 0 .48-.26.65-.58l.31-.59.22.6c.12.32.4.66.64.75.35.13.34.2-.11.52q-.53.38-.63 1.5c-.06.63-.12.8-.15.38m6.04-.16c0-.28-.23-.66-.52-.86-.51-.36-.5-.37.13-.84l.65-.48v1.34c0 .73-.05 1.33-.13 1.33s-.13-.22-.13-.5m-2.7-1.54c.2-.07.42-.07.51.02s-.07.15-.35.14q-.46-.02-.16-.16m-12.17-.43c.14-.17.3-.45.35-.63.08-.23.25-.23.71.02.6.33.6.33-.35.62-.73.23-.9.22-.7-.01m-10.58-1.07c-.08-.73.02-.96.57-1.27.66-.38.67-.37.67.49q0 .87-.57 1.26c-.54.38-.57.36-.67-.48M79 128.96q.02-.46.16-.16c.08.2.07.42-.02.51s-.15-.07-.14-.35m6.51-2.85c-.37-.56-.34-.6.51-.87.5-.15.9-.19.9-.07 0 .1.06.37.14.57.08.22-.12.49-.51.67-.56.25-.7.21-1.04-.3m-5.73.26c-.01-.35 1.38-2.81 1.6-2.81.1 0 .25.25.32.54.11.4-.02.61-.5.8-.35.13-.63.33-.63.46 0 .3-.78 1.3-.79 1.01m4.44-1.14c.2-.07.42-.07.5.02.1.1-.06.15-.34.14q-.46-.02-.16-.16m32.47-2.45c-.1-.15-.61-.51-1.15-.79-.8-.41-.9-.54-.51-.69.25-.1.46-.35.46-.56s.12-.31.27-.22c.35.22 1.4 2.26 1.23 2.42-.07.07-.2 0-.3-.16m-16.55-.49c0-.26-.14-.63-.33-.83-.27-.28-.23-.3.25-.05.32.16.81.3 1.1.3.4 0 .49.13.38.53-.18.7-1.4.74-1.4.05m10.64-.96a1.5 1.5 0 0 0-1.1-.85c-.7-.14-.74-.2-.38-.56.36-.35.52-.34 1.5.08q2.07.9 1.16.91c-.25 0-.55.25-.66.56-.2.53-.21.52-.52-.14m-18.84-1.78c0-.16-.2-.46-.46-.65-.4-.3-.28-.35.94-.36a6 6 0 0 0 2.14-.39c.72-.37.74-.37.62.26-.1.53-.29.65-.95.66a2.6 2.6 0 0 0-1.35.4q-.93.7-.94.08m-5.63-.7c.26-.2 1.19-.72 2.06-1.17 1.37-.7 1.52-.72 1.08-.23-.4.43-.44.64-.2.88.57.57.33.69-1.55.78-1.6.07-1.79.03-1.39-.27m18.86-2.98c-1.74-.9-2.45-.94-4.43-.25-1.8.64-2.22.66-2.01.13.08-.22 0-.58-.18-.8-.5-.6 5.24-.54 7.77.08 1.34.32 1.69.48 1.18.54-.44.05-.74.27-.79.57-.08.45-.2.43-1.54-.27m-11.95-.16c.19-.08.42-.07.5.02.1.09-.07.15-.34.14q-.48-.03-.16-.16m3.42-.8c.18-.06.48-.06.66 0 .18.08.03.14-.33.14s-.51-.06-.33-.13" style="fill:#f9f9f9" transform="translate(11.789 21.462)"/></g></svg>