<?xml version="1.0" encoding="UTF-8" standalone="no"?>
<!-- Created with Inkscape (http://www.inkscape.org/) -->

<svg
   width="170.05373mm"
   height="64.544769mm"
   viewBox="0 0 170.05373 64.544769"
   version="1.1"
   id="svg1"
   xml:space="preserve"
   xmlns="http://www.w3.org/2000/svg"
   xmlns:svg="http://www.w3.org/2000/svg"><defs
     id="defs1"><linearGradient
       id="swatch2"><stop
         style="stop-color:#ffffff;stop-opacity:1;"
         offset="0"
         id="stop2" /></linearGradient></defs><g
     id="layer1"
     transform="translate(-22.189833,-159.58339)"><g
       id="g2"
       transform="translate(-1.1029481,19.353128)"><path
         style="fill:#f9f9f9"
         d="m 57.847253,204.60061 c -1.527967,-0.20921 -2.714874,-0.61216 -3.407167,-1.15672 -0.998302,-0.78527 -2.468587,-4.08859 -4.111136,-9.23657 -0.940211,-2.94676 -0.826863,-3.31118 0.90372,-2.90551 0.582083,0.13645 3.082395,0.43577 5.55625,0.66516 2.473854,0.22939 4.616979,0.53518 4.7625,0.67953 0.260335,0.25823 0.222517,11.51745 -0.04011,11.9424 -0.125375,0.20286 -2.21913,0.20955 -3.664054,0.0117 z m 6.271156,-0.24133 c -0.319996,-0.59792 -0.341334,-10.87495 -0.02389,-11.50635 0.171296,-0.34072 0.840393,-0.45865 3.333523,-0.58757 1.715566,-0.0887 4.161008,-0.24109 5.434315,-0.33863 2.314352,-0.17727 2.315104,-0.17712 2.315069,0.45528 -6e-5,1.04974 -1.460407,5.34265 -2.915347,8.57011 -1.338254,2.96861 -2.087466,3.46523 -5.639629,3.73828 -2.024747,0.15563 -2.260202,0.12449 -2.504041,-0.33112 z m 10.265302,-3.02343 c 0,-0.29827 0.168843,-0.86881 0.375206,-1.26787 0.510021,-0.98627 1.373176,-3.42062 2.169641,-6.11901 0.363746,-1.23235 0.785361,-2.39006 0.936924,-2.57269 0.151563,-0.18262 0.710089,-0.40129 1.24117,-0.48594 0.531081,-0.0847 2.129158,-0.4661 3.551282,-0.84767 2.724865,-0.73112 3.322238,-0.6496 2.986709,0.40755 -0.198432,0.62521 -2.868855,4.92508 -3.373304,5.43165 -0.190851,0.19165 -0.706624,0.75602 -1.146162,1.25414 -1.709228,1.93707 -5.459075,4.74215 -6.339333,4.74215 -0.228991,0 -0.402133,-0.23349 -0.402133,-0.54231 z m -26.19375,-0.99971 c -3.38191,-2.49633 -6.081971,-5.67624 -7.887297,-9.28902 -1.377112,-2.75584 -1.186533,-2.96038 1.863765,-2.00027 1.20289,0.37862 2.827296,0.89048 3.60979,1.13746 l 1.422717,0.44906 1.115279,3.70416 c 0.613404,2.0373 1.372106,4.35901 1.686005,5.15938 1.006454,2.56621 0.713419,2.70206 -1.810259,0.83923 z m 90.355209,-8.869 c -1.8795,-0.47704 -3.46941,-1.63174 -4.58897,-3.33281 -0.95859,-1.45651 -0.96728,-1.49467 -0.96728,-4.24784 0,-2.5334 0.062,-2.88301 0.704,-3.96875 0.89233,-1.50914 1.86501,-2.42142 3.50259,-3.28512 1.10237,-0.58141 1.6359,-0.68363 3.56808,-0.68363 1.94319,0 2.47618,0.10336 3.68375,0.71433 2.21815,1.12228 2.28157,1.61765 0.4929,3.84973 -0.90225,1.12591 -1.52752,1.2335 -2.6909,0.46303 -1.15321,-0.76374 -1.90443,-0.66204 -2.96832,0.40185 -0.89478,0.89478 -0.92658,0.99249 -0.81681,2.50992 0.15794,2.18352 0.84145,2.90906 2.74052,2.90906 0.90094,0 1.49051,-0.13715 1.70607,-0.39688 0.65824,-0.79313 1.45171,-0.46017 2.60139,1.09161 0.60652,0.81866 1.10277,1.64399 1.10277,1.83406 0,0.4087 -1.20118,1.30643 -2.43205,1.81766 -1.32156,0.54889 -4.11806,0.7095 -5.63774,0.32378 z m 27.22365,-0.0161 c -1.53725,-0.37312 -2.95486,-1.13077 -3.37963,-1.80628 -0.22587,-0.35919 -0.14535,-0.72365 0.36895,-1.66992 1.13029,-2.07969 1.34977,-2.17663 3.01752,-1.33283 1.38282,0.69965 2.9851,0.8591 2.8863,0.28723 -0.0563,-0.32555 -0.26582,-0.44249 -2.6497,-1.47852 -2.49638,-1.08493 -3.36846,-2.24087 -3.38125,-4.48181 -0.007,-1.28704 0.11856,-1.7118 0.78499,-2.64815 0.43657,-0.61338 1.32769,-1.39794 1.98029,-1.74348 2.23338,-1.18253 7.18011,-0.73398 8.41907,0.76342 0.29117,0.35191 0.21274,0.65188 -0.50124,1.91698 -0.46554,0.82489 -0.99331,1.55615 -1.17282,1.62504 -0.17952,0.0689 -0.92665,-0.0711 -1.6603,-0.31105 -1.37605,-0.45008 -2.31984,-0.44545 -2.27936,0.0112 0.0127,0.14353 0.94478,0.61815 2.07125,1.05471 2.51732,0.97559 3.70708,2.13751 3.95122,3.85877 0.43043,3.03467 -1.24372,5.39886 -4.27269,6.03379 -1.70998,0.35844 -2.43653,0.3447 -4.1826,-0.0791 z m -63.27313,-0.18878 c -0.24824,-0.25355 -0.33073,-2.13713 -0.33073,-7.55163 0,-6.8613 0.025,-7.2272 0.51177,-7.48771 0.63876,-0.34185 4.24353,-0.35369 4.7799,-0.0157 0.2887,0.18192 0.43293,0.92003 0.52917,2.70793 l 0.13229,2.45784 h 1.32291 1.32292 l 0.0772,-2.36747 c 0.0425,-1.30211 0.20587,-2.5225 0.36313,-2.71198 0.37672,-0.45392 4.48131,-0.4764 4.9307,-0.027 0.23166,0.23166 0.3175,2.29853 0.3175,7.64461 0,6.43729 -0.0508,7.34661 -0.41851,7.48771 -0.76918,0.29516 -4.48927,0.17407 -4.82024,-0.1569 -0.19594,-0.19594 -0.3175,-1.15829 -0.3175,-2.51354 v -2.19604 h -1.42139 -1.42139 l -0.16924,1.05833 c -0.0931,0.58208 -0.10414,1.50482 -0.0246,2.05052 0.22887,1.56994 -0.0665,1.77415 -2.70827,1.87239 -1.63531,0.0608 -2.42302,-0.0137 -2.65565,-0.25135 z m 15.18068,-0.0426 c -0.43888,-0.32092 -0.42545,-0.45702 0.24153,-2.44739 0.38844,-1.15917 0.82206,-2.32516 0.9636,-2.59108 0.14153,-0.26593 0.41827,-1.03983 0.61497,-1.71979 0.86437,-2.98795 2.75775,-8.07293 3.0826,-8.27881 0.56888,-0.36054 5.0862,-0.28187 5.5813,0.0972 0.23757,0.1819 1.08975,2.29526 1.89372,4.69636 0.80397,2.40109 1.83623,5.37765 2.29391,6.61458 1.17623,3.17885 1.22708,3.59208 0.46704,3.79556 -0.34093,0.0913 -1.46462,0.16759 -2.49709,0.16958 -2.05653,0.004 -2.46247,-0.23309 -2.93895,-1.71618 -0.25271,-0.78661 -0.27248,-0.79375 -2.19529,-0.79375 h -1.94028 l -0.36566,1.09699 c -0.24352,0.73057 -0.56021,1.14915 -0.94809,1.25316 -1.0578,0.28363 -3.77848,0.17078 -4.25331,-0.17643 z m 7.93252,-7.22245 c -0.0883,-0.23018 -0.16059,-0.59439 -0.16059,-0.80936 0,-0.60842 -0.45112,-0.18062 -0.59318,0.56251 -0.10103,0.52849 -0.0201,0.66537 0.39359,0.66537 0.36618,0 0.47311,-0.12424 0.36018,-0.41852 z m 22.85816,7.36942 c -0.21829,-0.0831 -0.48435,-0.28206 -0.59127,-0.44214 -0.10691,-0.16008 -0.1962,-3.40794 -0.19843,-7.21747 -0.003,-5.9476 0.0547,-6.98517 0.41172,-7.34218 0.30742,-0.30743 0.95754,-0.41578 2.49464,-0.41578 2.55768,0 2.91042,0.26485 2.91042,2.18524 v 1.35369 l 1.19441,-1.6073 c 0.65692,-0.88402 1.46059,-1.67865 1.78593,-1.76585 0.77468,-0.20764 4.53021,-0.21148 5.06781,-0.005 0.72303,0.27745 0.46858,0.87932 -1.23513,2.9215 -3.0172,3.6166 -2.77179,3.10236 -2.09655,4.39324 0.32325,0.61799 1.24172,2.19518 2.04103,3.50487 1.93086,3.16375 2.37291,4.05457 2.13187,4.29616 -0.32476,0.3255 -5.07258,0.41294 -5.64976,0.10405 -0.46306,-0.24783 -2.24108,-2.98549 -2.85779,-4.40021 -0.16325,-0.37448 -0.27211,0.15061 -0.3724,1.79635 -0.10124,1.6613 -0.25507,2.39695 -0.53859,2.57563 -0.42439,0.26747 -3.83673,0.31707 -4.49791,0.0654 z m -84.396762,-1.3847 c -0.210467,-0.39326 -0.297282,-2.39306 -0.274017,-6.31206 0.05068,-8.53664 0.260037,-12.15879 0.712826,-12.33254 0.448042,-0.17193 5.896816,0.23956 9.176835,0.69303 3.256409,0.4502 3.129694,0.15388 3.129694,7.31884 0,5.0902 -0.183139,7.38262 -0.748263,9.36629 -0.221756,0.7784 -0.955945,0.97073 -4.765121,1.24833 -2.015973,0.14691 -4.398563,0.34061 -5.294645,0.43043 -1.488991,0.14926 -1.655759,0.11376 -1.937309,-0.41232 z m -7.678243,-0.0265 c -3.537097,-0.26037 -6.592535,-0.90219 -7.203505,-1.51316 -0.364146,-0.36415 -0.516203,-1.08351 -0.645682,-3.05464 -0.09315,-1.41807 -0.258591,-2.63346 -0.367648,-2.70086 -0.109057,-0.0674 -0.324588,0.23977 -0.478958,0.68259 -0.15437,0.44283 -0.514907,1.13409 -0.801193,1.53614 -0.392715,0.55152 -0.485115,0.99497 -0.376323,1.80608 0.08097,0.60368 0.02678,1.14765 -0.1236,1.24059 -0.147288,0.091 -0.845504,-0.0102 -1.55159,-0.22504 -0.706086,-0.21479 -2.321634,-0.70336 -3.590105,-1.08569 -1.268472,-0.38233 -2.429737,-0.84386 -2.580589,-1.02563 -0.150853,-0.18177 -0.383946,-0.85358 -0.517985,-1.49291 -0.134039,-0.63934 -0.625062,-2.23135 -1.091161,-3.53781 -0.754282,-2.11422 -0.829723,-2.57965 -0.686191,-4.23333 0.08869,-1.02188 0.398005,-2.6787 0.687359,-3.68183 0.544167,-1.88651 0.519658,-2.27717 -0.142865,-2.27717 -0.213842,0 -1.080513,-0.34917 -1.925933,-0.77594 -2.05138,-1.03553 -4.109998,-3.31623 -5.252989,-5.81966 -0.676539,-1.48179 -1.436017,-2.53146 -3.086554,-4.26589 -2.916106,-3.06433 -3.915794,-5.29048 -3.078407,-6.85516 0.294177,-0.54967 1.586141,-1.06877 2.660042,-1.06877 0.500893,0 0.765974,-0.16276 0.861789,-0.52916 0.09406,-0.35968 0.360896,-0.52917 0.833107,-0.52917 1.373807,0 2.655166,-0.8373 5.030629,-3.28727 1.939076,-1.9999 2.630068,-2.54112 3.566146,-2.79318 1.041555,-0.28046 2.331507,-0.21759 3.320243,0.16183 0.244042,0.0936 0.490263,-0.33369 0.793723,-1.37755 0.558538,-1.9213 1.601269,-3.02258 2.861898,-3.02258 0.735863,0 1.115046,0.21952 1.957091,1.13303 0.574417,0.62317 1.377459,1.8138 1.784538,2.64584 0.611796,1.25047 0.856902,1.5128 1.413453,1.5128 1.030732,0 2.79627,-1.16853 3.599558,-2.38238 1.02039,-1.54191 1.509783,-1.34142 1.943617,0.79626 0.23972,1.1812 0.27358,2.07222 0.108309,2.85018 -0.23737,1.11734 -0.226006,1.1436 0.891063,2.05895 1.387696,1.13712 1.838429,2.14307 1.632713,3.64393 l -0.15517,1.1321 2.591801,0.28764 c 1.42549,0.1582 2.938082,0.46262 3.361314,0.6765 0.423232,0.21388 2.079201,0.5325 3.67993,0.70806 4.033661,0.44237 4.964257,0.89522 5.848384,2.84595 1.495703,3.30011 3.292155,8.62858 3.622963,10.74611 0.204587,1.30958 -0.05864,1.39996 -2.913999,1.00052 -1.243644,-0.17398 -3.679987,-0.38766 -5.414096,-0.47485 -3.392196,-0.17056 -3.739159,-0.33606 -3.59062,-1.71267 0.05859,-0.54297 -0.06014,-0.62194 -1.042443,-0.69334 l -1.108561,-0.0806 -0.08206,1.13891 -0.08206,1.13892 -1.510388,0.13455 c -1.710938,0.15242 -2.059163,0.39013 -2.138164,1.45958 l -0.05561,0.75285 1.852083,0.0171 1.852084,0.0171 0.06953,9.32656 0.06953,9.32656 -1.260156,-0.0383 c -0.693085,-0.0211 -2.510312,-0.13032 -4.03828,-0.24279 z m -7.9375,-13.34557 c 0,-1.02854 -1.872843,-1.98672 -2.196706,-1.12387 -0.136873,0.36466 1.680798,2.07169 1.998268,1.87663 0.109141,-0.0671 0.198438,-0.4058 0.198438,-0.75276 z m -3.751911,-3.10824 c -0.0465,-0.32743 -0.263142,-0.59532 -0.481423,-0.59532 -0.218281,0 -0.434921,0.26789 -0.481423,0.59532 -0.06507,0.45817 0.04583,0.59531 0.481423,0.59531 0.435595,0 0.546495,-0.13714 0.481423,-0.59531 z m 33.769952,15.1277 c -0.08479,-0.13718 0.04467,-1.76645 0.287674,-3.62059 0.341897,-2.6087 0.401465,-4.34362 0.26337,-7.67066 -0.150963,-3.63706 -0.120104,-4.29948 0.200296,-4.29948 0.581123,0 4.618024,1.022 6.470809,1.63817 1.513593,0.50337 1.678827,0.63373 1.949874,1.53841 0.58463,1.95132 0.04749,8.97141 -0.785544,10.26664 -0.222723,0.34629 -5.381705,1.94053 -7.244985,2.23886 -0.543036,0.087 -1.056709,0.0458 -1.141494,-0.0914 z m 5.171542,-16.64408 c -0.800364,-0.26533 -2.198634,-0.62924 -3.107266,-0.80868 -0.908633,-0.17945 -1.833284,-0.45898 -2.054783,-0.62118 -0.221498,-0.1622 -0.523639,-1.04632 -0.671425,-1.96471 -0.147785,-0.91839 -0.868312,-3.4187 -1.601171,-5.55625 -1.752206,-5.11071 -1.671841,-4.81249 -1.2969,-4.81249 0.581311,0 3.869174,2.34282 5.478136,3.90353 0.862088,0.83623 2.079347,2.21824 2.705021,3.07112 1.309288,1.78473 3.117572,5.27595 3.359671,6.48645 0.155045,0.77522 0.118174,0.8251 -0.595397,0.80551 -0.418373,-0.0115 -1.415521,-0.23797 -2.215886,-0.5033 z m 51.461462,-5.13549 c -2.28221,-0.55723 -4.033,-1.92593 -5.07408,-3.96673 -0.54532,-1.06896 -0.66203,-1.68566 -0.67602,-3.57187 -0.0144,-1.94507 0.083,-2.47657 0.66323,-3.61955 0.7238,-1.42573 2.24406,-2.96321 3.682,-3.72372 0.60011,-0.31739 1.68773,-0.49833 3.45591,-0.57493 2.38647,-0.10338 2.68972,-0.0582 4.03862,0.60176 3.03153,1.48319 4.65904,3.98198 4.65904,7.15326 0,3.9542 -2.59401,7.05791 -6.50274,7.78048 -1.89843,0.35094 -2.53459,0.33915 -4.24596,-0.0787 z m 4.33821,-5.32974 c 1.05205,-1.19821 1.15471,-3.05699 0.23497,-4.25459 -0.81622,-1.06281 -0.98768,-1.15152 -2.23456,-1.15611 -0.90719,-0.003 -1.22151,0.13922 -1.78594,0.81 -0.56125,0.66701 -0.68475,1.08519 -0.68375,2.31511 10e-4,1.30742 0.10519,1.61197 0.80716,2.36095 0.63861,0.68136 1.0172,0.85989 1.82345,0.85989 0.83352,0 1.166,-0.16912 1.83867,-0.93525 z m 29.1185,5.33739 c -3.57701,-0.96472 -5.62846,-3.72643 -5.62846,-7.57714 0,-3.123 1.36269,-5.52309 4.02418,-7.08772 1.10912,-0.65202 1.46371,-0.71749 3.88601,-0.71749 2.50145,0 2.74414,0.0489 3.94285,0.79375 1.92851,1.19841 1.96626,1.37672 0.66099,3.12209 -1.19259,1.5947 -1.82373,1.84826 -2.78703,1.11966 -0.28247,-0.21365 -0.99733,-0.39225 -1.58856,-0.39687 -2.07974,-0.0163 -3.23738,2.10871 -2.37662,4.36259 0.7563,1.98033 2.28522,2.52684 4.0533,1.44884 0.47646,-0.2905 1.07277,-0.52818 1.32514,-0.52818 0.47466,0 2.70095,2.7838 2.70249,3.37926 0.002,0.60984 -2.34714,1.85229 -4.06806,2.15198 -2.03375,0.35416 -2.60696,0.34438 -4.14623,-0.0708 z m 14.0173,-0.001 c -3.64008,-0.98147 -5.79919,-3.85125 -5.79919,-7.70801 0,-3.14311 1.54881,-5.64594 4.34598,-7.02298 1.64454,-0.8096 1.82301,-0.84013 4.30576,-0.73651 2.24592,0.0937 2.75565,0.20585 3.83589,0.84365 3.38176,1.99667 4.87159,5.81748 3.66286,9.3938 -1.03093,3.05023 -2.99388,4.74401 -6.13107,5.29033 -2.10586,0.36672 -2.66625,0.35872 -4.22023,-0.0603 z m 3.73752,-4.67315 c 1.35502,-0.72518 1.74243,-3.50093 0.70431,-5.04625 -0.5071,-0.75486 -0.78635,-0.91224 -1.7414,-0.98144 -1.50397,-0.10897 -2.31699,0.44765 -2.69289,1.84363 -0.39678,1.47353 -0.11157,2.78698 0.80401,3.70255 0.79948,0.79948 1.97147,0.99235 2.92597,0.48151 z m -83.82143,4.48128 c -0.24804,-0.25944 -0.33073,-2.14958 -0.33073,-7.55975 0,-7.11467 0.008,-7.21801 0.56984,-7.51878 0.38632,-0.20675 1.86871,-0.27008 4.60275,-0.19662 3.95668,0.10631 4.05423,0.12313 5.16081,0.89 1.12692,0.78095 2.08467,2.35758 2.09621,3.45073 0.003,0.30276 -0.28645,1.12775 -0.64364,1.83331 l -0.64946,1.28283 0.88649,0.98123 c 1.87344,2.07368 1.4122,4.8151 -1.06806,6.34799 -0.85199,0.52655 -1.38797,0.59416 -5.61766,0.70854 -3.63688,0.0984 -4.74931,0.0496 -5.00655,-0.21948 z m 7.43124,-4.19207 c 0.17963,-0.17962 0.16731,-0.48583 -0.0376,-0.93564 -0.24262,-0.5325 -0.49605,-0.66864 -1.24467,-0.66864 -1.05294,0 -1.34331,0.40349 -1.07104,1.48828 0.1578,0.62873 0.26312,0.67888 1.13018,0.53818 0.52588,-0.0853 1.07631,-0.27532 1.22317,-0.42218 z m -0.51261,-5.65467 c 0.23255,-0.38205 0.18772,-0.55541 -0.22232,-0.8599 -0.93575,-0.69486 -1.47079,-0.49033 -1.47079,0.56224 0,0.86537 0.0581,0.93667 0.70092,0.8599 0.3855,-0.0461 0.83199,-0.29906 0.99219,-0.56224 z m 7.18933,9.72003 c -0.35694,-0.35694 -0.41577,-1.40252 -0.41577,-7.38943 0,-6.20944 0.0493,-7.02293 0.44959,-7.42325 0.39506,-0.39506 0.93257,-0.43459 4.43177,-0.32592 4.6323,0.14385 5.72742,0.51705 6.95334,2.36955 0.59837,0.90419 0.71664,1.36011 0.68702,2.64849 -0.0367,1.59474 -0.371,2.37333 -1.57738,3.67334 l -0.62883,0.67763 0.86151,1.51949 c 0.47384,0.83572 1.11981,1.95954 1.4355,2.49737 1.11858,1.90569 0.84509,2.16851 -2.25654,2.16851 -2.4608,0 -2.86975,-0.23977 -3.90273,-2.28823 l -0.76471,-1.51646 -0.0761,1.57162 c -0.0525,1.08428 -0.21179,1.67416 -0.51359,1.90234 -0.66145,0.50008 -4.16147,0.43652 -4.68304,-0.085 z m 6.4204,-9.07705 c 0.19463,-0.12337 0.31369,-0.5085 0.26458,-0.85584 -0.0657,-0.46448 -0.28177,-0.65369 -0.8169,-0.71526 -0.67339,-0.0775 -0.7276,-0.0134 -0.7276,0.8599 0,0.97391 0.46117,1.23017 1.27992,0.7112 z m 24.31852,9.20705 c -0.42316,-0.24646 -0.46302,-0.89422 -0.46302,-7.52327 0,-8.35582 -0.19203,-7.80137 2.70186,-7.80137 2.06521,0 2.31869,0.16765 4.59346,3.03808 0.97595,1.23152 1.87688,2.17581 2.00207,2.09845 0.12518,-0.0774 0.22761,-1.19247 0.22761,-2.478 0,-2.71436 -0.0556,-2.65853 2.64583,-2.65853 2.89623,0 2.64583,-0.73844 2.64583,7.80266 v 7.48146 l -0.59531,0.15954 c -0.79029,0.21178 -3.12107,0.17705 -3.70852,-0.0553 -0.25706,-0.10165 -1.38816,-1.36394 -2.51355,-2.80508 -1.12539,-1.44114 -2.19499,-2.6692 -2.37689,-2.72904 -0.25045,-0.0824 -0.33073,0.56345 -0.33073,2.66053 0,2.64823 -0.026,2.77629 -0.59531,2.92886 -0.94888,0.25429 -3.72648,0.1762 -4.23333,-0.11902 z"
         id="path8" /><path
         style="fill:#f9f9f9"
         d="m 58.657719,204.19717 c -1.154973,-0.12172 -2.602602,-0.44366 -3.216954,-0.71542 -0.979097,-0.4331 -1.229003,-0.73408 -2.024164,-2.43791 -1.607747,-3.44498 -3.492513,-8.94315 -3.174651,-9.26098 0.108333,-0.10832 0.732751,-0.0754 1.387595,0.0731 0.654843,0.14853 3.095625,0.41046 5.423958,0.58206 l 4.233333,0.312 0.07122,5.72444 c 0.05527,4.44202 -0.004,5.74902 -0.264583,5.83422 -0.184693,0.0604 -1.280783,0.0102 -2.435756,-0.11152 z m 5.844831,0.14705 c -0.09515,-0.0952 -0.173005,-2.68909 -0.173005,-5.7643 v -5.59129 l 5.093229,-0.40244 c 2.801276,-0.22135 5.17151,-0.36411 5.267186,-0.31726 0.57362,0.28093 -3.375167,10.34014 -4.389541,11.182 -0.326712,0.27114 -1.077217,0.42199 -4.541098,0.91275 -0.596071,0.0845 -1.161618,0.0757 -1.256771,-0.0195 z m 10.545999,-3.45825 c 0.62968,-1.51625 1.799296,-4.85205 2.01774,-5.75469 0.441636,-1.82488 1.044701,-3.42241 1.370057,-3.62931 0.172145,-0.10947 0.638613,-0.20086 1.036597,-0.20309 0.397983,-0.002 1.749428,-0.30133 3.003211,-0.66466 1.253782,-0.36333 2.391958,-0.59116 2.529278,-0.5063 0.541861,0.33489 -2.371625,4.74549 -4.710677,7.13129 -1.909587,1.94775 -2.209203,2.20019 -3.990531,3.36218 -1.302742,0.8498 -1.517499,0.89505 -1.255675,0.26458 z m -26.998178,-1.20296 c -3.373082,-2.52011 -7.12763,-7.33728 -7.929814,-10.17412 -0.203245,-0.71876 -0.230479,-0.71699 1.511041,-0.0984 0.769444,0.27331 2.19801,0.702 3.174592,0.95263 1.897447,0.48696 2.178966,0.69037 2.388024,1.72544 0.175979,0.87129 1.636217,5.63962 2.177971,7.11205 0.234525,0.63741 0.388604,1.27234 0.342398,1.41095 -0.04621,0.13862 -0.795101,-0.27924 -1.664212,-0.92857 z m 90.230219,-8.42471 c -1.53391,-0.35429 -3.30809,-1.78592 -4.32845,-3.49272 -0.83238,-1.39238 -0.88839,-1.63576 -0.88144,-3.83052 0.009,-2.71624 0.35129,-3.73472 1.79395,-5.33157 1.61392,-1.78641 3.24975,-2.4705 5.92948,-2.47966 1.93799,-0.007 2.44274,0.092 3.65045,0.71325 0.77082,0.39651 1.46405,0.88393 1.5405,1.08316 0.16872,0.43968 -0.40974,1.54736 -1.45277,2.78185 l -0.77447,0.91665 -1.45766,-0.73751 c -1.3573,-0.68673 -1.50948,-0.71072 -2.21009,-0.34842 -1.4396,0.74445 -1.77643,1.36397 -1.77643,3.26737 0,1.64536 0.0512,1.79248 0.88115,2.53407 0.78281,0.69945 1.02485,0.7735 2.16895,0.66356 0.7083,-0.068 1.50434,-0.31969 1.76899,-0.5592 0.26464,-0.2395 0.60614,-0.43545 0.75889,-0.43545 0.39432,0 2.45874,2.73908 2.45874,3.26227 0,0.56835 -1.78893,1.68669 -3.22971,2.01902 -1.37271,0.31664 -3.40343,0.30567 -4.84008,-0.0262 z m 27.07231,-0.068 c -1.16274,-0.31309 -3.12752,-1.54629 -3.12752,-1.96301 0,-0.10368 0.41988,-0.812 0.93307,-1.57404 0.96037,-1.42607 1.4929,-1.66652 2.22451,-1.00442 0.66596,0.60269 2.86249,1.11299 3.22601,0.74947 0.55281,-0.55281 0.0478,-1.00057 -2.15376,-1.90952 -1.90517,-0.78659 -2.28313,-1.05609 -2.96179,-2.11188 -0.67271,-1.04651 -0.76455,-1.40941 -0.67891,-2.68273 0.12065,-1.79397 0.81999,-2.8758 2.49275,-3.8561 0.99296,-0.58192 1.5385,-0.70521 3.22386,-0.72863 2.56508,-0.0356 3.67559,0.20498 4.67447,1.01279 0.73835,0.59712 0.76727,0.68476 0.41434,1.25569 -0.20867,0.33757 -0.53856,0.92865 -0.73309,1.31352 -0.58871,1.16474 -0.99275,1.37105 -1.84506,0.94215 -1.59356,-0.80191 -3.26544,-0.73505 -2.93347,0.11732 0.0766,0.19659 1.02125,0.68299 2.09929,1.08088 2.66917,0.98517 3.70449,2.05669 3.86572,4.00092 0.0654,0.78872 -0.0204,1.85625 -0.19073,2.37228 -0.39248,1.18924 -2.05737,2.70617 -3.37025,3.07073 -1.32703,0.3685 -3.6143,0.33063 -5.15944,-0.0854 z m -62.80381,-0.23017 c -0.0706,-0.18407 -0.0967,-3.54759 -0.0578,-7.47448 l 0.0706,-7.1398 2.35887,-0.0771 c 1.70866,-0.0558 2.41862,0.0171 2.57564,0.26458 0.11922,0.18792 0.21858,1.38915 0.22081,2.6694 l 0.004,2.32773 1.65365,-0.0788 1.65364,-0.0788 0.1323,-2.51354 0.13229,-2.51354 2.20845,-0.0773 c 1.40063,-0.049 2.34425,0.0354 2.57969,0.23083 0.30134,0.25009 0.37123,1.61599 0.37123,7.25476 0,5.63877 -0.0699,7.00467 -0.37123,7.25476 -0.23544,0.1954 -1.17906,0.27983 -2.57969,0.23083 l -2.20845,-0.0773 -0.13229,-2.38125 -0.1323,-2.38125 h -1.5875 -1.5875 l -0.0782,2.10413 c -0.043,1.15727 -0.20644,2.2586 -0.36312,2.4474 -0.39267,0.47313 -4.68188,0.48071 -4.86305,0.009 z m 15.06689,-0.0374 c -0.0785,-0.20465 0.23181,-1.42504 0.68964,-2.71198 0.89099,-2.50451 1.20898,-3.41276 2.99607,-8.55759 l 1.14881,-3.30729 2.73271,-0.0759 c 1.50299,-0.0417 2.8463,0.0377 2.98513,0.17655 0.21363,0.21363 3.31898,9.03911 4.20048,11.93787 0.15488,0.50932 0.44393,1.24149 0.64232,1.62703 0.55352,1.07566 0.0412,1.31992 -2.57626,1.22835 l -2.20846,-0.0773 -0.60572,-1.26815 -0.60573,-1.26815 -1.89772,0.0775 -1.89773,0.0775 -0.39329,1.05834 c -0.21631,0.58208 -0.51851,1.1458 -0.67155,1.25272 -0.15304,0.10691 -1.20473,0.19621 -2.33708,0.19843 -1.5279,0.003 -2.09565,-0.0919 -2.20162,-0.36804 z m 8.09285,-7.10238 c -0.004,-0.86244 -0.37888,-1.7558 -0.63091,-1.50376 -0.074,0.074 -0.21476,0.63611 -0.31278,1.24911 -0.16252,1.01631 -0.12861,1.11454 0.38476,1.11454 0.4596,0 0.56223,-0.1579 0.55893,-0.85989 z m 22.35243,7.14979 c -0.0727,-0.18957 -0.1005,-3.55758 -0.0617,-7.48447 l 0.0706,-7.1398 h 2.51354 2.51354 l 0.0788,1.65364 c 0.0433,0.90951 0.17236,1.65365 0.28675,1.65365 0.11438,0 0.66288,-0.6605 1.21887,-1.46778 0.55599,-0.80727 1.2228,-1.58118 1.48179,-1.71979 0.259,-0.13861 1.60982,-0.25201 3.00184,-0.25201 3.1051,0 3.15066,0.12177 1.00958,2.69825 -0.83675,1.0069 -1.7853,2.19268 -2.1079,2.63505 l -0.58653,0.80433 0.65857,1.23066 c 0.36222,0.67687 0.95169,1.70691 1.30994,2.289 1.6556,2.69004 2.79622,4.91331 2.64569,5.15688 -0.0932,0.1508 -1.31274,0.26708 -2.80111,0.26708 h -2.63605 l -0.73111,-1.15286 c -0.40212,-0.63407 -1.02437,-1.70563 -1.38279,-2.38125 -0.97987,-1.84708 -1.28088,-1.60829 -1.36987,1.08671 l -0.0764,2.3151 -2.45186,0.0761 c -1.82644,0.0567 -2.48561,-0.0118 -2.58413,-0.26853 z m -88.626507,-1.27686 c -0.727604,-0.1123 -2.096823,-0.21437 -3.042708,-0.22682 -2.083989,-0.0274 -6.146937,-0.74294 -6.75864,-1.19023 -0.348567,-0.25488 -0.491698,-1.02054 -0.669724,-3.5826 -0.124528,-1.79214 -0.269749,-3.30178 -0.322712,-3.35474 -0.224328,-0.22433 -2.567674,4.77756 -2.567674,5.48072 0,0.84561 -0.0715,0.893 -0.777273,0.51528 -0.262845,-0.14067 -1.237284,-0.42788 -2.165418,-0.63825 -3.0565,-0.69277 -4.19085,-1.2094 -4.353227,-1.98263 -0.0803,-0.38238 -0.330998,-1.17148 -0.557112,-1.75356 -1.443058,-3.71486 -1.671816,-4.50473 -1.670117,-5.76672 0.0016,-1.22028 0.710562,-4.81167 1.199136,-6.07483 0.140542,-0.36335 -0.04262,-0.55157 -0.8414,-0.86464 -3.393063,-1.32984 -5.459407,-3.29447 -7.165991,-6.81327 -0.702255,-1.44798 -1.464377,-2.55245 -2.277136,-3.30003 -2.854015,-2.62517 -4.552488,-5.71043 -3.914503,-7.11066 0.346903,-0.76137 1.2711,-1.15839 2.696515,-1.15839 0.845106,0 1.041109,-0.0943 1.041109,-0.50086 0,-0.55783 0.491392,-0.82206 1.528772,-0.82206 0.974986,0 2.360638,-1.03948 4.377052,-3.28357 2.227181,-2.47864 3.130008,-2.9233 5.490089,-2.70395 l 1.780758,0.1655 0.317308,-1.32268 c 0.647529,-2.69921 2.775843,-3.7654 4.358045,-2.1832 0.399447,0.39945 1.200351,1.59007 1.779786,2.64583 0.672949,1.22615 1.217269,1.91957 1.506822,1.91957 1.018247,0 3.112501,-1.33899 3.947858,-2.52412 0.467728,-0.66357 0.959725,-1.13894 1.093328,-1.05636 0.436135,0.26954 0.8647,3.08296 0.686674,4.50784 -0.171607,1.37349 -0.163774,1.39343 0.868565,2.21106 1.409698,1.1165 2.032364,2.44627 1.653871,3.53201 -0.488152,1.40031 -0.438022,1.44181 1.965099,1.62653 1.237423,0.0951 2.75547,0.36149 3.373437,0.59195 1.319937,0.49225 3.583464,1.00522 6.098348,1.38203 0.989873,0.14831 2.095024,0.46312 2.455891,0.69957 0.919934,0.60276 2.883522,5.16754 4.044547,9.40241 0.729299,2.66013 0.808058,3.58736 0.29875,3.51719 -2.729737,-0.3761 -7.867164,-0.87079 -9.046007,-0.87104 l -1.505383,-3.2e-4 -0.08212,-0.99219 c -0.07574,-0.91508 -0.151787,-0.99884 -0.978625,-1.07782 -0.493079,-0.0471 -1.170142,-0.017 -1.504585,0.067 -0.524939,0.13176 -0.588192,0.27516 -0.462633,1.04889 l 0.145444,0.89627 -1.300111,0.17881 c -0.715061,0.0983 -1.465345,0.14113 -1.667297,0.0951 -0.445727,-0.10163 -1.52417,2.61441 -1.165704,2.93581 0.130245,0.11677 0.984652,0.13525 1.898682,0.0411 0.91403,-0.0942 1.778865,-0.099 1.921856,-0.0106 0.357102,0.2207 0.215296,17.78987 -0.144145,17.859 -0.145521,0.028 -0.859896,-0.041 -1.5875,-0.15329 z M 48.854608,176.00164 c -0.07108,-0.18932 -0.687037,-0.59097 -1.368801,-0.89254 -1.192247,-0.52739 -1.252974,-0.53 -1.590625,-0.0682 -0.483735,0.66155 -0.470777,0.69182 0.611846,1.42927 0.527607,0.35938 1.211403,0.99447 1.519547,1.41131 l 0.560261,0.75787 0.1985,-1.14673 c 0.109175,-0.6307 0.140347,-1.30162 0.06927,-1.49095 z m -3.627204,-1.95461 c 0.04657,-0.24571 -0.168737,-0.70017 -0.478463,-1.00989 -0.44814,-0.44814 -0.640568,-0.49888 -0.942309,-0.24846 -0.397382,0.3298 -0.513639,1.35015 -0.190635,1.67315 0.345111,0.34511 1.524939,0.0414 1.611407,-0.4148 z m 19.236907,15.62986 c -0.07819,-0.20376 -0.110732,-4.29862 -0.07232,-9.0997 l 0.06984,-8.72924 2.645834,0.0671 c 3.124242,0.0793 8.619921,0.78221 8.99279,1.15029 0.391238,0.3862 0.505493,9.33301 0.153854,12.04761 -0.2517,1.94308 -0.704318,3.99998 -0.898934,4.08516 -0.02509,0.011 -1.533908,0.12289 -3.352919,0.24869 -1.81901,0.1258 -4.227248,0.31238 -5.35164,0.41463 -1.634933,0.14867 -2.07282,0.11171 -2.18651,-0.18456 z m 14.518239,-2.56051 c 0.389348,-2.90029 0.593928,-7.79746 0.438888,-10.50593 -0.09163,-1.60073 -0.132178,-2.95936 -0.0901,-3.01918 0.266218,-0.3785 7.214142,1.71469 7.706637,2.32177 0.268477,0.33094 0.327354,1.3982 0.250119,4.53387 -0.116192,4.71728 -0.454121,5.95085 -1.708296,6.23593 -0.409772,0.0931 -1.638009,0.43853 -2.729415,0.76754 -1.091406,0.329 -2.445773,0.66869 -3.009703,0.75485 l -1.025329,0.15667 z m 5.455328,-15.43778 c -0.363802,-0.14745 -1.719503,-0.496 -3.01267,-0.77455 -1.293166,-0.27855 -2.497079,-0.62751 -2.675363,-0.77547 -0.178283,-0.14796 -0.393946,-0.83366 -0.479251,-1.52378 -0.16967,-1.37264 -0.918682,-3.99733 -1.905916,-6.67873 -0.348257,-0.94588 -0.711026,-2.00244 -0.806154,-2.3479 l -0.17296,-0.62811 1.15272,0.62811 c 1.606216,0.87522 5.421452,4.74858 6.936187,7.04185 0.984261,1.49014 2.550907,4.7317 2.550907,5.2781 0,0.17 -0.950881,0.0385 -1.5875,-0.21952 z m 50.667712,-4.95687 c -1.25226,-0.33277 -2.8469,-1.24022 -3.61905,-2.05944 -2.11736,-2.24646 -2.72189,-5.93631 -1.42256,-8.68287 0.73284,-1.54909 2.6208,-3.42299 4.05054,-4.02038 0.5916,-0.24718 1.88293,-0.41407 3.35746,-0.4339 2.02984,-0.0273 2.59588,0.0647 3.70302,0.60202 1.72358,0.83646 2.83461,1.93712 3.74849,3.7135 1.41574,2.75188 0.86618,6.42881 -1.29864,8.68873 -1.43069,1.49354 -3.16899,2.21201 -5.59856,2.314 -1.16982,0.0491 -2.48414,-0.006 -2.9207,-0.12166 z m 4.41758,-5.03935 c 0.77594,-0.86057 1.16055,-2.28101 0.89938,-3.32159 -0.0909,-0.36209 -0.53303,-1.07725 -0.98257,-1.58924 -0.6918,-0.78792 -0.98839,-0.93089 -1.93105,-0.93089 -1.67421,0 -2.59635,1.06477 -2.74892,3.1741 -0.11325,1.56565 -0.1,1.60195 0.97828,2.68024 0.99309,0.99308 1.1836,1.0787 2.08228,0.93585 0.62904,-0.1 1.24893,-0.44531 1.7026,-0.94847 z m 28.8824,5.03522 c -5.36265,-1.38743 -7.18299,-8.83335 -3.14658,-12.87073 1.90024,-1.90069 2.95521,-2.32745 5.75405,-2.32761 2.08705,-1.2e-4 2.42286,0.0729 3.54597,0.77157 1.8984,1.18087 1.94072,1.37999 0.6614,3.11174 -0.60801,0.82303 -1.25055,1.49564 -1.42786,1.49468 -0.17731,-9.6e-4 -0.67957,-0.2383 -1.11613,-0.52743 -1.23393,-0.81719 -2.40341,-0.69221 -3.46604,0.37042 -0.80001,0.80001 -0.89958,1.05708 -0.89958,2.32238 0,1.40469 0.39261,2.34394 1.2799,3.06189 0.6178,0.4999 2.55868,0.40211 3.51075,-0.17687 0.45908,-0.27919 0.98276,-0.45079 1.16374,-0.38134 0.18098,0.0694 0.78289,0.78523 1.33759,1.59062 1.17611,1.70766 1.11162,1.958 -0.75638,2.93635 -0.9634,0.50457 -1.74771,0.67536 -3.42932,0.74679 -1.19913,0.0509 -2.55431,-0.004 -3.01151,-0.12246 z m 14.00764,-0.005 c -1.33048,-0.34019 -3.39553,-1.79582 -4.13683,-2.91599 -0.37209,-0.56226 -0.87222,-1.7775 -1.1114,-2.70052 -0.92746,-3.57921 0.66898,-7.14255 3.94143,-8.79752 1.33292,-0.67409 1.79781,-0.76517 3.95738,-0.77529 2.20526,-0.0103 2.5848,0.0635 3.8414,0.74744 1.81898,0.99001 3.02107,2.35105 3.71531,4.20657 0.69668,1.86203 0.71161,3.44621 0.0502,5.32797 -1.15365,3.28235 -3.52161,4.92913 -7.26567,5.05288 -1.17992,0.039 -2.52625,-0.0265 -2.99185,-0.14554 z m 3.70845,-4.35247 c 1.89337,-0.7911 2.30157,-4.02205 0.72179,-5.7132 -0.9827,-1.052 -2.52445,-1.12319 -3.63509,-0.16786 -0.69037,0.59383 -0.74236,0.77717 -0.74236,2.61805 0,1.60706 0.0996,2.09017 0.52917,2.56768 0.94541,1.05084 1.81355,1.24391 3.12649,0.69533 z m -83.57257,3.99363 c -0.0706,-0.18407 -0.0967,-3.54759 -0.0578,-7.47448 l 0.0706,-7.1398 4.23781,-0.0724 4.23781,-0.0724 1.26735,0.80373 c 1.2949,0.8212 2.03099,2.00598 2.03099,3.26902 0,0.80772 -0.6435,2.36486 -1.15154,2.78649 -0.33056,0.27434 -0.22829,0.47163 0.68702,1.32542 0.95101,0.88709 1.08868,1.16866 1.19039,2.43475 0.14416,1.79455 -0.57522,3.00497 -2.30543,3.87904 -1.08288,0.54706 -1.53913,0.59531 -5.62856,0.59531 -3.34403,0 -4.48208,-0.0832 -4.57859,-0.33467 z m 6.53486,-3.37614 c 1.08667,-0.30183 1.31408,-0.64898 0.99227,-1.51471 -0.18483,-0.49724 -0.41883,-0.59531 -1.42044,-0.59531 h -1.19915 v 1.01424 c 0,1.45121 0.10153,1.51958 1.62732,1.09578 z m 0.34814,-5.80433 c 0.25848,-0.28562 0.39905,-0.70413 0.31237,-0.93001 -0.18585,-0.48432 -1.4335,-1.01179 -1.93658,-0.81874 -0.35917,0.13782 -0.49568,1.77085 -0.17486,2.09167 0.35241,0.35242 1.34018,0.16414 1.79907,-0.34292 z m 7.1439,9.19083 c -0.0728,-0.18977 -0.10064,-3.55795 -0.0618,-7.48484 l 0.0706,-7.1398 h 4.38582 c 4.34224,0 4.39674,0.007 5.48488,0.7279 2.6283,1.7407 2.87986,4.99517 0.57774,7.47418 l -0.73712,0.79375 1.42408,2.51354 c 0.78325,1.38245 1.42593,2.7219 1.4282,2.97656 0.004,0.40819 -0.28572,0.46255 -2.44328,0.45897 -1.34607,-0.002 -2.58209,-0.0915 -2.74672,-0.19843 -0.16463,-0.10692 -0.75994,-1.08736 -1.32292,-2.17877 l -1.02359,-1.98437 -0.13229,2.11667 -0.1323,2.11666 -2.31943,0.0765 c -1.71926,0.0567 -2.35369,-0.0128 -2.45183,-0.26853 z m 6.81508,-9.02323 c 0.57633,-0.90601 -0.46566,-2.07181 -1.49778,-1.67575 -0.42575,0.16338 -0.59312,1.75989 -0.22327,2.12974 0.25549,0.2555 1.47424,-0.066 1.72105,-0.45399 z m 23.87261,9.01287 c -0.0706,-0.18407 -0.0967,-3.54759 -0.0578,-7.47448 l 0.0706,-7.1398 2.0756,-0.0777 c 1.39058,-0.0521 2.20906,0.033 2.47997,0.25786 0.2224,0.18458 1.31244,1.46528 2.42231,2.84601 l 2.01795,2.51042 0.0768,-2.48938 c 0.0422,-1.36916 0.20563,-2.64465 0.36313,-2.83443 0.37526,-0.45216 4.21926,-0.47485 4.66657,-0.0275 0.45217,0.45217 0.45217,13.99409 0,14.44625 -0.42434,0.42435 -3.69122,0.41415 -4.23723,-0.0132 -0.23239,-0.18191 -1.416,-1.58089 -2.63025,-3.10886 l -2.20773,-2.77812 -0.076,2.76284 c -0.0418,1.51957 -0.20519,2.91855 -0.36313,3.10886 -0.39319,0.47377 -4.41947,0.48369 -4.60073,0.0113 z"
         id="path7" /><path
         style="fill:#9fa09d"
         d="m 138.28059,191.2583 c -1.53391,-0.35429 -3.30809,-1.78592 -4.32845,-3.49272 -0.83238,-1.39238 -0.88839,-1.63576 -0.88144,-3.83052 0.009,-2.71624 0.35129,-3.73472 1.79395,-5.33157 1.61392,-1.78641 3.24975,-2.4705 5.92948,-2.47966 1.93799,-0.007 2.44274,0.092 3.65045,0.71325 0.77082,0.39651 1.46405,0.88393 1.5405,1.08316 0.16872,0.43968 -0.40974,1.54736 -1.45277,2.78185 l -0.77447,0.91665 -1.45766,-0.73751 c -1.3573,-0.68673 -1.50948,-0.71072 -2.21009,-0.34842 -1.4396,0.74445 -1.77643,1.36397 -1.77643,3.26737 0,1.64536 0.0512,1.79248 0.88115,2.53407 0.78281,0.69945 1.02485,0.7735 2.16895,0.66356 0.7083,-0.068 1.50434,-0.31969 1.76899,-0.5592 0.26464,-0.2395 0.60614,-0.43545 0.75889,-0.43545 0.39432,0 2.45874,2.73908 2.45874,3.26227 0,0.56835 -1.78893,1.68669 -3.22971,2.01902 -1.37271,0.31664 -3.40343,0.30567 -4.84008,-0.0262 z m 27.07231,-0.068 c -1.16274,-0.31309 -3.12752,-1.54629 -3.12752,-1.96301 0,-0.10368 0.41988,-0.812 0.93307,-1.57404 0.96037,-1.42607 1.4929,-1.66652 2.22451,-1.00442 0.66596,0.60269 2.86249,1.11299 3.22601,0.74947 0.55281,-0.55281 0.0478,-1.00057 -2.15376,-1.90952 -1.90517,-0.78659 -2.28313,-1.05609 -2.96179,-2.11188 -0.67271,-1.04651 -0.76455,-1.40941 -0.67891,-2.68273 0.12065,-1.79397 0.81999,-2.8758 2.49275,-3.8561 0.99296,-0.58192 1.5385,-0.70521 3.22386,-0.72863 2.56508,-0.0356 3.67559,0.20498 4.67447,1.01279 0.73835,0.59712 0.76727,0.68476 0.41434,1.25569 -0.20867,0.33757 -0.53856,0.92865 -0.73309,1.31352 -0.58871,1.16474 -0.99275,1.37105 -1.84506,0.94215 -1.59356,-0.80191 -3.26544,-0.73505 -2.93347,0.11732 0.0766,0.19659 1.02125,0.68299 2.09929,1.08088 2.66917,0.98517 3.70449,2.05669 3.86572,4.00092 0.0654,0.78872 -0.0204,1.85625 -0.19073,2.37228 -0.39248,1.18924 -2.05737,2.70617 -3.37025,3.07073 -1.32703,0.3685 -3.6143,0.33063 -5.15944,-0.0854 z m -62.80381,-0.23017 c -0.0706,-0.18407 -0.0967,-3.54759 -0.0578,-7.47448 l 0.0706,-7.1398 2.35887,-0.0771 c 1.70866,-0.0558 2.41862,0.0171 2.57564,0.26458 0.11922,0.18792 0.21858,1.38915 0.22081,2.6694 l 0.004,2.32773 1.65365,-0.0788 1.65364,-0.0788 0.1323,-2.51354 0.13229,-2.51354 2.20845,-0.0773 c 1.40063,-0.049 2.34425,0.0354 2.57969,0.23083 0.30134,0.25009 0.37123,1.61599 0.37123,7.25476 0,5.63877 -0.0699,7.00467 -0.37123,7.25476 -0.23544,0.1954 -1.17906,0.27983 -2.57969,0.23083 l -2.20845,-0.0773 -0.13229,-2.38125 -0.1323,-2.38125 h -1.5875 -1.5875 l -0.0782,2.10413 c -0.043,1.15727 -0.20644,2.2586 -0.36312,2.4474 -0.39267,0.47313 -4.68188,0.48071 -4.86305,0.009 z m 15.06689,-0.0374 c -0.0785,-0.20465 0.23181,-1.42504 0.68964,-2.71198 0.89099,-2.50451 1.20898,-3.41276 2.99607,-8.55759 l 1.14881,-3.30729 2.73271,-0.0759 c 1.50299,-0.0417 2.8463,0.0377 2.98513,0.17655 0.21363,0.21363 3.31898,9.03911 4.20048,11.93787 0.15488,0.50932 0.44393,1.24149 0.64232,1.62703 0.55352,1.07566 0.0412,1.31992 -2.57626,1.22835 l -2.20846,-0.0773 -0.60572,-1.26815 -0.60573,-1.26815 -1.89772,0.0775 -1.89773,0.0775 -0.39329,1.05834 c -0.21631,0.58208 -0.51851,1.1458 -0.67155,1.25272 -0.15304,0.10691 -1.20473,0.19621 -2.33708,0.19843 -1.5279,0.003 -2.09565,-0.0919 -2.20162,-0.36804 z m 8.09285,-7.10238 c -0.004,-0.86244 -0.37888,-1.7558 -0.63091,-1.50376 -0.074,0.074 -0.21476,0.63611 -0.31278,1.24911 -0.16252,1.01631 -0.12861,1.11454 0.38476,1.11454 0.4596,0 0.56223,-0.1579 0.55893,-0.85989 z m 22.35243,7.14979 c -0.0727,-0.18957 -0.1005,-3.55758 -0.0617,-7.48447 l 0.0706,-7.1398 h 2.51354 2.51354 l 0.0788,1.65364 c 0.0433,0.90951 0.17236,1.65365 0.28675,1.65365 0.11438,0 0.66288,-0.6605 1.21887,-1.46778 0.55599,-0.80727 1.2228,-1.58118 1.48179,-1.71979 0.259,-0.13861 1.60982,-0.25201 3.00184,-0.25201 3.1051,0 3.15066,0.12177 1.00958,2.69825 -0.83675,1.0069 -1.7853,2.19268 -2.1079,2.63505 l -0.58653,0.80433 0.65857,1.23066 c 0.36222,0.67687 0.95169,1.70691 1.30994,2.289 1.6556,2.69004 2.79622,4.91331 2.64569,5.15688 -0.0932,0.1508 -1.31274,0.26708 -2.80111,0.26708 h -2.63605 l -0.73111,-1.15286 c -0.40212,-0.63407 -1.02437,-1.70563 -1.38279,-2.38125 -0.97987,-1.84708 -1.28088,-1.60829 -1.36987,1.08671 l -0.0764,2.3151 -2.45186,0.0761 c -1.82644,0.0567 -2.48561,-0.0118 -2.58413,-0.26853 z M 41.972253,186.43347 c -0.436563,-0.2037 -1.267652,-0.97916 -1.846865,-1.72325 -0.579213,-0.74409 -1.18224,-1.35289 -1.340059,-1.35289 -0.682173,0 -2.237771,-4.31008 -2.235181,-6.19299 0.0016,-1.19671 0.715275,-4.79446 1.199136,-6.04544 0.140542,-0.36335 -0.04262,-0.55157 -0.8414,-0.86464 -3.393063,-1.32984 -5.459407,-3.29447 -7.165991,-6.81327 -0.702255,-1.44798 -1.464377,-2.55245 -2.277136,-3.30003 -2.854015,-2.62517 -4.552488,-5.71043 -3.914503,-7.11066 0.346903,-0.76137 1.2711,-1.15839 2.696515,-1.15839 0.845106,0 1.041109,-0.0943 1.041109,-0.50086 0,-0.55783 0.491392,-0.82206 1.528772,-0.82206 0.974986,0 2.360638,-1.03948 4.377052,-3.28357 2.227181,-2.47864 3.130008,-2.9233 5.490089,-2.70395 l 1.780758,0.1655 0.317308,-1.32268 c 0.647529,-2.69921 2.775843,-3.7654 4.358045,-2.1832 0.399447,0.39945 1.200351,1.59007 1.779786,2.64583 0.672949,1.22615 1.217269,1.91957 1.506822,1.91957 1.018247,0 3.112501,-1.33899 3.947858,-2.52412 0.467728,-0.66357 0.959725,-1.13894 1.093328,-1.05636 0.436135,0.26954 0.8647,3.08296 0.686674,4.50784 -0.171607,1.37349 -0.163774,1.39343 0.868565,2.21106 1.409698,1.1165 2.032364,2.44627 1.653871,3.53201 -0.488152,1.40031 -0.438022,1.44181 1.965099,1.62653 1.237423,0.0951 2.75547,0.35937 3.373437,0.58724 0.617968,0.22787 1.570271,0.53933 2.116231,0.69215 0.818524,0.2291 1.163085,0.56225 1.964233,1.89918 0.53437,0.89174 1.294421,2.03807 1.689002,2.54739 2.089308,2.69686 1.376995,5.41272 -1.736645,6.62135 -1.001082,0.38859 -5.142877,0.42733 -5.831184,0.0545 -1.300392,-0.70429 -2.000427,-1.80824 -2.155509,-3.3992 -0.166644,-1.70958 -0.5413,-2.31461 -1.678845,-2.71116 -1.745786,-0.60859 -1.641833,1.76729 0.186288,4.25769 0.521389,0.71028 1.120388,1.87955 1.331108,2.59838 0.356594,1.21646 0.344291,1.41077 -0.177644,2.80577 -0.308424,0.82434 -0.496494,1.6663 -0.417933,1.87103 0.07856,0.20472 -0.30295,0.91464 -0.847801,1.57758 -2.067383,2.51547 -6.022195,3.51718 -8.159562,2.06673 -0.928637,-0.63019 -1.153879,-0.70414 -2.335758,-0.76678 -0.330535,-0.0175 -0.583656,-0.30501 -0.72233,-0.82042 -0.272049,-1.01111 -0.968037,-1.56159 -1.459095,-1.15405 -0.82955,0.68847 0.120952,2.5964 1.499646,3.01023 0.95158,0.28563 2.597032,1.6473 3.050673,2.52454 0.675677,1.30662 0.45222,2.57342 -0.907369,5.14398 -1.335849,2.52567 -1.891624,3.00806 -3.695773,3.20781 -0.528589,0.0585 -1.31826,-0.0602 -1.754822,-0.26396 z m 93.133337,-19.71174 c -1.25226,-0.33277 -2.8469,-1.24022 -3.61905,-2.05944 -2.11736,-2.24646 -2.72189,-5.93631 -1.42256,-8.68287 0.73284,-1.54909 2.6208,-3.42299 4.05054,-4.02038 0.5916,-0.24718 1.88293,-0.41407 3.35746,-0.4339 2.02984,-0.0273 2.59588,0.0647 3.70302,0.60202 1.72358,0.83646 2.83461,1.93712 3.74849,3.7135 1.41574,2.75188 0.86618,6.42881 -1.29864,8.68873 -1.43069,1.49354 -3.16899,2.21201 -5.59856,2.314 -1.16982,0.0491 -2.48414,-0.006 -2.9207,-0.12166 z m 4.41758,-5.03935 c 0.77594,-0.86057 1.16055,-2.28101 0.89938,-3.32159 -0.0909,-0.36209 -0.53303,-1.07725 -0.98257,-1.58924 -0.6918,-0.78792 -0.98839,-0.93089 -1.93105,-0.93089 -1.67421,0 -2.59635,1.06477 -2.74892,3.1741 -0.11325,1.56565 -0.1,1.60195 0.97828,2.68024 0.99309,0.99308 1.1836,1.0787 2.08228,0.93585 0.62904,-0.1 1.24893,-0.44531 1.7026,-0.94847 z m 28.8824,5.03522 c -5.36265,-1.38743 -7.18299,-8.83335 -3.14658,-12.87073 1.90024,-1.90069 2.95521,-2.32745 5.75405,-2.32761 2.08705,-1.2e-4 2.42286,0.0729 3.54597,0.77157 1.8984,1.18087 1.94072,1.37999 0.6614,3.11174 -0.60801,0.82303 -1.25055,1.49564 -1.42786,1.49468 -0.17731,-9.6e-4 -0.67957,-0.2383 -1.11613,-0.52743 -1.23393,-0.81719 -2.40341,-0.69221 -3.46604,0.37042 -0.80001,0.80001 -0.89958,1.05708 -0.89958,2.32238 0,1.40469 0.39261,2.34394 1.2799,3.06189 0.6178,0.4999 2.55868,0.40211 3.51075,-0.17687 0.45908,-0.27919 0.98276,-0.45079 1.16374,-0.38134 0.18098,0.0694 0.78289,0.78523 1.33759,1.59062 1.17611,1.70766 1.11162,1.958 -0.75638,2.93635 -0.9634,0.50457 -1.74771,0.67536 -3.42932,0.74679 -1.19913,0.0509 -2.55431,-0.004 -3.01151,-0.12246 z m 14.00764,-0.005 c -1.33048,-0.34019 -3.39553,-1.79582 -4.13683,-2.91599 -0.37209,-0.56226 -0.87222,-1.7775 -1.1114,-2.70052 -0.92746,-3.57921 0.66898,-7.14255 3.94143,-8.79752 1.33292,-0.67409 1.79781,-0.76517 3.95738,-0.77529 2.20526,-0.0103 2.5848,0.0635 3.8414,0.74744 1.81898,0.99001 3.02107,2.35105 3.71531,4.20657 0.69668,1.86203 0.71161,3.44621 0.0502,5.32797 -1.15365,3.28235 -3.52161,4.92913 -7.26567,5.05288 -1.17992,0.039 -2.52625,-0.0265 -2.99185,-0.14554 z m 3.70845,-4.35247 c 1.89337,-0.7911 2.30157,-4.02205 0.72179,-5.7132 -0.9827,-1.052 -2.52445,-1.12319 -3.63509,-0.16786 -0.69037,0.59383 -0.74236,0.77717 -0.74236,2.61805 0,1.60706 0.0996,2.09017 0.52917,2.56768 0.94541,1.05084 1.81355,1.24391 3.12649,0.69533 z m -83.57257,3.99363 c -0.0706,-0.18407 -0.0967,-3.54759 -0.0578,-7.47448 l 0.0706,-7.1398 4.23781,-0.0724 4.23781,-0.0724 1.26735,0.80373 c 1.2949,0.8212 2.03099,2.00598 2.03099,3.26902 0,0.80772 -0.6435,2.36486 -1.15154,2.78649 -0.33056,0.27434 -0.22829,0.47163 0.68702,1.32542 0.95101,0.88709 1.08868,1.16866 1.19039,2.43475 0.14416,1.79455 -0.57522,3.00497 -2.30543,3.87904 -1.08288,0.54706 -1.53913,0.59531 -5.62856,0.59531 -3.34403,0 -4.48208,-0.0832 -4.57859,-0.33467 z m 6.53486,-3.37614 c 1.08667,-0.30183 1.31408,-0.64898 0.99227,-1.51471 -0.18483,-0.49724 -0.41883,-0.59531 -1.42044,-0.59531 h -1.19915 v 1.01424 c 0,1.45121 0.10153,1.51958 1.62732,1.09578 z m 0.34814,-5.80433 c 0.25848,-0.28562 0.39905,-0.70413 0.31237,-0.93001 -0.18585,-0.48432 -1.4335,-1.01179 -1.93658,-0.81874 -0.35917,0.13782 -0.49568,1.77085 -0.17486,2.09167 0.35241,0.35242 1.34018,0.16414 1.79907,-0.34292 z m 7.1439,9.19083 c -0.0728,-0.18977 -0.10064,-3.55795 -0.0618,-7.48484 l 0.0706,-7.1398 h 4.38582 c 4.34224,0 4.39674,0.007 5.48488,0.7279 2.6283,1.7407 2.87986,4.99517 0.57774,7.47418 l -0.73712,0.79375 1.42408,2.51354 c 0.78325,1.38245 1.42593,2.7219 1.4282,2.97656 0.004,0.40819 -0.28572,0.46255 -2.44328,0.45897 -1.34607,-0.002 -2.58209,-0.0915 -2.74672,-0.19843 -0.16463,-0.10692 -0.75994,-1.08736 -1.32292,-2.17877 l -1.02359,-1.98437 -0.13229,2.11667 -0.1323,2.11666 -2.31943,0.0765 c -1.71926,0.0567 -2.35369,-0.0128 -2.45183,-0.26853 z m 6.81508,-9.02323 c 0.57633,-0.90601 -0.46566,-2.07181 -1.49778,-1.67575 -0.42575,0.16338 -0.59312,1.75989 -0.22327,2.12974 0.25549,0.2555 1.47424,-0.066 1.72105,-0.45399 z m 23.87261,9.01287 c -0.0706,-0.18407 -0.0967,-3.54759 -0.0578,-7.47448 l 0.0706,-7.1398 2.0756,-0.0777 c 1.39058,-0.0521 2.20906,0.033 2.47997,0.25786 0.2224,0.18458 1.31244,1.46528 2.42231,2.84601 l 2.01795,2.51042 0.0768,-2.48938 c 0.0422,-1.36916 0.20563,-2.64465 0.36313,-2.83443 0.37526,-0.45216 4.21926,-0.47485 4.66657,-0.0275 0.45217,0.45217 0.45217,13.99409 0,14.44625 -0.42434,0.42435 -3.69122,0.41415 -4.23723,-0.0132 -0.23239,-0.18191 -1.416,-1.58089 -2.63025,-3.10886 l -2.20773,-2.77812 -0.076,2.76284 c -0.0418,1.51957 -0.20519,2.91855 -0.36313,3.10886 -0.39319,0.47377 -4.41947,0.48369 -4.60073,0.0113 z"
         id="path6" /><path
         style="fill:#4d4d4d"
         d="m 102.89257,191.00905 c -0.42172,-0.24563 -0.46302,-0.86843 -0.46302,-6.98177 0,-3.69165 0.0723,-6.90042 0.16059,-7.13061 0.12979,-0.33821 0.61205,-0.41851 2.51355,-0.41851 h 2.35294 l 0.004,2.3151 c 0.002,1.27331 0.10257,2.47044 0.22298,2.66028 0.15006,0.23659 0.7106,0.31982 1.78189,0.26458 l 1.56295,-0.0806 0.1323,-2.51354 0.13229,-2.51354 h 2.38125 2.38125 v 7.14375 7.14375 l -1.85209,0.20736 c -2.85139,0.31924 -3.0427,0.15862 -3.0427,-2.55463 0,-1.78604 -0.0828,-2.25808 -0.41852,-2.38692 -0.72059,-0.27652 -2.63598,-0.17527 -2.96815,0.1569 -0.19507,0.19507 -0.3175,1.1501 -0.3175,2.47669 v 2.15918 l -1.38906,0.16685 c -1.90148,0.22839 -2.63173,0.2021 -3.175,-0.11433 z m 25.56252,-0.0972 c -0.31079,-0.21914 -0.64779,-0.72796 -0.74888,-1.13073 -0.30352,-1.20933 -0.62175,-1.39671 -2.37203,-1.39671 -1.88721,0 -2.35094,0.27509 -2.78763,1.65364 l -0.31429,0.99219 h -2.22844 c -1.63884,0 -2.22844,-0.09 -2.22844,-0.34002 0,-0.18701 0.30533,-1.22881 0.67851,-2.3151 0.37318,-1.0863 0.90115,-2.62993 1.17326,-3.43029 0.27212,-0.80037 1.03835,-3.00113 1.70274,-4.89059 0.66439,-1.88945 1.20799,-3.47106 1.20799,-3.51468 0,-0.0436 1.27186,-0.0455 2.82635,-0.004 l 2.82635,0.0751 1.81992,5.29167 c 1.00095,2.91041 1.94489,5.70838 2.09763,6.21771 0.15274,0.50932 0.4533,1.26714 0.66791,1.68404 0.21461,0.41691 0.29077,0.84922 0.16925,0.9607 -0.12152,0.11148 -1.05439,0.27987 -2.07304,0.3742 -1.43475,0.13286 -1.97941,0.0817 -2.41716,-0.22692 z m -2.60392,-6.24132 c 0.36771,-0.59497 -0.39873,-3.25763 -0.81724,-2.83912 -0.26203,0.26203 -0.66349,2.60319 -0.49355,2.87816 0.19992,0.32347 1.10338,0.29657 1.31079,-0.039 z m 12.35946,6.38012 c -1.42866,-0.36343 -2.91428,-1.52798 -3.96169,-3.1055 -0.9737,-1.4665 -0.98953,-1.5316 -0.97986,-4.03139 0.0109,-2.83144 0.26332,-3.54277 1.89957,-5.3539 1.59007,-1.76002 2.70977,-2.19888 5.62548,-2.20487 2.29403,-0.005 2.62329,0.0604 3.77031,0.7456 0.73052,0.4364 1.25677,0.94364 1.25677,1.21137 0,0.61724 -1.82218,2.9287 -2.30876,2.9287 -0.21225,0 -0.68862,-0.23813 -1.05862,-0.52917 -1.03966,-0.81779 -2.24771,-0.68767 -3.36065,0.36197 -0.89845,0.84735 -0.94488,0.97716 -0.94488,2.64166 0,1.5531 0.0855,1.84625 0.7584,2.59933 0.65838,0.73685 0.92954,0.8488 2.05586,0.8488 0.80875,0 1.62606,-0.19356 2.16991,-0.5139 l 0.87246,-0.5139 0.76233,0.92604 c 1.69123,2.05443 1.6826,2.57457 -0.0576,3.47502 -1.24636,0.64491 -4.86086,0.93085 -6.49899,0.51414 z m 10.85173,0.029 -0.8599,-0.0829 v -7.25927 -7.25928 h 2.36863 2.36862 l 0.0788,1.65364 c 0.0487,1.0215 0.19478,1.65365 0.38224,1.65365 0.1669,0 0.85126,-0.74414 1.5208,-1.65365 l 1.21735,-1.65364 h 2.77867 c 1.58216,0 2.77867,0.10843 2.77867,0.25182 0,0.1385 -0.9525,1.34951 -2.11666,2.69114 -1.16417,1.34163 -2.11667,2.67324 -2.11667,2.95913 0,0.2859 1.01203,2.21725 2.24896,4.2919 1.23692,2.07465 2.24896,3.90394 2.24896,4.06509 0,0.3075 -0.93074,0.38787 -3.57188,0.30845 -1.84732,-0.0556 -2.14224,-0.30981 -3.55553,-3.06531 -1.32944,-2.59201 -1.86843,-2.28518 -1.86843,1.06363 v 1.93923 l -1.52135,0.0897 c -0.83675,0.0493 -1.90831,0.0523 -2.38125,0.007 z m 16.22274,-0.082 c -1.07878,-0.25286 -2.79514,-1.38493 -2.79514,-1.84361 0,-0.24843 0.7658,-1.44404 1.5373,-2.40012 0.32802,-0.4065 0.44895,-0.39221 1.59166,0.18814 1.70183,0.8643 2.46583,1.00547 3.06559,0.56643 0.58082,-0.42518 0.42395,-1.16254 -0.30157,-1.41754 -2.35949,-0.82929 -4.26726,-1.94781 -4.80429,-2.81675 -1.28524,-2.07956 -0.59644,-4.74076 1.60397,-6.19691 1.85263,-1.22602 6.33348,-1.12523 7.93178,0.17841 l 0.62035,0.50599 -0.66145,1.22939 c -0.91351,1.69784 -1.07961,1.79513 -2.23819,1.31104 -1.36331,-0.56962 -2.92119,-0.42556 -2.92119,0.27013 0,0.40232 0.42504,0.68544 1.85208,1.23367 2.31269,0.88848 3.24007,1.48587 3.72292,2.39822 0.48505,0.9165 0.48788,3.46735 0.005,4.39191 -0.56023,1.07237 -1.8036,2.14799 -2.81991,2.43946 -1.09979,0.31542 -3.96756,0.29527 -5.38878,-0.0379 z M 42.357213,186.35302 c -0.841666,-0.25712 -1.405677,-0.66404 -1.97246,-1.42309 -0.436563,-0.58465 -1.110722,-1.43088 -1.498132,-1.88051 -1.916096,-2.22383 -2.407203,-6.0981 -1.296797,-10.23026 0.325716,-1.21208 0.525016,-2.27098 0.442891,-2.35311 -0.08213,-0.0821 -0.817029,-0.4207 -1.633118,-0.75238 -3.09629,-1.25843 -4.783374,-3.00102 -6.521711,-6.73629 -0.645788,-1.38765 -1.243531,-2.23382 -2.004318,-2.83735 -1.53234,-1.21559 -3.496087,-3.86264 -3.926482,-5.29273 -0.318097,-1.05696 -0.313462,-1.29237 0.03594,-1.82563 0.47492,-0.72481 1.317039,-0.97894 2.78131,-0.8393 1.047943,0.0999 1.065913,0.0874 0.907595,-0.63342 -0.150692,-0.68609 -0.104037,-0.73538 0.696157,-0.73538 1.289944,0 2.85735,-1.06491 4.858662,-3.30102 2.360206,-2.63712 2.883735,-2.89659 5.445801,-2.69901 l 2.015139,0.15539 0.33923,-1.3236 c 0.739427,-2.8851 2.630727,-3.76669 4.213475,-1.96404 0.445181,0.50703 1.142124,1.63688 1.548763,2.51078 0.718549,1.54422 0.768457,1.58899 1.774432,1.59167 1.337094,0.004 3.108046,-1.03 3.86587,-2.25618 0.319761,-0.51739 0.713565,-0.89664 0.875119,-0.84279 0.464587,0.15486 0.761257,2.02598 0.605741,3.82045 l -0.142542,1.64477 1.151234,0.94335 c 1.499066,1.22837 1.914232,2.20406 1.510807,3.55057 -0.445167,1.48584 -0.396151,1.60925 0.639147,1.60925 1.675353,0 4.716228,0.53657 5.937661,1.04773 0.654844,0.27404 1.401947,0.56453 1.660229,0.64552 0.258282,0.081 0.794063,0.69529 1.190625,1.36507 0.396562,0.66979 1.163674,1.74677 1.704695,2.39329 1.389948,1.66098 1.696273,2.95943 1.045337,4.43098 -0.328106,0.74174 -0.867976,1.36932 -1.532378,1.78135 -0.931175,0.57746 -1.301751,0.6345 -4.017301,0.61831 l -2.991502,-0.0178 -0.920895,-0.9209 c -0.854818,-0.85482 -0.924939,-1.05073 -0.977249,-2.73034 -0.05009,-1.60828 -0.132965,-1.86663 -0.745505,-2.32385 -0.379033,-0.28293 -1.093408,-0.53385 -1.5875,-0.55761 l -0.898348,-0.0432 v 1.89671 1.89672 l -1.190625,0.88141 c -0.99638,0.73761 -1.412453,0.87922 -2.550325,0.86797 -1.177255,-0.0116 -1.601429,-0.18034 -3.161233,-1.25731 -1.040158,-0.71817 -1.900146,-1.14525 -2.034865,-1.01054 -0.134719,0.13472 0.05515,0.95442 0.449254,1.93953 0.874997,2.18715 0.871153,3.40701 -0.01559,4.94872 -1.007978,1.7525 -1.41079,2.13991 -2.224937,2.13991 -1.819098,0 -1.112836,3.32379 0.80645,3.79529 1.860461,0.45704 3.436758,2.20793 3.438595,3.81946 0.0012,1.04289 -1.091796,3.72939 -2.132921,5.24261 -0.955609,1.38893 -2.212722,1.78567 -3.963422,1.25084 z m 7.687628,-13.44337 c -0.422668,-0.50928 -0.155922,-1.19399 0.46515,-1.19399 0.617069,0 1.119554,0.49876 1.119554,1.11125 0,0.59506 -1.111361,0.65309 -1.584704,0.0827 z m 4.416072,-2.94873 c -0.330202,-0.33021 -0.19674,-1.34617 0.222553,-1.69415 0.559798,-0.46459 0.979894,0.003 0.869367,0.967 -0.08282,0.72258 -0.691284,1.12778 -1.09192,0.72715 z m 81.169447,-3.40424 c -2.43003,-0.44439 -4.22197,-1.75807 -5.31194,-3.89421 -0.5169,-1.013 -0.63679,-1.64981 -0.63679,-3.38223 0,-2.53484 0.64941,-4.09245 2.34489,-5.62422 1.8189,-1.64326 2.51318,-1.88505 5.46032,-1.90157 2.25718,-0.0126 2.80992,0.0729 3.76295,0.5821 1.81047,0.96743 2.85813,2.06191 3.63875,3.80138 0.63087,1.40575 0.71588,1.87874 0.60763,3.38056 -0.36077,5.0052 -4.56847,8.00694 -9.86581,7.03819 z m 4.00805,-4.78174 c 0.80936,-0.85817 0.89114,-1.09169 0.89114,-2.54466 0,-1.50557 -0.0605,-1.6603 -1.02721,-2.627 -0.82481,-0.82481 -1.22101,-1.02721 -2.01083,-1.02721 -1.30582,0 -2.76032,1.38008 -2.83034,2.68553 -0.10732,2.00069 0.0784,2.73494 0.91032,3.59833 0.69025,0.71638 1.0244,0.85989 2.00215,0.85989 1.003,0 1.30319,-0.13737 2.06477,-0.94488 z m 29.78449,4.85637 c -0.77079,-0.11359 -1.78282,-0.39842 -2.24896,-0.63295 -4.42477,-2.22629 -5.28308,-8.97767 -1.56696,-12.32555 1.82208,-1.64152 2.55716,-1.91252 5.21736,-1.92343 2.06317,-0.008 2.53708,0.0786 3.54783,0.65169 1.73042,0.98117 1.81364,1.26152 0.8141,2.74256 -1.01098,1.49799 -1.37688,1.68722 -2.20863,1.14224 -0.91572,-0.60001 -2.31595,-0.7735 -3.0714,-0.38055 -1.0243,0.53278 -1.86017,1.9786 -1.85904,3.21561 0.001,1.09656 0.72301,2.64101 1.52782,3.26817 0.64471,0.50239 2.46013,0.3971 3.43852,-0.19943 0.47646,-0.2905 0.97131,-0.52818 1.09966,-0.52818 0.32847,0 2.1351,2.56569 2.1351,3.03217 0,0.62412 -2.15948,1.70777 -3.85486,1.93441 -0.86301,0.11537 -2.19975,0.11682 -2.97054,0.003 z m 13.69722,-0.0517 c -2.91312,-0.59959 -4.8816,-2.34959 -5.69935,-5.06676 -1.06286,-3.53161 0.38764,-7.1491 3.59003,-8.95338 1.358,-0.76512 1.63194,-0.81988 4.10104,-0.81988 2.52999,0 2.70763,0.0382 4.05738,0.87129 1.81188,1.11838 2.55061,1.9697 3.21306,3.70269 1.3059,3.41632 0.13894,7.42994 -2.67713,9.20764 -1.69672,1.07109 -4.40697,1.50671 -6.58503,1.0584 z m 3.83744,-4.49086 c 1.6708,-1.6708 1.20182,-5.29363 -0.80355,-6.20734 -0.9065,-0.41303 -1.57763,-0.38411 -2.53136,0.10908 -1.97721,1.02246 -2.08567,4.97685 -0.17324,6.31637 0.92753,0.64967 2.75392,0.53612 3.50815,-0.21811 z m -84.08323,4.29325 c -0.39843,-0.22297 -0.44478,-0.94847 -0.44478,-6.961 0,-3.69165 0.0723,-6.90042 0.16059,-7.13061 0.13728,-0.35774 0.78152,-0.41851 4.4365,-0.41851 4.13792,0 4.30767,0.0216 5.26049,0.66904 0.54152,0.36798 1.16448,1.01691 1.38434,1.44207 0.72997,1.41162 0.36956,3.54039 -0.75781,4.47602 -0.34412,0.28559 -0.23785,0.485 0.77631,1.45673 1.10232,1.05622 1.17499,1.21302 1.17499,2.53529 0,1.57476 -0.76197,2.88192 -2.0642,3.54115 -0.8705,0.44067 -9.24771,0.76965 -9.92643,0.38982 z m 6.81881,-3.44009 c 0.78372,-0.35709 0.90034,-1.2808 0.24451,-1.93663 -0.29088,-0.29088 -0.78166,-0.40367 -1.52136,-0.34963 -1.02613,0.075 -1.09706,0.13312 -1.17674,0.96485 -0.0466,0.4868 -0.0206,1.05235 0.0578,1.25677 0.17292,0.45062 1.47171,0.48566 2.39575,0.0646 z m -0.4433,-5.39649 c 0.94322,-0.66066 0.77471,-1.6538 -0.36112,-2.12838 -1.17281,-0.49003 -1.69667,-0.16135 -1.69667,1.06453 0,1.4105 0.89918,1.87537 2.05779,1.06385 z m 7.82402,8.95576 c -0.32609,-0.22426 -0.43593,-3.20392 -0.38567,-10.46211 l 0.0289,-4.16719 h 4.1272 c 4.74457,0 5.50709,0.21871 6.75146,1.93652 1.30295,1.79867 1.01138,4.41292 -0.66707,5.98095 -0.37763,0.35279 -0.68659,0.77813 -0.68659,0.94521 0,0.2849 0.81124,1.80539 2.25224,4.22131 0.34296,0.57499 0.5712,1.13018 0.50719,1.23375 -0.21337,0.34524 -2.26208,0.55592 -3.68142,0.37859 l -1.40195,-0.17516 -1.03124,-2.01648 c -1.37511,-2.68888 -1.75919,-2.79526 -1.54651,-0.42832 0.0941,1.04759 0.0527,1.97794 -0.0979,2.2016 -0.29035,0.43098 -3.64199,0.71346 -4.16855,0.35133 z m 6.40277,-9.1876 c 0.61395,-0.93702 0.12926,-1.73754 -1.05204,-1.73754 -0.92867,0 -1.20963,0.33279 -1.20963,1.43276 0,0.77801 0.19706,0.94849 1.09633,0.94849 0.4957,0 0.88415,-0.21457 1.16534,-0.64371 z m 24.46125,9.19154 c -0.21828,-0.0883 -0.48435,-0.29148 -0.59126,-0.45156 -0.26806,-0.40137 -0.24646,-13.43814 0.023,-13.86286 0.15521,-0.24466 0.8125,-0.32032 2.29872,-0.26458 l 2.08135,0.078 2.14966,2.63067 c 1.18231,1.44687 2.28493,2.67576 2.45027,2.73087 0.20837,0.0695 0.32381,-0.73772 0.37622,-2.63067 l 0.0756,-2.73087 h 2.24896 2.24896 v 7.13926 7.13926 l -1.05834,0.1935 c -2.33332,0.4266 -2.73404,0.19585 -5.40297,-3.11126 -1.34332,-1.66451 -2.55242,-3.02639 -2.6869,-3.02639 -0.13472,0 -0.2445,1.29982 -0.2445,2.89481 0,1.59214 -0.0893,2.94781 -0.19844,3.0126 -0.36328,0.21566 -3.3673,0.42215 -3.77031,0.25917 z"
         id="path5" /><path
         style="fill:#cccccc"
         d="m 138.49237,191.05618 c -1.5763,-0.40635 -3.34659,-1.7779 -4.27766,-3.31417 -0.83244,-1.37351 -0.88639,-1.60775 -0.87939,-3.8184 0.006,-1.83538 0.12619,-2.58786 0.54549,-3.40975 0.83792,-1.64247 1.83638,-2.67796 3.30976,-3.43254 1.90729,-0.97679 5.0192,-1.02186 6.98505,-0.10117 1.50936,0.70691 1.78834,1.11691 1.33676,1.96457 -0.46047,0.86436 -1.64471,2.29592 -1.89928,2.29593 -0.12306,0 -0.57492,-0.25005 -1.00414,-0.55568 -1.2618,-0.89848 -2.45532,-0.77938 -3.59327,0.35858 -0.91949,0.91948 -0.96661,1.05277 -0.96661,2.73401 0,1.69769 0.0383,1.80253 0.97176,2.65796 1.15567,1.05909 2.43226,1.1797 3.93896,0.37216 l 0.96722,-0.5184 0.91998,1.01832 c 1.64362,1.81929 1.55952,2.30568 -0.57819,3.34414 -1.0124,0.4918 -4.49238,0.73545 -5.77644,0.40444 z m 27.10206,-0.034 c -1.07657,-0.27019 -2.25562,-0.92078 -2.75551,-1.52046 -0.24787,-0.29735 -0.14741,-0.64321 0.48571,-1.67216 0.75769,-1.2314 1.33185,-1.59419 1.66637,-1.05292 0.26591,0.43024 2.79301,1.13533 3.46481,0.96672 0.46199,-0.11595 0.64874,-0.34467 0.64874,-0.79455 0,-0.53877 -0.30172,-0.75625 -2.05053,-1.478 -1.12778,-0.46545 -2.32972,-1.10164 -2.67097,-1.41375 -2.18621,-1.99957 -1.65935,-5.50895 1.05753,-7.044 0.98926,-0.55894 1.48402,-0.64906 3.53167,-0.64331 1.93354,0.005 2.59268,0.11676 3.50573,0.59208 1.09829,0.57174 1.41864,1.15534 0.8329,1.51735 -0.16037,0.0991 -0.45962,0.58239 -0.66501,1.07395 -0.39564,0.9469 -1.00609,1.13637 -1.98073,0.61476 -0.79222,-0.42399 -2.61246,-0.42417 -2.87444,-2.9e-4 -0.40968,0.66289 0.005,1.00796 2.20961,1.84016 2.96,1.11717 3.68017,1.88724 3.80265,4.06609 0.11492,2.0445 -0.40668,3.17006 -1.97655,4.26519 -0.96319,0.67191 -1.3945,0.7881 -3.175,0.85539 -1.13323,0.0428 -2.50887,-0.0347 -3.05698,-0.17225 z m -62.83843,-7.19151 0.0704,-7.22026 h 2.24896 2.24896 l 0.13229,2.51354 0.13229,2.51354 h 1.85208 1.85209 l 0.0757,-2.57968 0.0757,-2.57969 h 2.21107 c 1.77213,0 2.24295,0.0831 2.37167,0.41851 0.20954,0.54605 0.20954,13.16901 0,13.71506 -0.12879,0.33563 -0.60038,0.41851 -2.38125,0.41851 h -2.22065 v -2.21656 c 0,-2.67931 -0.15761,-2.86892 -2.29278,-2.75825 l -1.54368,0.08 -0.13229,2.38125 -0.13229,2.38125 -2.31938,0.0765 -2.31937,0.0765 z m 15.18051,6.98161 c -0.151,-0.24432 0.40838,-2.08223 1.82608,-5.99979 0.52662,-1.4552 1.31995,-3.71739 1.76295,-5.02708 1.22136,-3.61077 0.88827,-3.33731 3.95898,-3.25025 l 2.65371,0.0752 1.7878,5.29167 c 0.98329,2.91041 2.04493,6.03205 2.3592,6.93696 0.31427,0.90492 0.5714,1.76812 0.5714,1.91823 0,0.16606 -0.8786,0.27293 -2.24386,0.27293 h -2.24385 l -0.60042,-1.25677 -0.60041,-1.25677 h -1.98438 -1.98437 l -0.60042,1.25677 -0.60041,1.25677 h -1.96366 c -1.08001,0 -2.02427,-0.0981 -2.09834,-0.21792 z m 7.97967,-7.20599 c -0.23281,-2.42282 -1.09562,-2.45372 -1.4117,-0.0506 l -0.18269,1.38907 h 0.8615 0.8615 z m 22.40981,7.09961 c -0.073,-0.19022 -0.10088,-3.43952 -0.062,-7.22067 l 0.0707,-6.87482 h 2.24896 2.24896 l 0.0807,1.5875 c 0.0444,0.87313 0.17891,1.68632 0.29898,1.8071 0.12007,0.12079 0.79259,-0.53406 1.49449,-1.4552 0.7019,-0.92115 1.40079,-1.76229 1.5531,-1.8692 0.45323,-0.31814 5.17172,-0.24251 5.17172,0.0829 0,0.15696 -0.74414,1.17842 -1.65365,2.26991 -2.8767,3.4523 -2.79244,3.04988 -1.21367,5.79692 0.74706,1.29988 1.5757,2.7206 1.84143,3.15716 1.05723,1.73694 1.52455,2.72044 1.36733,2.87766 -0.0908,0.0908 -1.26798,0.16505 -2.616,0.16505 h -2.45095 l -1.37852,-2.38857 c -0.75819,-1.31371 -1.4674,-2.4435 -1.57602,-2.51063 -0.45907,-0.28372 -0.76742,0.69298 -0.84067,2.66278 l -0.0782,2.10413 -2.18698,0.0769 c -1.61329,0.0567 -2.2218,-0.0138 -2.3197,-0.26892 z m -106.271872,-4.502 c -1.128468,-0.52792 -2.330824,-2.24083 -2.330824,-3.32055 0,-1.9652 3.559139,-6.66977 5.04587,-6.66977 1.449122,0 3.685381,2.15428 3.685381,3.55028 0,0.90357 -1.622604,4.55892 -2.447932,5.51462 -0.696466,0.80648 -1.085047,1.02006 -2.049985,1.12678 -0.686266,0.0759 -1.492186,-0.009 -1.90251,-0.20136 z m 8.139117,-13.31652 c -0.528872,-0.52887 -0.527855,-0.88074 0.0031,-1.0845 0.504828,-0.19372 1.576477,0.78977 1.317377,1.20901 -0.256354,0.41479 -0.835858,0.36015 -1.320512,-0.12451 z m -7.132963,-1.36998 c -0.762217,-0.54232 -1.468321,-0.77049 -2.774981,-0.89669 -4.767586,-0.46047 -8.038787,-2.83566 -10.299404,-7.47831 -0.710088,-1.45831 -1.395121,-2.43471 -2.145435,-3.05796 -2.146569,-1.78304 -3.992158,-4.70459 -3.992158,-6.31955 0,-1.14038 0.620303,-1.49903 2.554269,-1.47685 1.741469,0.02 1.835084,-0.0243 1.424396,-0.67373 -0.29895,-0.47273 0.110477,-0.79088 1.025255,-0.79668 1.001646,-0.006 2.945527,-1.42521 4.353869,-3.17792 0.708399,-0.88161 1.814854,-1.91169 2.45879,-2.28906 1.163746,-0.682 1.824773,-0.72786 4.437792,-0.30786 0.417484,0.0671 0.600366,-0.20996 0.993585,-1.50526 0.703989,-2.319 1.987399,-3.26394 3.403631,-2.506 0.566403,0.30313 2.194436,2.72442 2.499686,3.71765 0.418515,1.36178 0.813615,1.51374 2.626828,1.01032 0.692499,-0.19227 1.501504,-0.7694 2.423243,-1.7287 l 1.383686,-1.44008 0.296372,1.38193 c 0.164778,0.76834 0.220299,2.05432 0.125044,2.89627 l -0.171328,1.51434 1.069793,0.70795 c 0.685671,0.45376 1.221162,1.08627 1.491363,1.76157 0.396139,0.99005 0.390259,1.12439 -0.09747,2.22699 -0.457146,1.03346 -0.61942,1.17339 -1.360745,1.17339 -0.815359,0 -0.835272,0.0269 -0.63628,0.85989 0.112982,0.47295 0.227403,2.11006 0.25427,3.63802 0.02687,1.52797 0.13506,3.26456 0.240429,3.85908 0.180174,1.01659 0.137009,1.12257 -0.724989,1.78005 -2.122984,1.61927 -3.078112,1.58527 -5.867054,-0.2089 -1.009952,-0.64971 -1.933786,-1.08379 -2.052964,-0.96461 -0.119179,0.11918 0.08674,1.02282 0.457589,2.00808 0.849631,2.25726 0.847483,3.17416 -0.01124,4.79784 -1.302889,2.46351 -1.7481,2.66006 -3.38584,1.49479 z m 11.513812,-1.63274 c -0.560413,-0.34635 -0.253312,-1.46395 0.428898,-1.56084 0.478213,-0.0679 0.595313,0.0428 0.595313,0.56291 0,0.77001 -0.540652,1.29679 -1.024211,0.99793 z M 134.841,166.33762 c -3.36587,-1.11305 -5.15937,-3.57329 -5.15937,-7.07737 0,-3.04945 1.68693,-5.70261 4.46358,-7.02022 1.26709,-0.60127 5.3715,-0.63301 6.68585,-0.0517 1.41905,0.62763 3.08371,2.24506 3.87784,3.76783 1.32461,2.54 0.74551,6.54923 -1.21036,8.37952 -1.63016,1.52548 -3.11552,2.14158 -5.42429,2.24988 -1.36333,0.064 -2.56984,-0.0286 -3.23325,-0.24794 z m 4.67742,-4.32448 c 1.58219,-1.51583 1.62943,-3.80654 0.11267,-5.46246 -0.77067,-0.84137 -1.05254,-0.97461 -2.06189,-0.97461 -0.98815,0 -1.30772,0.14294 -2.06389,0.9231 -0.7628,0.78701 -0.91042,1.14782 -1.00136,2.4474 -0.0892,1.27536 -0.004,1.6749 0.52002,2.44648 1.19797,1.7629 3.03681,2.0166 4.49445,0.62009 z m 28.82927,4.38889 c -4.32541,-1.32761 -6.36341,-6.6901 -4.11357,-10.82381 1.43544,-2.63737 3.42254,-3.77881 6.61349,-3.79898 1.78942,-0.0113 2.37366,0.0973 3.42059,0.63611 1.72557,0.88801 1.9566,1.31774 1.22047,2.27021 -0.3223,0.41702 -0.80743,1.05455 -1.07805,1.41674 l -0.49205,0.65851 -1.05397,-0.59237 c -1.23315,-0.69307 -2.16269,-0.74788 -3.23955,-0.19101 -1.754,0.90703 -2.14974,3.75823 -0.78343,5.64436 0.75438,1.04139 0.86538,1.09803 2.15158,1.09803 0.88167,0 1.64756,-0.18008 2.18897,-0.51469 0.45803,-0.28308 0.95619,-0.4319 1.10702,-0.33073 0.53676,0.36007 2.00247,2.73204 1.88207,3.04579 -0.0674,0.17554 -0.68393,0.59958 -1.37016,0.9423 -1.4251,0.71173 -4.93606,1.00526 -6.45341,0.53954 z m 14.02292,-0.017 c -2.5038,-0.72051 -4.29208,-2.6427 -4.94776,-5.31826 -0.73354,-2.99327 0.008,-5.40491 2.30003,-7.47517 1.57759,-1.42526 2.64233,-1.78291 5.38896,-1.81017 2.1588,-0.0214 2.51362,0.0488 3.79824,0.75215 4.50898,2.46861 5.34993,8.54226 1.67274,12.08115 -0.8939,0.86027 -1.70971,1.36053 -2.69671,1.65364 -1.55424,0.46156 -4.12778,0.51599 -5.5155,0.11666 z m 4.77756,-4.45877 c 1.37978,-1.49016 1.29799,-3.99478 -0.17866,-5.47143 -1.18927,-1.18927 -2.64778,-1.22912 -3.90402,-0.10667 -0.8303,0.74187 -0.86407,0.84962 -0.86407,2.75681 0,1.7509 0.0779,2.06862 0.66146,2.69647 0.3638,0.39144 0.89958,0.81408 1.19062,0.9392 0.90271,0.38806 2.32879,0.0128 3.09467,-0.81438 z m -127.617435,3.86631 c -0.967134,-0.85206 -1.286607,-1.54032 -1.286607,-2.77183 0,-1.31932 0.280648,-1.59871 2.946004,-2.93276 1.820926,-0.9114 2.391168,-1.07228 3.800721,-1.07228 1.59483,0 1.694452,0.0399 2.600245,1.04255 1.877562,2.07823 1.496259,4.62418 -0.873632,5.83321 -0.85026,0.43377 -1.548991,0.53102 -3.766443,0.52421 -2.465792,-0.008 -2.788318,-0.0663 -3.420288,-0.6231 z m 43.225285,-6.57843 0.0704,-7.2099 4.06575,-0.0732 c 3.97302,-0.0715 4.09276,-0.0574 5.24957,0.62056 1.22992,0.72078 1.92947,1.86699 1.92947,3.16145 0,0.79574 -0.7044,2.28223 -1.22647,2.58819 -0.56151,0.32908 -0.42681,0.86413 0.30104,1.19576 1.58614,0.7227 2.20107,3.30674 1.18004,4.9588 -1.01568,1.6434 -2.20751,1.96823 -7.22156,1.96823 h -4.41864 z m 6.35114,4.02184 c 1.29115,-0.35858 1.71588,-1.11062 1.13121,-2.00294 -0.37354,-0.57009 -0.59609,-0.64695 -1.67245,-0.57757 l -1.24158,0.08 -0.0833,1.1644 c -0.0538,0.75246 0.0398,1.24245 0.26458,1.38501 0.43925,0.27854 0.42035,0.27912 1.60155,-0.0489 z m 0.46614,-5.80778 c 0.63003,-0.63003 0.67127,-1.14301 0.13501,-1.67927 -0.4603,-0.46031 -1.85293,-0.81613 -2.24523,-0.57368 -0.29842,0.18443 -0.37614,2.32423 -0.0947,2.60573 0.36778,0.36777 1.69699,0.1551 2.20487,-0.35278 z m 7.26744,8.67196 c -0.0731,-0.19045 -0.10105,-3.43995 -0.0621,-7.2211 l 0.0707,-6.87482 h 4.23333 c 3.90198,0 4.30661,0.0456 5.16945,0.58224 2.1579,1.34215 2.72297,4.08502 1.28791,6.25157 -0.45028,0.67979 -0.91379,1.23598 -1.03003,1.23598 -0.42961,0 -0.53271,0.88418 -0.15213,1.30472 0.21624,0.23894 0.58283,0.8468 0.81465,1.3508 0.23181,0.504 0.71064,1.39261 1.06407,1.97469 1.00761,1.65952 0.94812,1.71979 -1.69756,1.71979 -1.55735,0 -2.44069,-0.11145 -2.62139,-0.33073 -0.14989,-0.1819 -0.70509,-1.19393 -1.23378,-2.24896 -0.52869,-1.05502 -1.07065,-1.91823 -1.20437,-1.91823 -0.13372,0 -0.27771,0.98227 -0.31997,2.18282 l -0.0769,2.18281 -2.05453,0.0773 c -1.50595,0.0567 -2.09,-0.0151 -2.1874,-0.26893 z m 6.69931,-8.61838 c 0.50402,-0.66068 0.28412,-1.43759 -0.53687,-1.89682 -0.54971,-0.30749 -0.83797,-0.3352 -1.19062,-0.11445 -0.56692,0.35487 -0.75676,1.84398 -0.30455,2.38886 0.4008,0.48294 1.53657,0.2719 2.03204,-0.37759 z m 23.99236,8.61838 c -0.0731,-0.19045 -0.10105,-3.43995 -0.0621,-7.2211 l 0.0707,-6.87482 2.01813,-0.0767 c 2.29149,-0.0871 1.68337,-0.53059 4.96747,3.62288 0.93167,1.17829 1.79084,2.14235 1.90928,2.14235 0.11844,0 0.24914,-1.27992 0.29044,-2.84427 l 0.0751,-2.84427 h 2.24896 2.24896 v 7.14375 7.14375 h -1.97711 -1.9771 l -2.3546,-2.91042 c -1.29503,-1.60073 -2.51472,-2.94814 -2.71042,-2.99426 -0.27875,-0.0657 -0.37206,0.56467 -0.4308,2.91042 l -0.075,2.99426 -2.05453,0.0773 c -1.50596,0.0567 -2.09,-0.0151 -2.1874,-0.26893 z"
         id="path4" /><path
         style="fill:#5e5d59"
         d="m 138.49237,191.05618 c -1.5763,-0.40635 -3.34659,-1.7779 -4.27766,-3.31417 -0.83244,-1.37351 -0.88639,-1.60775 -0.87939,-3.8184 0.006,-1.83538 0.12619,-2.58786 0.54549,-3.40975 0.83792,-1.64247 1.83638,-2.67796 3.30976,-3.43254 1.90729,-0.97679 5.0192,-1.02186 6.98505,-0.10117 1.50936,0.70691 1.78834,1.11691 1.33676,1.96457 -0.46047,0.86436 -1.64471,2.29592 -1.89928,2.29593 -0.12306,0 -0.57492,-0.25005 -1.00414,-0.55568 -1.2618,-0.89848 -2.45532,-0.77938 -3.59327,0.35858 -0.91949,0.91948 -0.96661,1.05277 -0.96661,2.73401 0,1.69769 0.0383,1.80253 0.97176,2.65796 1.15567,1.05909 2.43226,1.1797 3.93896,0.37216 l 0.96722,-0.5184 0.91998,1.01832 c 1.64362,1.81929 1.55952,2.30568 -0.57819,3.34414 -1.0124,0.4918 -4.49238,0.73545 -5.77644,0.40444 z m 27.10206,-0.034 c -1.07657,-0.27019 -2.25562,-0.92078 -2.75551,-1.52046 -0.24787,-0.29735 -0.14741,-0.64321 0.48571,-1.67216 0.75769,-1.2314 1.33185,-1.59419 1.66637,-1.05292 0.26591,0.43024 2.79301,1.13533 3.46481,0.96672 0.46199,-0.11595 0.64874,-0.34467 0.64874,-0.79455 0,-0.53877 -0.30172,-0.75625 -2.05053,-1.478 -1.12778,-0.46545 -2.32972,-1.10164 -2.67097,-1.41375 -2.18621,-1.99957 -1.65935,-5.50895 1.05753,-7.044 0.98926,-0.55894 1.48402,-0.64906 3.53167,-0.64331 1.93354,0.005 2.59268,0.11676 3.50573,0.59208 1.09829,0.57174 1.41864,1.15534 0.8329,1.51735 -0.16037,0.0991 -0.45962,0.58239 -0.66501,1.07395 -0.39564,0.9469 -1.00609,1.13637 -1.98073,0.61476 -0.79222,-0.42399 -2.61246,-0.42417 -2.87444,-2.9e-4 -0.40968,0.66289 0.005,1.00796 2.20961,1.84016 2.96,1.11717 3.68017,1.88724 3.80265,4.06609 0.11492,2.0445 -0.40668,3.17006 -1.97655,4.26519 -0.96319,0.67191 -1.3945,0.7881 -3.175,0.85539 -1.13323,0.0428 -2.50887,-0.0347 -3.05698,-0.17225 z m -62.83843,-7.19151 0.0704,-7.22026 h 2.24896 2.24896 l 0.13229,2.51354 0.13229,2.51354 h 1.85208 1.85209 l 0.0757,-2.57968 0.0757,-2.57969 h 2.21107 c 1.77213,0 2.24295,0.0831 2.37167,0.41851 0.20954,0.54605 0.20954,13.16901 0,13.71506 -0.12879,0.33563 -0.60038,0.41851 -2.38125,0.41851 h -2.22065 v -2.21656 c 0,-2.67931 -0.15761,-2.86892 -2.29278,-2.75825 l -1.54368,0.08 -0.13229,2.38125 -0.13229,2.38125 -2.31938,0.0765 -2.31937,0.0765 z m 15.18051,6.98161 c -0.151,-0.24432 0.40838,-2.08223 1.82608,-5.99979 0.52662,-1.4552 1.31995,-3.71739 1.76295,-5.02708 1.22136,-3.61077 0.88827,-3.33731 3.95898,-3.25025 l 2.65371,0.0752 1.7878,5.29167 c 0.98329,2.91041 2.04493,6.03205 2.3592,6.93696 0.31427,0.90492 0.5714,1.76812 0.5714,1.91823 0,0.16606 -0.8786,0.27293 -2.24386,0.27293 h -2.24385 l -0.60042,-1.25677 -0.60041,-1.25677 h -1.98438 -1.98437 l -0.60042,1.25677 -0.60041,1.25677 h -1.96366 c -1.08001,0 -2.02427,-0.0981 -2.09834,-0.21792 z m 7.97967,-7.20599 c -0.23281,-2.42282 -1.09562,-2.45372 -1.4117,-0.0506 l -0.18269,1.38907 h 0.8615 0.8615 z m 22.40981,7.09961 c -0.073,-0.19022 -0.10088,-3.43952 -0.062,-7.22067 l 0.0707,-6.87482 h 2.24896 2.24896 l 0.0807,1.5875 c 0.0444,0.87313 0.17891,1.68632 0.29898,1.8071 0.12007,0.12079 0.79259,-0.53406 1.49449,-1.4552 0.7019,-0.92115 1.40079,-1.76229 1.5531,-1.8692 0.45323,-0.31814 5.17172,-0.24251 5.17172,0.0829 0,0.15696 -0.74414,1.17842 -1.65365,2.26991 -2.8767,3.4523 -2.79244,3.04988 -1.21367,5.79692 0.74706,1.29988 1.5757,2.7206 1.84143,3.15716 1.05723,1.73694 1.52455,2.72044 1.36733,2.87766 -0.0908,0.0908 -1.26798,0.16505 -2.616,0.16505 h -2.45095 l -1.37852,-2.38857 c -0.75819,-1.31371 -1.4674,-2.4435 -1.57602,-2.51063 -0.45907,-0.28372 -0.76742,0.69298 -0.84067,2.66278 l -0.0782,2.10413 -2.18698,0.0769 c -1.61329,0.0567 -2.2218,-0.0138 -2.3197,-0.26892 z m -106.271872,-4.502 c -1.128468,-0.52792 -2.330824,-2.24083 -2.330824,-3.32055 0,-1.9652 3.559139,-6.66977 5.04587,-6.66977 1.449122,0 3.685381,2.15428 3.685381,3.55028 0,0.90357 -1.622604,4.55892 -2.447932,5.51462 -0.696466,0.80648 -1.085047,1.02006 -2.049985,1.12678 -0.686266,0.0759 -1.492186,-0.009 -1.90251,-0.20136 z m 8.079228,-13.57361 c -0.08617,-0.22456 -0.07672,-0.48824 0.02099,-0.58596 0.216698,-0.21669 1.007361,0.25217 1.150776,0.68242 0.156775,0.47032 -0.990516,0.37588 -1.17177,-0.0965 z m -8.822552,-2.15658 c -1.080276,-0.38608 -1.420054,-2.05285 -0.574479,-2.81809 0.650592,-0.58877 1.518566,-0.55213 2.161979,0.0913 0.707845,0.70784 0.667113,1.47361 -0.120265,2.26098 -0.668773,0.66878 -0.790879,0.70754 -1.467235,0.46582 z m 13.331283,-0.99024 c -0.208459,-0.54324 0.08514,-1.28642 0.425182,-1.07626 0.146549,0.0906 0.266452,0.38875 0.266452,0.66261 0,0.65184 -0.488191,0.94381 -0.691634,0.41365 z M 134.841,166.33762 c -3.36587,-1.11305 -5.15937,-3.57329 -5.15937,-7.07737 0,-3.04945 1.68693,-5.70261 4.46358,-7.02022 1.26709,-0.60127 5.3715,-0.63301 6.68585,-0.0517 1.41905,0.62763 3.08371,2.24506 3.87784,3.76783 1.32461,2.54 0.74551,6.54923 -1.21036,8.37952 -1.63016,1.52548 -3.11552,2.14158 -5.42429,2.24988 -1.36333,0.064 -2.56984,-0.0286 -3.23325,-0.24794 z m 4.67742,-4.32448 c 1.58219,-1.51583 1.62943,-3.80654 0.11267,-5.46246 -0.77067,-0.84137 -1.05254,-0.97461 -2.06189,-0.97461 -0.98815,0 -1.30772,0.14294 -2.06389,0.9231 -0.7628,0.78701 -0.91042,1.14782 -1.00136,2.4474 -0.0892,1.27536 -0.004,1.6749 0.52002,2.44648 1.19797,1.7629 3.03681,2.0166 4.49445,0.62009 z m 28.82927,4.38889 c -4.32541,-1.32761 -6.36341,-6.6901 -4.11357,-10.82381 1.43544,-2.63737 3.42254,-3.77881 6.61349,-3.79898 1.78942,-0.0113 2.37366,0.0973 3.42059,0.63611 1.72557,0.88801 1.9566,1.31774 1.22047,2.27021 -0.3223,0.41702 -0.80743,1.05455 -1.07805,1.41674 l -0.49205,0.65851 -1.05397,-0.59237 c -1.23315,-0.69307 -2.16269,-0.74788 -3.23955,-0.19101 -1.754,0.90703 -2.14974,3.75823 -0.78343,5.64436 0.75438,1.04139 0.86538,1.09803 2.15158,1.09803 0.88167,0 1.64756,-0.18008 2.18897,-0.51469 0.45803,-0.28308 0.95619,-0.4319 1.10702,-0.33073 0.53676,0.36007 2.00247,2.73204 1.88207,3.04579 -0.0674,0.17554 -0.68393,0.59958 -1.37016,0.9423 -1.4251,0.71173 -4.93606,1.00526 -6.45341,0.53954 z m 14.02292,-0.017 c -2.5038,-0.72051 -4.29208,-2.6427 -4.94776,-5.31826 -0.73354,-2.99327 0.008,-5.40491 2.30003,-7.47517 1.57759,-1.42526 2.64233,-1.78291 5.38896,-1.81017 2.1588,-0.0214 2.51362,0.0488 3.79824,0.75215 4.50898,2.46861 5.34993,8.54226 1.67274,12.08115 -0.8939,0.86027 -1.70971,1.36053 -2.69671,1.65364 -1.55424,0.46156 -4.12778,0.51599 -5.5155,0.11666 z m 4.77756,-4.45877 c 1.37978,-1.49016 1.29799,-3.99478 -0.17866,-5.47143 -1.18927,-1.18927 -2.64778,-1.22912 -3.90402,-0.10667 -0.8303,0.74187 -0.86407,0.84962 -0.86407,2.75681 0,1.7509 0.0779,2.06862 0.66146,2.69647 0.3638,0.39144 0.89958,0.81408 1.19062,0.9392 0.90271,0.38806 2.32879,0.0128 3.09467,-0.81438 z m -127.617435,3.86631 c -0.967134,-0.85206 -1.286607,-1.54032 -1.286607,-2.77183 0,-1.31932 0.280648,-1.59871 2.946004,-2.93276 1.820926,-0.9114 2.391168,-1.07228 3.800721,-1.07228 1.59483,0 1.694452,0.0399 2.600245,1.04255 1.877562,2.07823 1.496259,4.62418 -0.873632,5.83321 -0.85026,0.43377 -1.548991,0.53102 -3.766443,0.52421 -2.465792,-0.008 -2.788318,-0.0663 -3.420288,-0.6231 z m 43.225285,-6.57843 0.0704,-7.2099 4.06575,-0.0732 c 3.97302,-0.0715 4.09276,-0.0574 5.24957,0.62056 1.22992,0.72078 1.92947,1.86699 1.92947,3.16145 0,0.79574 -0.7044,2.28223 -1.22647,2.58819 -0.56151,0.32908 -0.42681,0.86413 0.30104,1.19576 1.58614,0.7227 2.20107,3.30674 1.18004,4.9588 -1.01568,1.6434 -2.20751,1.96823 -7.22156,1.96823 h -4.41864 z m 6.35114,4.02184 c 1.29115,-0.35858 1.71588,-1.11062 1.13121,-2.00294 -0.37354,-0.57009 -0.59609,-0.64695 -1.67245,-0.57757 l -1.24158,0.08 -0.0833,1.1644 c -0.0538,0.75246 0.0398,1.24245 0.26458,1.38501 0.43925,0.27854 0.42035,0.27912 1.60155,-0.0489 z m 0.46614,-5.80778 c 0.63003,-0.63003 0.67127,-1.14301 0.13501,-1.67927 -0.4603,-0.46031 -1.85293,-0.81613 -2.24523,-0.57368 -0.29842,0.18443 -0.37614,2.32423 -0.0947,2.60573 0.36778,0.36777 1.69699,0.1551 2.20487,-0.35278 z m 7.26744,8.67196 c -0.0731,-0.19045 -0.10105,-3.43995 -0.0621,-7.2211 l 0.0707,-6.87482 h 4.23333 c 3.90198,0 4.30661,0.0456 5.16945,0.58224 2.1579,1.34215 2.72297,4.08502 1.28791,6.25157 -0.45028,0.67979 -0.91379,1.23598 -1.03003,1.23598 -0.42961,0 -0.53271,0.88418 -0.15213,1.30472 0.21624,0.23894 0.58283,0.8468 0.81465,1.3508 0.23181,0.504 0.71064,1.39261 1.06407,1.97469 1.00761,1.65952 0.94812,1.71979 -1.69756,1.71979 -1.55735,0 -2.44069,-0.11145 -2.62139,-0.33073 -0.14989,-0.1819 -0.70509,-1.19393 -1.23378,-2.24896 -0.52869,-1.05502 -1.07065,-1.91823 -1.20437,-1.91823 -0.13372,0 -0.27771,0.98227 -0.31997,2.18282 l -0.0769,2.18281 -2.05453,0.0773 c -1.50595,0.0567 -2.09,-0.0151 -2.1874,-0.26893 z m 6.69931,-8.61838 c 0.50402,-0.66068 0.28412,-1.43759 -0.53687,-1.89682 -0.54971,-0.30749 -0.83797,-0.3352 -1.19062,-0.11445 -0.56692,0.35487 -0.75676,1.84398 -0.30455,2.38886 0.4008,0.48294 1.53657,0.2719 2.03204,-0.37759 z m 23.99236,8.61838 c -0.0731,-0.19045 -0.10105,-3.43995 -0.0621,-7.2211 l 0.0707,-6.87482 2.01813,-0.0767 c 2.29149,-0.0871 1.68337,-0.53059 4.96747,3.62288 0.93167,1.17829 1.79084,2.14235 1.90928,2.14235 0.11844,0 0.24914,-1.27992 0.29044,-2.84427 l 0.0751,-2.84427 h 2.24896 2.24896 v 7.14375 7.14375 h -1.97711 -1.9771 l -2.3546,-2.91042 c -1.29503,-1.60073 -2.51472,-2.94814 -2.71042,-2.99426 -0.27875,-0.0657 -0.37206,0.56467 -0.4308,2.91042 l -0.075,2.99426 -2.05453,0.0773 c -1.50596,0.0567 -2.09,-0.0151 -2.1874,-0.26893 z m -96.523317,-5.18707 c -0.963924,-1.06512 -0.282669,-2.69114 1.12751,-2.69114 1.479871,0 2.197042,1.93979 1.02157,2.76312 -0.782781,0.54828 -1.612915,0.52048 -2.14908,-0.072 z m -16.728958,-1.9194 c -0.447123,-0.12835 -1.067632,-0.50334 -1.37891,-0.83329 -2.429261,-2.57499 -3.103053,-3.40988 -3.687134,-4.56866 -0.366746,-0.7276 -0.902326,-1.5468 -1.190177,-1.82043 -0.602352,-0.57259 -0.27748,-0.94663 0.8283,-0.95364 0.993378,-0.006 2.947145,-1.41941 4.256497,-3.0786 2.200937,-2.78899 4.228285,-3.56179 6.783691,-2.58587 0.923466,0.35267 1.204777,0.6387 1.653088,1.68083 0.297136,0.69071 0.67979,1.83892 0.850343,2.55157 0.170553,0.71265 0.354488,1.45718 0.408744,1.65452 0.06606,0.24026 0.316349,0.30415 0.757641,0.19339 0.591466,-0.14845 0.658993,-0.0849 0.658993,0.62037 0,3.55408 -2.187583,5.98419 -5.688542,6.31921 -0.727604,0.0696 -1.561041,0.2753 -1.852083,0.45705 -0.820806,0.51258 -1.515066,0.61773 -2.400451,0.36355 z m 18.655877,-5.86497 c -0.447434,-0.61846 -1.562332,-1.89839 -2.477551,-2.84427 -1.833451,-1.89489 -3.046394,-3.90089 -2.474977,-4.0932 0.186323,-0.0627 0.864607,-0.24888 1.507298,-0.41372 0.860979,-0.22082 1.533579,-0.67963 2.555535,-1.74324 l 1.387007,-1.44353 0.296372,1.38193 c 0.164778,0.76834 0.220299,2.05432 0.125044,2.89627 l -0.171328,1.51434 1.069793,0.70795 c 0.685671,0.45376 1.221162,1.08627 1.491363,1.76157 0.396139,0.99005 0.390259,1.12439 -0.09747,2.22699 -0.473442,1.0703 -0.601566,1.17339 -1.458304,1.17339 -0.801012,0 -1.059,-0.16551 -1.752778,-1.12448 z"
         id="path3" /><path
         style="fill:#0c0b08"
         d="m 138.50765,190.79317 c -1.72873,-0.44411 -3.16811,-1.63066 -4.32849,-3.56821 -0.52086,-0.8697 -0.61351,-1.3792 -0.60439,-3.32389 0.0153,-3.26497 1.12015,-5.27578 3.59774,-6.54793 1.16212,-0.59671 1.7176,-0.70633 3.62162,-0.71469 1.81893,-0.008 2.46054,0.10149 3.35548,0.57259 1.45185,0.76425 1.58224,1.03382 0.90604,1.87322 -0.31067,0.38565 -0.70134,0.96908 -0.86816,1.2965 -0.36964,0.72552 -0.68122,0.73889 -1.54128,0.0661 -1.67411,-1.30951 -4.3518,-0.12926 -4.75902,2.09764 -0.50753,2.77547 0.55383,4.73041 2.69949,4.97226 0.93798,0.10572 1.4963,0.007 2.28369,-0.40329 l 1.04219,-0.54322 0.52244,0.57633 c 0.87675,0.96719 1.44114,1.99318 1.25877,2.28826 -0.0952,0.154 -0.67098,0.53615 -1.27957,0.84922 -1.20799,0.62141 -4.39874,0.89641 -5.90655,0.50906 z m 27.08678,-0.0355 c -0.99459,-0.24961 -2.2875,-0.9498 -2.61713,-1.41734 -0.14173,-0.20102 0.19782,-0.86943 1.27379,-2.50752 0.0348,-0.053 0.57842,0.15291 1.20797,0.45767 2.29793,1.11241 3.91007,0.96607 3.91007,-0.35493 0,-0.75505 -0.11503,-0.83782 -2.51354,-1.80862 -1.01865,-0.4123 -2.07263,-0.94907 -2.34219,-1.19283 -2.0319,-1.8374 -1.48851,-5.29222 1.05053,-6.67923 1.55086,-0.84719 4.93333,-0.91891 6.65804,-0.14118 1.2671,0.57139 1.32464,0.73548 0.58674,1.67356 -0.29104,0.37 -0.52916,0.84878 -0.52916,1.06395 0,0.30368 -0.19242,0.34902 -0.8599,0.20262 -0.47294,-0.10373 -1.51474,-0.20654 -2.3151,-0.22847 -1.44507,-0.0396 -1.45521,-0.0344 -1.45521,0.74319 0,0.7375 0.13077,0.834 2.24867,1.65937 2.95395,1.15118 3.50406,1.7131 3.64981,3.72812 0.14271,1.97297 -0.4291,3.27409 -1.85303,4.2164 -0.84396,0.55851 -1.40097,0.69631 -3.0675,0.75889 -1.11996,0.0421 -2.48475,-0.0361 -3.03286,-0.17365 z m -62.63572,-7.00343 v -7.01146 h 2.10709 2.10708 l 0.0757,2.57969 0.0757,2.57969 2.01691,0.0767 c 2.37335,0.0902 2.33926,0.13668 2.3451,-3.19666 l 0.004,-2.06165 2.05052,0.0773 2.05052,0.0773 v 6.87917 6.87917 l -2.05052,0.0773 -2.05052,0.0773 v -2.0129 c 0,-2.78134 -0.17679,-3.03644 -2.10433,-3.03644 -2.41917,0 -2.39358,-0.0286 -2.39358,2.67414 v 2.35294 h -2.11667 -2.11667 z m 15.08125,6.92144 c 0,-0.0495 0.36609,-1.15084 0.81353,-2.4474 0.44745,-1.29655 0.97434,-2.83362 1.17088,-3.41571 0.19655,-0.58208 0.90202,-2.60425 1.56772,-4.4937 0.66571,-1.88946 1.21037,-3.47135 1.21037,-3.51531 0,-0.044 1.15763,-0.0459 2.57251,-0.004 l 2.57251,0.0757 1.61119,4.7625 c 0.88615,2.61938 1.93118,5.67547 2.32228,6.79132 0.3911,1.11585 0.7111,2.09812 0.7111,2.18281 0,0.0847 -0.92887,0.154 -2.06416,0.154 h -2.06416 l -0.55891,-1.32292 -0.55892,-1.32291 h -1.95656 c -2.22998,0 -2.65523,0.2263 -3.10737,1.65364 l -0.3143,0.99219 h -1.96385 c -1.08012,0 -1.96386,-0.0405 -1.96386,-0.09 z m 8.15157,-6.30596 c 0.13931,-1.20525 -0.43396,-2.86444 -0.98971,-2.86444 -0.56657,0 -0.70156,0.27448 -0.95009,1.93176 -0.22528,1.50226 -0.0342,1.82379 1.02296,1.72117 0.68339,-0.0663 0.84992,-0.20954 0.91684,-0.78849 z m 22.27552,-0.61548 v -7.01146 h 2.11666 2.11667 v 1.7281 c 0,1.37206 0.0913,1.76312 0.44305,1.89811 0.28933,0.11102 0.58769,-0.0339 0.8599,-0.41767 0.22926,-0.32322 0.86609,-1.17737 1.41518,-1.89811 l 0.99834,-1.31043 h 2.3751 c 1.3063,0 2.3751,0.0728 2.3751,0.16172 0,0.18333 -1.78944,2.41495 -3.0527,3.80703 -0.46219,0.50932 -0.90898,1.12347 -0.99286,1.36477 -0.0905,0.2604 0.39383,1.38957 1.19167,2.77812 0.7393,1.28667 1.57922,2.75612 1.86647,3.26545 0.28726,0.50932 0.68647,1.16089 0.88714,1.44793 0.73617,1.05302 0.49971,1.1979 -1.95513,1.1979 h -2.31999 l -1.31803,-2.37275 c -1.01394,-1.82532 -1.44885,-2.37471 -1.88504,-2.38125 -0.74526,-0.0112 -0.8882,0.43801 -0.8882,2.79126 v 1.96274 h -2.11667 -2.11666 z m -106.3946,2.03192 c -0.235933,-0.0989 -0.741949,-0.55421 -1.124479,-1.01178 -1.357789,-1.62414 -0.677087,-3.84009 2.040468,-6.64254 1.508152,-1.55526 2.155585,-1.71168 3.554471,-0.85878 0.919023,0.56033 1.382433,1.43042 1.382522,2.5958 9.8e-5,1.27014 -1.159624,4.0308 -2.142224,5.09946 -0.838928,0.9124 -1.089439,1.03268 -2.116667,1.01628 -0.640817,-0.0102 -1.358158,-0.0995 -1.594091,-0.19844 z m 8.36647,-13.27671 c -0.08994,-0.14552 -0.03743,-0.26459 0.116676,-0.26459 0.154109,0 0.280199,0.11907 0.280199,0.26459 0,0.14552 -0.0525,0.26458 -0.116677,0.26458 -0.06417,0 -0.190262,-0.11906 -0.280198,-0.26458 z m -9.657292,-3.175 c -0.389834,-0.72841 0.09881,-1.5875 0.902954,-1.5875 0.831821,0 1.312069,0.63043 1.105925,1.45177 -0.130987,0.5219 -0.334503,0.66489 -0.946278,0.66489 -0.50861,0 -0.877793,-0.18385 -1.062601,-0.52916 z m 94.053832,-3.26198 c -0.58513,-0.19281 -1.41857,-0.5795 -1.85208,-0.85929 -3.74669,-2.41817 -4.125,-8.32397 -0.73071,-11.40727 1.54296,-1.4016 2.58327,-1.75533 5.23417,-1.77974 2.00773,-0.0185 2.56801,0.0752 3.57187,0.59709 1.61505,0.83968 2.57104,1.78348 3.34687,3.30421 1.78456,3.49792 0.5317,7.61359 -2.91189,9.5657 -1.04125,0.59026 -1.69331,0.74744 -3.43959,0.82911 -1.3448,0.0629 -2.55467,-0.031 -3.21864,-0.24981 z m 3.60972,-3.09259 c 0.64663,-0.17961 1.1746,-0.58792 1.62317,-1.2553 1.33109,-1.98033 1.22393,-3.75044 -0.32566,-5.3794 -0.87604,-0.9209 -1.12143,-1.03365 -2.24979,-1.03365 -1.10519,0 -1.37797,0.1182 -2.14172,0.928 -1.54456,1.63772 -1.50666,4.50883 0.0792,6.00257 0.62472,0.58842 0.97246,0.76459 1.92414,0.97476 0.0728,0.0161 0.56354,-0.0906 1.09063,-0.23698 z m 29.92123,3.16245 c -2.03535,-0.6268 -3.49042,-2.0506 -4.31593,-4.22317 -1.35062,-3.55454 0.15259,-7.5444 3.49559,-9.27807 0.93812,-0.48651 1.59664,-0.6039 3.42286,-0.61018 1.99858,-0.007 2.40582,0.077 3.50573,0.72154 0.68446,0.40112 1.24092,0.87311 1.23657,1.04888 -0.004,0.17577 -0.45651,0.83848 -1.00482,1.47271 l -0.99694,1.15312 -0.9134,-0.55682 c -1.14021,-0.6951 -2.25215,-0.7085 -3.34795,-0.0403 -1.09938,0.67033 -1.66649,1.8009 -1.66649,3.32225 0,1.36343 0.27557,2.03578 1.27245,3.1046 0.5635,0.60417 0.9006,0.72761 1.98697,0.72761 0.85762,0 1.61098,-0.18705 2.18687,-0.54297 l 0.87854,-0.54297 0.93207,1.27057 c 0.51263,0.69882 0.93502,1.39568 0.93862,1.54858 0.004,0.15291 -0.55898,0.55394 -1.25021,0.89119 -1.43052,0.69796 -4.88548,0.98774 -6.36053,0.53348 z m 14.0042,-0.0219 c -2.52225,-0.72582 -4.29373,-2.70501 -4.79395,-5.35608 -1.01134,-5.35992 3.18129,-9.50183 8.85575,-8.7486 1.66395,0.22087 3.70445,1.30285 4.55156,2.41346 3.14031,4.11717 1.4962,10.21028 -3.12539,11.58275 -1.53008,0.45438 -4.1088,0.50535 -5.48797,0.10847 z m 3.85409,-3.26143 c 0.86837,-0.24909 1.85678,-1.5695 2.05555,-2.746 0.55241,-3.2697 -2.36378,-5.85373 -4.90925,-4.35008 -1.13456,0.6702 -1.64673,1.9639 -1.51245,3.82033 0.0959,1.3256 0.24256,1.6892 0.9943,2.4648 1.10724,1.14239 1.71054,1.28748 3.37185,0.81095 z m -125.731614,3.0453 c -0.291041,-0.12187 -0.802929,-0.48162 -1.137527,-0.79945 -0.508529,-0.48304 -0.595365,-0.80213 -0.529167,-1.94447 l 0.07919,-1.3666 2.197842,-1.12448 c 1.904413,-0.97435 2.422299,-1.12448 3.879084,-1.12448 1.552595,0 1.733663,0.0623 2.366298,0.81415 1.799863,2.13901 0.990923,4.77922 -1.696349,5.53652 -1.111975,0.31337 -4.418532,0.31901 -5.159375,0.009 z m 42.465624,-6.75635 v -7.01146 h 4.04808 c 3.95198,0 4.0743,0.017 5.15256,0.71616 1.11941,0.72584 1.64814,1.6769 1.64629,2.96134 -8.8e-4,0.61234 -0.36183,1.32953 -1.36025,2.70273 -0.25888,0.35606 -0.10548,0.62357 0.92223,1.60829 1.11704,1.07031 1.23276,1.29531 1.23276,2.39687 0,0.93509 -0.16509,1.41187 -0.71525,2.0657 -1.16544,1.38505 -1.95977,1.57183 -6.68459,1.57183 h -4.24183 z m 6.11908,4.36562 c 0.76711,0 1.8139,-1.15077 1.64261,-1.80577 -0.26169,-1.00071 -0.9932,-1.40674 -2.37585,-1.31872 l -1.2848,0.0818 -0.083,1.31415 c -0.087,1.37797 0.43123,2.16994 1.22151,1.86668 0.19798,-0.076 0.59376,-0.13813 0.87951,-0.13813 z m 0.63982,-5.94109 c 0.71743,-0.71743 0.77844,-0.99639 0.38053,-1.73989 -0.37999,-0.71002 -2.22705,-1.23945 -2.76541,-0.79265 -0.48778,0.40483 -0.54902,2.40322 -0.0878,2.86447 0.53392,0.53392 1.77316,0.36756 2.47265,-0.33193 z m 7.26402,1.57547 v -7.01146 h 3.88521 c 3.34452,0 4.03735,0.0736 4.97838,0.52919 1.34604,0.65161 2.24891,2.1336 2.24891,3.69142 0,1.33251 -0.29202,1.94819 -1.54626,3.26008 -0.88285,0.92344 -0.92641,1.04264 -0.58008,1.5875 0.20594,0.32401 0.63174,1.06535 0.94622,1.64744 0.31449,0.58208 0.82729,1.47505 1.13955,1.98437 0.31227,0.50932 0.5682,1.01534 0.56875,1.12448 5.4e-4,0.10914 -1.01191,0.19844 -2.2499,0.19844 h -2.25089 l -1.11537,-2.24896 c -0.77375,-1.56015 -1.25938,-2.24896 -1.58557,-2.24896 -0.41367,0 -0.4702,0.2704 -0.4702,2.24896 v 2.24896 h -1.98438 -1.98437 z m 6.68073,-1.4958 c 0.88229,-1.0427 0.41233,-2.19201 -1.00508,-2.45791 -1.2746,-0.23912 -1.7069,0.16401 -1.7069,1.59171 0,0.80899 0.1359,1.22611 0.46302,1.42116 0.626,0.37326 1.68456,0.11204 2.24896,-0.55496 z m 24.01094,1.4958 v -7.01146 h 1.82129 c 2.05662,0 1.81094,-0.18751 5.13969,3.92289 0.84537,1.04387 1.70454,1.89794 1.90928,1.89794 0.2922,0 0.3884,-0.61162 0.44735,-2.84427 l 0.0751,-2.84427 h 1.98438 1.98437 v 6.87917 6.87917 l -1.74705,0.0773 -1.74705,0.0774 -2.46137,-3.05391 c -3.24735,-4.02909 -3.43723,-4.02971 -3.43723,-0.0112 v 3.04271 h -1.98438 -1.98437 z m -96.463058,1.35988 c -0.08344,-0.21745 -0.11253,-0.6719 -0.06464,-1.00991 0.06818,-0.48122 0.253023,-0.61455 0.851984,-0.61455 0.942854,0 1.484271,0.71007 1.059129,1.38906 -0.377046,0.60217 -1.643757,0.76366 -1.846471,0.2354 z m -17.643237,-2.42775 c -0.543103,-0.36905 -0.989545,-0.756 -0.992094,-0.8599 -0.0025,-0.10389 -0.614414,-0.84374 -1.359701,-1.64411 -0.745288,-0.80036 -1.573494,-1.96375 -1.840457,-2.5853 -0.266964,-0.62156 -0.686722,-1.20736 -0.932798,-1.30179 -0.314562,-0.12071 -0.06131,-0.28423 0.852903,-0.55071 1.097907,-0.32003 1.712157,-0.80364 3.946145,-3.10683 2.148984,-2.21556 2.832152,-2.76252 3.638021,-2.9127 1.2768,-0.23793 2.621266,0.0193 3.431339,0.65651 0.647246,0.50912 1.640194,3.12821 1.934396,5.10234 0.116028,0.77856 0.290146,1.02584 0.815078,1.15759 0.618058,0.15513 0.654514,0.24843 0.491894,1.25891 -0.266302,1.65474 -0.930032,2.59202 -2.505952,3.53876 -1.094532,0.65754 -1.735615,0.85989 -2.724256,0.85989 -0.892257,0 -1.501348,0.16398 -1.965615,0.52917 -0.893708,0.70299 -1.598374,0.66715 -2.788903,-0.14183 z m 19.727465,-5.33677 c -0.406386,-0.53937 -1.592849,-1.87882 -2.636585,-2.97656 -1.043735,-1.09774 -1.971873,-2.29354 -2.062528,-2.65734 -0.150216,-0.60283 -0.045,-0.704 1.186971,-1.14135 0.769974,-0.27335 1.795895,-0.924 2.383606,-1.51171 0.588642,-0.58864 1.103866,-0.91522 1.199576,-0.76036 0.242191,0.39188 0.252288,3.17435 0.01409,3.88287 -0.16312,0.48521 -0.03609,0.74142 0.655883,1.32292 1.745476,1.4668 2.092265,1.95657 2.083564,2.94262 -0.01822,2.06488 -1.573225,2.55976 -2.824577,0.89891 z"
         id="path2" /></g></g></svg>
