<?xml version="1.0" encoding="UTF-8" standalone="no"?>
<!-- Created with Inkscape (http://www.inkscape.org/) -->

<svg
   width="115.2419mm"
   height="22.342039mm"
   viewBox="0 0 115.2419 22.342039"
   version="1.1"
   id="svg1"
   xml:space="preserve"
   xmlns="http://www.w3.org/2000/svg"
   xmlns:svg="http://www.w3.org/2000/svg"><defs
     id="defs1" /><g
     id="layer1"
     transform="translate(-49.330938,-136.08988)"><g
       id="g1"
       transform="translate(-9.754454,-7.5862549)"
       style="fill:#ffffff"><path
         style="fill:#ffffff"
         d="m 68.564137,165.95386 c -4.35982,-0.47485 -8.173989,-3.9732 -9.246346,-8.48074 -0.312473,-1.31345 -0.309323,-3.96341 0.0063,-5.27605 1.535007,-6.38453 8.017556,-10.0329 14.071268,-7.91929 4.307984,1.5041 7.31068,5.82304 7.305112,10.50735 -0.003,2.55492 -0.929091,5.25034 -2.475502,7.20532 -2.253586,2.849 -5.954033,4.36713 -9.660802,3.96341 z m -0.03044,-8.77597 c 2.072764,-1.50292 3.865019,-2.82826 3.982789,-2.9452 0.184556,-0.18327 -0.01969,-0.21293 -1.478982,-0.21479 -1.26961,-0.002 -1.735314,-0.055 -1.861844,-0.21329 -0.227738,-0.28496 -0.232202,-0.28105 2.952083,-2.58431 l 2.714419,-1.9634 -2.71675,-0.0447 c -1.494212,-0.0246 -2.767697,0.008 -2.829965,0.0723 -0.100262,0.1036 -4.667559,10.45251 -4.667706,10.57642 -1.59e-4,0.13391 0.402432,-0.14263 3.905956,-2.68297 z m 35.305693,7.41616 c -1.13572,-0.31954 -1.4722,-0.49444 -2.11951,-1.10172 -0.87188,-0.81795 -1.19955,-1.57933 -1.27805,-2.96965 -0.0857,-1.51785 0.14604,-2.35091 0.90019,-3.23619 1.10631,-1.29867 3.22927,-1.98999 5.57449,-1.8153 0.64316,0.0479 1.28434,0.13304 1.42486,0.18918 0.21928,0.0876 0.2556,0.009 0.25627,-0.55813 0.002,-1.31273 -0.42997,-2.1445 -1.38441,-2.66846 -0.543,-0.29809 -2.32836,-0.31453 -3.83898,-0.0353 -0.7174,0.13259 -1.11218,0.14674 -1.21166,0.0435 -0.0811,-0.0843 -0.18572,-0.63207 -0.23239,-1.21735 l -0.0849,-1.06414 0.49458,-0.16306 c 1.82514,-0.60173 4.85982,-0.61159 6.32491,-0.0205 1.092,0.44054 1.99556,1.38216 2.4429,2.5458 0.3207,0.83421 0.33452,1.06074 0.37658,6.17226 0.0362,4.40189 0.009,5.33609 -0.16037,5.48124 -0.54638,0.46853 -6.18554,0.78343 -7.48456,0.41795 z m 4.42125,-2.45401 c 0.31914,-0.0882 0.32881,-0.14721 0.33104,-2.02111 l 0.002,-1.9303 -0.45633,-0.0951 c -0.72733,-0.15164 -2.63112,-0.11136 -3.26133,0.069 -0.31767,0.0909 -0.79455,0.3895 -1.05973,0.66351 -0.4071,0.42066 -0.48227,0.60768 -0.48298,1.20168 -10e-4,1.19497 0.44765,1.76308 1.62189,2.05182 0.59485,0.14626 2.84554,0.18748 3.30515,0.0605 z m 7.99375,2.58269 c -0.16062,-0.0418 -0.70267,-0.21392 -1.20455,-0.38248 -1.02306,-0.34359 -1.05853,-0.42758 -0.74559,-1.76538 0.26409,-1.12894 0.37055,-1.1819 1.53738,-0.76474 0.81326,0.29075 1.3001,0.35792 2.6067,0.35963 1.79862,0.002 2.45329,-0.22302 2.71554,-0.93486 0.35759,-0.97066 -0.21173,-1.70334 -1.9811,-2.54951 -0.6423,-0.30717 -1.62765,-0.77848 -2.18966,-1.04735 -0.56201,-0.26888 -1.23013,-0.67175 -1.4847,-0.89527 -0.69477,-0.61002 -1.21421,-1.80702 -1.21304,-2.79533 0.002,-1.31977 0.26442,-1.97221 1.17737,-2.92243 0.6801,-0.70787 0.99135,-0.90891 1.81173,-1.17024 1.47172,-0.46881 3.88349,-0.39817 5.59663,0.16391 0.39053,0.12813 0.47442,0.23263 0.474,0.5904 -8.9e-4,0.74947 -0.31407,1.97946 -0.52531,2.06311 -0.11127,0.0441 -0.51555,-0.0312 -0.89842,-0.16731 -0.38286,-0.13609 -1.15615,-0.28796 -1.71843,-0.33749 -1.847,-0.1627 -2.99475,0.42887 -2.99607,1.54424 -9.7e-4,0.81131 0.65069,1.37537 2.4169,2.09199 3.02789,1.22854 3.94577,1.96668 4.38045,3.5227 0.46584,1.66752 -0.0166,3.45375 -1.18052,4.371 -1.02913,0.81102 -1.8657,1.02464 -4.16936,1.06465 -1.16486,0.0202 -2.24934,0.003 -2.40995,-0.0392 z m 13.72973,-0.0352 c -0.80922,-0.2166 -1.22246,-0.44254 -1.79949,-0.98387 -0.69508,-0.6521 -1.14059,-1.67506 -1.332,-3.05851 -0.17072,-1.2339 -0.18015,-14.26397 -0.0105,-14.54006 0.12903,-0.21 2.30426,-0.65024 2.61005,-0.52824 0.14269,0.0569 0.18883,0.59439 0.18695,2.17754 l -0.003,2.10197 2.45381,0.003 c 1.71378,0.002 2.50661,0.0579 2.62888,0.18491 0.19372,0.20116 0.23594,1.90265 0.0545,2.19764 -0.0808,0.13138 -0.83335,0.19635 -2.5906,0.22364 l -2.47673,0.0385 -0.0435,3.47948 c -0.049,3.91717 0.0652,4.84673 0.68361,5.56541 0.36107,0.41964 0.51192,0.47842 1.37692,0.53658 0.64912,0.0437 1.31283,-0.0259 2.00038,-0.20972 1.19589,-0.31967 1.17614,-0.33365 1.45362,1.02901 0.22788,1.11909 0.12741,1.24983 -1.2668,1.64838 -1.03279,0.29523 -3.06551,0.36473 -3.92661,0.13425 z m -41.19244,-0.39087 c -0.03942,-0.10721 -0.04958,-4.45012 -0.02258,-9.65092 l 0.0491,-9.45599 5.623325,0.007 5.623325,0.007 -0.002,1.28602 -0.002,1.28603 -4.162808,0.0703 -4.162811,0.0703 -0.0031,2.57204 -0.0031,2.57204 3.644458,0.0452 c 2.692133,0.0334 3.674271,0.0939 3.758548,0.23174 0.160591,0.26259 0.140345,1.95563 -0.02665,2.22889 -0.11591,0.18966 -0.736614,0.2334 -3.793394,0.26731 l -3.654808,0.0405 -0.04385,4.2667 -0.04385,4.2667 -1.353579,0.0418 c -1.000722,0.0309 -1.372264,-0.009 -1.425258,-0.15311 z m 46.96245,-0.12256 c 9.9e-4,-0.83809 4.62917,-13.03716 6.64772,-17.52228 l 0.66611,-1.48005 1.34999,0.0453 1.34999,0.0453 0.96568,2.19503 c 1.91289,4.3481 6.25653,15.97997 6.25562,16.75197 -4.1e-4,0.34565 -0.029,0.35252 -1.45766,0.3507 -1.74127,-0.002 -1.58781,0.1565 -2.48984,-2.57523 -0.34362,-1.0406 -0.68735,-1.97719 -0.76384,-2.0813 -0.10507,-0.14299 -1.08028,-0.1905 -3.98667,-0.19421 -3.65395,-0.005 -3.8552,0.01 -3.99906,0.28743 -0.0833,0.16078 -0.44944,1.15898 -0.81361,2.21821 -0.36417,1.05923 -0.73488,2.01646 -0.82381,2.12717 -0.11361,0.14145 -0.56892,0.20078 -1.53137,0.19955 -1.35126,-0.002 -1.36968,-0.007 -1.36925,-0.3676 z m 11.54734,-7.19646 c 2.1e-4,-0.17371 -1.67253,-4.70349 -2.47704,-6.70782 l -0.4797,-1.19513 -0.2634,0.53021 c -0.68715,1.38321 -2.80248,7.1973 -2.68836,7.3891 0.12244,0.20578 5.90825,0.18977 5.9085,-0.0164 z m 7.97575,7.48635 c -0.0535,-0.0556 -0.0923,-4.30248 -0.0862,-9.43764 0.009,-7.40888 0.0498,-9.36983 0.19853,-9.49738 0.55162,-0.47303 5.81114,-0.63922 7.79702,-0.24637 1.60425,0.31735 3.0611,1.09813 3.96475,2.12485 0.99759,1.13346 1.26524,1.98472 1.26118,4.01133 -0.003,1.40037 -0.0492,1.6903 -0.39148,2.44675 -1.12334,2.48246 -3.28476,3.52445 -7.68439,3.70452 l -2.08146,0.0852 -0.004,3.16405 c -0.002,1.89173 -0.0647,3.28166 -0.15531,3.45651 -0.1322,0.25512 -0.31559,0.29225 -1.43661,0.29082 -0.70678,-9.1e-4 -1.32882,-0.0471 -1.38231,-0.10263 z m 6.17493,-9.72873 c 2.75113,-0.29661 3.81892,-1.24523 3.82147,-3.39497 0.001,-1.20773 -0.22789,-1.82333 -0.9114,-2.44652 -0.85411,-0.77873 -1.79482,-1.01833 -4.05052,-1.03166 l -1.97181,-0.0116 -0.0434,3.51759 -0.0434,3.5176 0.91557,-0.001 c 0.50356,-8e-4 1.53112,-0.0678 2.28346,-0.14894 z m 9.86154,9.66092 c -0.0383,-0.10406 -0.0475,-4.4444 -0.0205,-9.6452 l 0.0491,-9.45599 1.35264,-0.0418 c 1.3389,-0.0414 1.35409,-0.0378 1.4967,0.35218 0.19316,0.52823 0.17429,18.06807 -0.02,18.59549 -0.13888,0.37698 -0.18017,0.38786 -1.46565,0.38622 -0.9236,-10e-4 -1.34374,-0.0588 -1.39231,-0.1909 z"
         id="path7" /><path
         style="fill:#ffffff"
         d="m 68.345211,165.81539 c -4.245176,-0.66691 -7.688338,-3.82453 -8.845821,-8.11225 -0.450218,-1.66777 -0.449989,-4.05961 5.48e-4,-5.71208 0.85672,-3.14224 2.891001,-5.68098 5.656761,-7.0595 1.693892,-0.84428 2.786577,-1.10221 4.675251,-1.10362 2.62277,-0.002 4.74248,0.74021 6.672421,2.33616 4.450402,3.68024 5.376125,10.18591 2.14155,15.0501 -2.194139,3.29958 -6.459139,5.20469 -10.30071,4.60119 z M 67.730145,157.93 c 1.630176,-1.17931 3.52313,-2.55838 4.206565,-3.06461 l 1.242609,-0.92041 -1.886888,-0.078 c -1.209651,-0.05 -1.90637,-0.13925 -1.941168,-0.24857 -0.02985,-0.0938 1.230255,-1.10119 2.800242,-2.23868 1.569988,-1.1375 2.892366,-2.13143 2.938618,-2.20874 0.05078,-0.0849 -1.096329,-0.14206 -2.895317,-0.14436 l -2.979413,-0.004 -0.186885,0.41583 c -0.612508,1.36287 -4.451565,10.15447 -4.563637,10.45093 -0.199928,0.52885 -0.05054,0.43921 3.265274,-1.95954 z m 49.327625,6.74907 c -1.29932,-0.15528 -2.62303,-0.581 -2.73302,-0.87898 -0.10465,-0.28354 0.18534,-1.84951 0.37969,-2.05033 0.0764,-0.0789 0.52297,-0.009 1.07781,0.16971 1.8938,0.60855 4.20789,0.56302 5.0765,-0.0999 0.46143,-0.35216 0.58279,-1.47031 0.2217,-2.04269 -0.25927,-0.411 -1.5724,-1.15597 -3.36494,-1.90901 -0.64654,-0.27162 -1.47532,-0.71979 -1.84173,-0.99594 -1.22573,-0.92379 -1.73193,-2.66 -1.27267,-4.36512 0.21426,-0.79548 1.16685,-1.81934 2.1611,-2.32277 0.71887,-0.364 1.03033,-0.42376 2.43122,-0.46646 1.68354,-0.0513 3.61727,0.25152 3.96165,0.62044 0.13565,0.1453 0.14114,0.39043 0.0229,1.02302 -0.22273,1.19195 -0.34479,1.28652 -1.28539,0.99587 -1.28688,-0.39765 -2.47597,-0.46296 -3.39788,-0.18661 -1.06521,0.31929 -1.482,0.82821 -1.37537,1.67941 0.10694,0.85364 0.75439,1.37609 2.69967,2.17841 2.1327,0.87962 3.00333,1.41467 3.52956,2.16911 1.29223,1.85263 0.82474,4.53325 -0.98626,5.65523 -1.18264,0.7327 -3.31274,1.06462 -5.30457,0.8266 z m -13.42537,-0.26915 c -2.04783,-0.57312 -3.10872,-2.03623 -3.12012,-4.30304 -0.007,-1.41916 0.35571,-2.29252 1.3149,-3.16493 0.99443,-0.90447 2.22702,-1.28035 4.21374,-1.28499 0.88367,-0.002 1.83667,0.0306 2.11779,0.0726 0.47888,0.0715 0.51435,0.0477 0.56231,-0.37753 0.0836,-0.74152 -0.24468,-1.94485 -0.65644,-2.40597 -0.21015,-0.23535 -0.6005,-0.52276 -0.86743,-0.63869 -0.62195,-0.27011 -2.78141,-0.27464 -3.88062,-0.008 -0.45641,0.11066 -0.89694,0.15812 -0.97895,0.10547 -0.23928,-0.1536 -0.43742,-1.79233 -0.24869,-2.05683 0.28905,-0.4051 2.19629,-0.70437 4.10517,-0.64416 1.51271,0.0477 1.86257,0.10875 2.55553,0.44572 1.00902,0.49067 1.6811,1.18901 2.17031,2.25512 l 0.38208,0.83262 0.0388,5.35458 c 0.024,3.30932 -0.0152,5.41035 -0.10253,5.5006 -0.46383,0.47927 -6.17591,0.7178 -7.60583,0.31762 z m 4.93296,-2.2345 c 0.23397,-0.14937 0.24141,-3.96374 0.008,-4.11356 -0.0917,-0.0589 -0.7692,-0.14041 -1.50561,-0.18126 -2.31791,-0.12855 -3.65776,0.53276 -3.83556,1.89312 -0.23981,1.83491 0.96858,2.65678 3.76281,2.55918 0.77015,-0.0269 1.4768,-0.0978 1.57034,-0.15748 z m 21.08628,2.28564 c -1.33316,-0.43308 -2.26977,-1.62647 -2.61211,-3.32826 -0.26295,-1.30713 -0.25491,-14.80888 0.009,-15.02101 0.24886,-0.20007 2.19634,-0.50997 2.33034,-0.37083 0.0591,0.0614 0.12488,1.02949 0.1461,2.15129 l 0.0386,2.03962 2.55597,0.0789 2.55596,0.0789 0.0429,0.96812 c 0.0249,0.56318 -0.0243,1.03774 -0.11771,1.13457 -0.0978,0.10133 -1.11531,0.19485 -2.60039,0.239 l -2.43979,0.0725 -0.002,3.93371 c -0.001,3.7881 0.0108,3.96 0.33193,4.64378 0.27293,0.5812 0.45158,0.75696 0.98447,0.96855 0.71856,0.28531 2.2325,0.2349 3.07068,-0.10225 0.24936,-0.1003 0.55608,-0.14139 0.68161,-0.0913 0.24543,0.0979 0.62322,1.64316 0.48959,2.00254 -0.0427,0.11498 -0.51553,0.34851 -1.05063,0.51897 -1.14524,0.36481 -3.41625,0.40758 -4.41492,0.0831 z m -40.840267,-0.37163 c -0.115457,-0.31281 -0.09411,-18.27221 0.02209,-18.58473 0.07894,-0.21231 0.711997,-0.23841 5.629753,-0.23214 l 5.540814,0.007 -0.04406,1.1725 -0.04405,1.17249 -4.124041,0.0349 -4.124041,0.0349 -0.08094,0.33796 c -0.04452,0.18588 -0.06338,1.39328 -0.04192,2.68311 l 0.03902,2.34515 3.578389,0.0802 c 1.968114,0.0441 3.660483,0.13539 3.760819,0.20284 0.254392,0.17101 0.242564,1.98107 -0.01439,2.20141 -0.127194,0.10907 -1.429336,0.1793 -3.761302,0.20285 l -3.566758,0.036 -0.04387,4.27408 -0.04387,4.27408 -1.296642,-0.002 c -1.047628,-0.001 -1.313613,-0.0476 -1.385014,-0.24109 z m 47.088907,0.004 c 3.9e-4,-0.32472 2.24373,-6.63662 3.63066,-10.21527 1.1511,-2.97016 3.03512,-7.43066 3.40108,-8.05222 0.28757,-0.48842 0.29624,-0.49133 1.45656,-0.48985 1.40471,0.002 1.2346,-0.19726 2.62668,3.07348 1.93725,4.55164 5.82882,15.03777 5.82803,15.70407 -3.5e-4,0.29118 -0.0763,0.30518 -1.4244,0.26247 l -1.42404,-0.0451 -0.78925,-2.27046 c -0.43409,-1.24875 -0.86005,-2.32057 -0.94657,-2.38181 -0.0865,-0.0612 -1.88113,-0.1146 -3.98802,-0.11856 -4.49272,-0.008 -3.91925,-0.30165 -4.86595,2.48787 -0.86914,2.561 -0.66596,2.34426 -2.19572,2.3423 -1.20116,-0.002 -1.30938,-0.0261 -1.30906,-0.2969 z m 11.54723,-7.10144 c 2.2e-4,-0.18429 -2.15219,-5.95612 -2.67209,-7.16538 -0.20844,-0.48482 -0.43942,-0.84291 -0.5133,-0.79574 -0.23097,0.14746 -3.09469,7.52383 -3.09523,7.9727 -8e-5,0.0713 1.41298,0.13136 3.14015,0.13357 1.96603,0.002 3.14036,-0.0518 3.14047,-0.14515 z m 7.88959,-1.94434 c 0.006,-5.15742 0.0657,-9.41196 0.13237,-9.45453 0.35566,-0.22707 2.42583,-0.41594 4.5533,-0.41542 1.964,4.9e-4 2.61682,0.0578 3.52759,0.30947 2.17237,0.60038 3.58733,1.64485 4.3158,3.18577 0.37041,0.7835 0.40369,0.99865 0.40179,2.59736 -0.002,1.66538 -0.0236,1.78817 -0.48411,2.7542 -1.11028,2.32892 -3.09393,3.24227 -7.37127,3.39405 l -2.29786,0.0815 -0.0433,3.42058 -0.0433,3.42058 -1.35111,0.0418 -1.35111,0.0418 z m 7.18668,-0.32667 c 1.99116,-0.43452 2.89368,-1.51203 2.89599,-3.4575 6e-4,-0.50462 -0.0872,-1.13669 -0.19509,-1.4046 -0.30068,-0.74655 -1.28415,-1.57888 -2.1685,-1.83522 -1.03043,-0.2987 -2.96744,-0.45364 -4.05463,-0.32434 l -0.88069,0.10474 -0.004,3.54061 -0.004,3.54062 1.81857,0.002 c 1.00021,0.001 2.16695,-0.0737 2.59277,-0.16663 z m 8.91553,0.21913 0.0489,-9.49381 1.22906,-0.0428 c 0.88467,-0.0308 1.26256,0.0121 1.34864,0.15301 0.13644,0.22338 0.14949,18.27571 0.0135,18.6415 -0.0719,0.19334 -0.33825,0.23889 -1.38896,0.23755 l -1.30001,-0.002 z"
         id="path6" /><path
         style="fill:#ffffff"
         d="m 67.615173,165.59264 c -2.074398,-0.47144 -4.153858,-1.71391 -5.576048,-3.33167 -1.090338,-1.24028 -1.716895,-2.33457 -2.279755,-3.98162 -0.424907,-1.24337 -0.453029,-1.4583 -0.450669,-3.44427 0.0024,-1.98598 0.03099,-2.20084 0.458855,-3.44312 0.63832,-1.85334 1.258591,-2.86564 2.614098,-4.26629 1.357417,-1.40262 2.337709,-2.04298 4.125062,-2.69461 1.184057,-0.43169 1.428341,-0.467 3.252045,-0.47013 2.246011,-0.004 3.199361,0.20456 4.83338,1.05662 2.785662,1.4526 4.845644,4.08654 5.628302,7.1965 0.332478,1.32113 0.329324,3.97511 -0.0063,5.29538 -1.247523,4.90759 -5.556474,8.34164 -10.408319,8.29497 -0.722992,-0.007 -1.708788,-0.10225 -2.190657,-0.21176 z m 1.251476,-8.38137 c 2.371887,-1.72766 4.312595,-3.20338 4.312686,-3.27939 9e-5,-0.076 -0.842646,-0.15836 -1.872746,-0.18301 -1.229588,-0.0294 -1.855239,-0.0995 -1.821464,-0.20403 0.02829,-0.0876 1.327556,-1.08807 2.887247,-2.22334 1.559691,-1.13527 2.863107,-2.15057 2.89648,-2.25622 0.04804,-0.15208 -0.58416,-0.1844 -3.034981,-0.15517 l -3.095661,0.0369 -2.37438,5.44366 c -2.757541,6.32212 -2.618496,5.97462 -2.3877,5.96736 0.0979,-0.003 2.118633,-1.41913 4.490519,-3.14678 z m 35.703091,7.34493 c -0.81702,-0.13306 -1.89602,-0.55404 -2.42909,-0.94772 -1.79788,-1.32778 -2.1344,-4.43124 -0.66724,-6.15349 1.29392,-1.5189 2.95675,-1.92821 6.83131,-1.68154 l 0.51117,0.0325 -0.0333,-0.8229 c -0.0183,-0.45259 -0.10379,-1.04503 -0.18993,-1.31652 -0.20689,-0.65205 -1.0059,-1.36245 -1.77876,-1.58151 -0.7032,-0.19931 -2.58876,-0.1118 -3.67739,0.17067 -0.82638,0.21442 -0.88288,0.16177 -1.02452,-0.95475 -0.0587,-0.46304 -0.0347,-0.82651 0.0628,-0.94781 0.26483,-0.32972 2.02768,-0.60394 3.80015,-0.59113 1.35944,0.01 1.83276,0.0746 2.48262,0.33974 1.63656,0.66771 2.48801,1.86622 2.7648,3.89172 0.22019,1.61136 0.18579,9.64006 -0.0426,9.94569 -0.12486,0.16709 -0.59987,0.29494 -1.4976,0.40308 -1.58238,0.19062 -4.50466,0.3129 -5.11237,0.21393 z m 4.02903,-2.32569 c 0.25723,-0.14218 0.28291,-0.33337 0.28504,-2.12154 l 0.002,-1.96528 -0.40147,-0.16984 c -0.22081,-0.0934 -1.06122,-0.17507 -1.86759,-0.18146 -1.27661,-0.0101 -1.55888,0.0363 -2.18374,0.35942 -0.96223,0.49749 -1.3034,1.00776 -1.29105,1.93097 0.0161,1.2054 0.40806,1.72669 1.64924,2.19352 0.4003,0.15056 3.51987,0.11304 3.80723,-0.0458 z m 7.50988,2.22042 c -1.14882,-0.27748 -1.67158,-0.49535 -1.75241,-0.73034 -0.0362,-0.10531 0.0176,-0.56583 0.11959,-1.02337 0.17523,-0.78606 0.20931,-0.83078 0.61853,-0.81165 0.23819,0.0111 0.79444,0.13018 1.23611,0.26455 0.92377,0.28103 3.01049,0.32826 3.85265,0.0872 0.8242,-0.23592 1.26026,-0.74751 1.26113,-1.47958 0.001,-1.1029 -0.59718,-1.58019 -3.8006,-3.03095 -2.39764,-1.08585 -3.11274,-1.97738 -3.11242,-3.88036 3.5e-4,-2.14521 1.2905,-3.56701 3.64919,-4.02154 1.33837,-0.25791 4.52921,0.11012 4.89216,0.56426 0.20552,0.25717 -0.0967,1.86473 -0.37103,1.97336 -0.10385,0.0411 -0.58424,-0.0319 -1.06755,-0.16229 -1.22553,-0.33062 -2.8702,-0.30689 -3.6368,0.0525 -0.72205,0.33848 -0.92546,0.67468 -0.92648,1.53134 -10e-4,0.87084 0.64072,1.48142 2.22346,2.11546 3.81483,1.52822 4.65637,2.37527 4.66764,4.69827 0.009,1.8312 -0.94942,3.14174 -2.71081,3.70716 -1.05117,0.33744 -4.00285,0.42124 -5.14236,0.14601 z m 14.14495,0.0858 c -1.35908,-0.30285 -2.27907,-1.06193 -2.85125,-2.35253 -0.33419,-0.75382 -0.3357,-0.78798 -0.36937,-8.36087 l -0.0338,-7.60396 0.3795,-0.1489 c 0.20872,-0.0819 0.75391,-0.16575 1.21155,-0.18633 l 0.83205,-0.0374 0.0386,2.03648 c 0.0264,1.39641 0.0945,2.07339 0.21653,2.15394 0.0979,0.0646 1.24905,0.11987 2.55814,0.12281 l 2.38015,0.005 -0.0444,1.0212 -0.0444,1.0212 -2.48312,0.0725 -2.48312,0.0725 -0.0436,3.83211 c -0.0472,4.1518 0.0256,4.75623 0.66046,5.48008 0.65698,0.74908 2.42188,0.88881 3.88686,0.30774 0.53221,-0.2111 0.6319,-0.10868 0.89157,0.91607 0.16268,0.64203 0.16861,0.85213 0.0279,0.98663 -0.58873,0.56253 -3.40608,0.9565 -4.73014,0.66144 z m -41.315523,-0.39074 c -0.03952,-0.10745 -0.04983,-4.38248 -0.02292,-9.50006 l 0.04893,-9.3047 5.314065,-0.0329 c 3.800645,-0.0236 5.370898,0.016 5.513622,0.13903 0.251286,0.21656 0.268296,1.81684 0.02203,2.0713 -0.128081,0.13235 -1.273296,0.17994 -4.239261,0.17615 l -4.063774,-0.005 0.03653,2.76122 0.03653,2.76121 3.651419,0.0803 3.65142,0.0803 0.04156,1.09434 0.04156,1.09435 -3.694421,0.0357 -3.69442,0.0357 -0.07816,4.31186 -0.07815,4.31186 -1.207353,0.0424 c -0.883275,0.031 -1.226641,-0.01 -1.279208,-0.15293 z m 47.032493,0.0873 c -0.27286,-0.45859 6.6879,-18.37776 7.29317,-18.77489 0.23614,-0.15493 2.02611,-0.15167 2.26235,0.004 0.60654,0.40001 7.52002,18.33516 7.24492,18.79497 -0.13589,0.22712 -2.48837,0.19214 -2.66841,-0.0397 -0.0809,-0.10412 -0.45971,-1.10884 -0.84187,-2.23271 -0.38217,-1.12386 -0.75804,-2.12858 -0.83527,-2.23269 -0.10625,-0.14324 -1.10897,-0.19054 -4.1213,-0.19438 -3.01233,-0.004 -4.01516,0.0409 -4.12175,0.18387 -0.0775,0.10392 -0.45573,1.10767 -0.84057,2.23055 -0.38484,1.12289 -0.76607,2.12664 -0.84718,2.23055 -0.18148,0.23251 -2.38802,0.25898 -2.52409,0.0303 z m 11.53862,-7.07322 c 0.0859,-0.14354 -2.28332,-6.63501 -2.81706,-7.7186 -0.20954,-0.42541 -0.3762,-0.60934 -0.46706,-0.51546 -0.38452,0.39733 -3.2606,7.98999 -3.11761,8.2303 0.10141,0.17044 6.29983,0.17408 6.40173,0.004 z m 7.99777,7.07792 c -0.13951,-0.14487 -0.1781,-2.2608 -0.16973,-9.30537 0.0103,-8.68606 0.0235,-9.12487 0.27874,-9.26594 0.14735,-0.0814 0.9432,-0.21899 1.76857,-0.30566 4.46243,-0.4686 7.55011,0.15694 9.33575,1.89134 1.2738,1.23726 1.81195,3.09101 1.48612,5.11921 -0.38326,2.38565 -1.7681,3.85059 -4.32703,4.5773 -0.57148,0.16229 -1.70162,0.27401 -3.2465,0.32091 -1.59821,0.0485 -2.41774,0.13158 -2.51693,0.25508 -0.0859,0.10694 -0.16513,1.56284 -0.19046,3.49973 l -0.0434,3.31662 -1.09729,0.0421 c -0.72809,0.028 -1.15804,-0.0209 -1.27786,-0.14536 z m 6.54912,-9.35659 c 2.51016,-0.41472 3.70062,-1.81104 3.45013,-4.04674 -0.10604,-0.94637 -0.33979,-1.46336 -0.91034,-2.01337 -0.95297,-0.91867 -2.23759,-1.23123 -4.79514,-1.16673 l -1.75278,0.0442 -0.0435,3.4765 c -0.0239,1.91207 -0.0115,3.56311 0.0276,3.66898 0.0894,0.2421 2.6409,0.26566 4.02403,0.0371 z m 9.42762,9.31931 c -0.0498,-0.1349 -0.0856,-4.35041 -0.0797,-9.36781 0.009,-7.65789 0.0439,-9.15087 0.21663,-9.29901 0.12759,-0.10942 0.61329,-0.15896 1.27818,-0.13037 l 1.0724,0.0461 -0.0112,9.45604 -0.0112,9.45604 -1.18726,0.0421 c -0.98525,0.035 -1.20267,4e-4 -1.27779,-0.20312 z"
         id="path5" /><path
         style="fill:#ffffff"
         d="m 68.247659,165.6607 c -4.211716,-0.74173 -7.457236,-3.74295 -8.605119,-7.95738 -0.415924,-1.52705 -0.449094,-4.03581 -0.07293,-5.51561 1.595406,-6.27612 7.957597,-9.77067 13.885397,-7.6268 1.515897,0.54825 2.528881,1.23848 3.898941,2.65669 2.094544,2.16815 3.05792,4.57933 3.054277,7.64438 -0.0036,3.06505 -0.972747,5.47377 -3.072439,7.63658 -0.685824,0.70643 -1.619591,1.51005 -2.075039,1.7858 -2.048265,1.24013 -4.762199,1.77274 -7.013092,1.37634 z m 0.726224,-8.46845 c 2.430896,-1.76443 4.38419,-3.26793 4.340654,-3.3411 -0.04354,-0.0732 -0.902346,-0.13409 -1.908464,-0.13537 -1.398134,-0.002 -1.815084,-0.0469 -1.768965,-0.19138 0.03319,-0.10397 1.335764,-1.11667 2.894612,-2.25044 1.558849,-1.13376 2.858488,-2.13634 2.888087,-2.22794 0.03807,-0.11782 -0.867978,-0.16773 -3.096194,-0.17057 l -3.150009,-0.004 -0.348531,0.71822 c -0.707135,1.45719 -4.63588,10.58041 -4.6361,10.76582 -1.25e-4,0.10551 0.08197,0.15876 0.182435,0.11835 0.100465,-0.0404 2.171578,-1.51713 4.602475,-3.28157 z m 47.938007,7.3365 c -0.44176,-0.0657 -1.18099,-0.23422 -1.64274,-0.37454 -0.75817,-0.2304 -0.83916,-0.29505 -0.83557,-0.66696 0.005,-0.47312 0.22575,-1.52969 0.3463,-1.65426 0.0447,-0.0462 0.5457,0.0713 1.11325,0.2611 0.71935,0.24061 1.41739,0.35064 2.30458,0.36327 1.59785,0.0227 2.24209,-0.11596 2.80276,-0.60342 0.37995,-0.33035 0.44306,-0.4885 0.4438,-1.11214 10e-4,-1.18485 -0.68298,-1.73643 -3.77566,-3.04296 -1.3766,-0.58157 -2.36152,-1.38915 -2.81126,-2.30511 -0.45215,-0.92085 -0.34764,-2.69275 0.21018,-3.56353 0.51445,-0.80311 1.41184,-1.47667 2.35014,-1.76401 1.32084,-0.40448 5.16702,-0.17051 5.66297,0.34449 0.13711,0.14237 -0.11567,1.66276 -0.31681,1.90554 -0.0563,0.0679 -0.45598,0.0215 -0.88829,-0.10304 -2.03205,-0.58547 -3.6448,-0.42358 -4.49102,0.45082 -0.44861,0.46355 -0.48876,0.57468 -0.41616,1.15193 0.11198,0.89036 0.87117,1.55648 2.52658,2.21682 2.68049,1.06926 3.51369,1.64034 4.06236,2.78435 0.28536,0.59502 0.37109,1.00587 0.37018,1.77401 -0.002,1.86262 -0.97597,3.13691 -2.83119,3.70503 -0.88522,0.27108 -3.09822,0.3941 -4.1844,0.23261 z m -13.51538,-0.33671 c -1.80588,-0.59584 -2.73784,-1.98394 -2.7423,-4.0845 -0.001,-0.70402 0.0843,-1.33979 0.22604,-1.67498 0.53813,-1.27264 1.76277,-2.17365 3.45137,-2.5393 0.9092,-0.19688 2.94219,-0.21248 3.70255,-0.0284 0.79357,0.19212 0.91097,0.0458 0.81889,-1.02064 -0.10661,-1.23482 -0.5823,-2.0959 -1.40703,-2.54699 -0.53148,-0.2907 -0.86149,-0.35122 -1.89837,-0.34815 -0.69029,0.002 -1.66781,0.0949 -2.17228,0.20631 -0.82506,0.18223 -0.92945,0.17776 -1.03905,-0.0445 -0.2361,-0.47872 -0.28782,-1.53055 -0.0855,-1.73955 0.62491,-0.64573 5.10873,-0.72123 6.44133,-0.10846 0.92131,0.42365 1.68904,1.22321 2.12886,2.21712 0.32652,0.73786 0.33591,0.8927 0.37341,6.1519 l 0.0385,5.39499 -0.41013,0.0879 c -2.16335,0.46344 -6.13065,0.50472 -7.4262,0.0773 z m 5.23889,-1.89083 c 0.21338,-0.0845 0.24624,-0.36306 0.24831,-2.10518 0.002,-1.68296 -0.0366,-2.04144 -0.23888,-2.21575 -0.17398,-0.14996 -0.71467,-0.20856 -1.93867,-0.21012 -1.52401,-0.002 -1.76993,0.0364 -2.40731,0.37517 -1.16313,0.61825 -1.57161,1.84812 -1.00289,3.01951 0.29403,0.6056 0.90579,1.01691 1.80999,1.21691 0.65869,0.1457 3.09878,0.09 3.52945,-0.0805 z m 21.01642,2.00856 c -1.34829,-0.43801 -2.21243,-1.61474 -2.50582,-3.4123 -0.10572,-0.64776 -0.14352,-3.3302 -0.11078,-7.86106 l 0.0497,-6.87776 0.50897,-0.10713 c 0.27994,-0.0589 0.78943,-0.15032 1.13222,-0.20312 l 0.62324,-0.096 -0.002,1.94721 c -0.002,1.32161 0.0563,2.02878 0.17996,2.2011 0.15549,0.2166 0.53639,0.26023 2.59222,0.297 l 2.40995,0.0431 -0.001,0.98343 -0.001,0.98343 -2.47673,0.0385 c -1.75726,0.0273 -2.5098,0.0923 -2.5906,0.22364 -0.1576,0.25626 -0.14889,5.49364 0.0118,7.09407 0.0724,0.72101 0.23894,1.52655 0.37011,1.7901 0.47157,0.94746 2.11565,1.32418 3.66442,0.83965 1.0881,-0.3404 1.17315,-0.31248 1.35641,0.44534 0.29066,1.20195 0.26673,1.24932 -0.80327,1.59016 -1.13744,0.36233 -3.41202,0.40397 -4.40716,0.0807 z m -40.620278,-0.18678 c -0.1195,-0.14953 -0.15147,-2.74005 -0.116235,-9.41838 l 0.0486,-9.21212 5.394532,-0.0328 c 4.21861,-0.0257 5.419999,0.009 5.511363,0.15833 0.150088,0.24557 0.150458,1.49551 5.21e-4,1.73936 -0.08548,0.13902 -1.154498,0.19546 -4.197269,0.22159 l -4.082578,0.0351 -0.0431,2.83415 -0.0431,2.83416 3.69119,0.0451 3.69119,0.0451 -0.0013,1.05908 -0.0013,1.05907 -3.688072,0.0357 -3.688073,0.0357 -0.0049,4.14725 c -0.0042,3.5685 -0.037,4.18039 -0.234735,4.38471 -0.299508,0.30949 -1.995039,0.33136 -2.236796,0.0289 z m 47.111948,0.16526 c -0.0535,-0.0555 -0.0971,-0.19797 -0.097,-0.31651 8.7e-4,-0.73227 5.5233,-15.10159 6.81746,-17.739 l 0.3664,-0.74669 1.16356,0.001 1.16357,10e-4 0.34976,0.71911 c 1.55733,3.20182 6.87433,17.2595 6.76038,17.87381 -0.038,0.2048 -0.25367,0.25962 -1.14077,0.28996 -0.60165,0.0206 -1.17754,-0.0192 -1.27975,-0.0884 -0.10221,-0.0692 -0.53717,-1.1425 -0.96657,-2.38513 l -0.78073,-2.25934 -4.19573,-0.005 -4.19574,-0.005 -0.78609,2.25734 c -0.43235,1.24153 -0.86986,2.31225 -0.97223,2.37936 -0.22407,0.14691 -2.06872,0.16633 -2.20652,0.0232 z m 11.44996,-7.19291 c 3e-4,-0.24851 -2.13927,-6.03389 -2.74419,-7.4203 -0.24799,-0.56836 -0.51254,-0.99402 -0.5879,-0.94591 -0.27108,0.17306 -3.24002,7.84448 -3.24065,8.37348 -1.6e-4,0.13611 0.8253,0.18283 3.28615,0.18596 2.60544,0.003 3.2864,-0.0367 3.28659,-0.19323 z m 8.06127,7.21846 c -0.14319,-0.0601 -0.18013,-2.06216 -0.17153,-9.29678 l 0.011,-9.22023 0.3887,-0.15251 c 0.60305,-0.23662 4.08047,-0.46779 5.3813,-0.35774 3.39105,0.2869 5.51825,1.40199 6.45481,3.38368 0.37171,0.78651 0.40483,1.00021 0.40293,2.60003 -0.002,1.66621 -0.0234,1.7878 -0.48525,2.75659 -1.06053,2.22456 -2.97151,3.08193 -7.26311,3.25865 l -2.33709,0.0962 -0.0434,3.39704 c -0.0318,2.48602 -0.0917,3.42868 -0.22327,3.51505 -0.19585,0.12851 -1.81971,0.14385 -2.11503,0.02 z m 7.74139,-9.70449 c 0.94566,-0.38129 1.74536,-1.19455 2.0206,-2.05486 0.24784,-0.77469 0.13277,-2.29988 -0.22891,-3.03411 -0.38419,-0.77989 -1.43588,-1.51593 -2.50396,-1.75242 -0.89492,-0.19815 -4.26558,-0.25887 -4.54288,-0.0818 -0.1897,0.12111 -0.25196,7.06705 -0.0651,7.26413 0.0602,0.0635 1.09535,0.0879 2.30039,0.0544 1.81749,-0.0506 2.33228,-0.11802 3.01987,-0.39526 z m 8.32525,9.72498 c -0.14323,-0.0601 -0.18009,-2.09289 -0.17134,-9.45045 l 0.0111,-9.3739 1.20494,0.0455 1.20495,0.0455 0.0267,9.21222 c 0.0194,6.67839 -0.0188,9.26883 -0.13863,9.41805 -0.16182,0.20147 -1.72369,0.2768 -2.13777,0.10312 z"
         id="path4" /><path
         style="fill:#ffffff"
         d="m 68.637502,165.67206 c -4.282455,-0.54439 -7.924153,-3.84298 -8.977665,-8.13184 -0.385598,-1.56977 -0.382899,-3.8406 0.0064,-5.40938 0.473865,-1.90943 1.342531,-3.45219 2.780264,-4.93781 2.110989,-2.18129 4.521171,-3.21383 7.458248,-3.19518 4.655881,0.0296 8.571823,2.97055 10.028673,7.53181 0.345962,1.08317 0.387495,1.44241 0.385249,3.33221 -0.0022,1.8898 -0.04463,2.24893 -0.393169,3.33122 -1.587089,4.92829 -6.37875,8.10305 -11.288029,7.47897 z m 0.144344,-8.29223 c 2.486115,-1.80587 4.547427,-3.36846 4.580693,-3.47244 0.04623,-0.14449 -0.370613,-0.18959 -1.768823,-0.19137 -1.006118,-10e-4 -1.866203,-0.0643 -1.9113,-0.14014 -0.0451,-0.0758 1.21746,-1.07411 2.805683,-2.21847 1.588223,-1.14437 2.933587,-2.15121 2.989699,-2.23742 0.05611,-0.0862 0.02339,-0.20867 -0.07271,-0.27213 -0.231006,-0.15253 -5.965258,-0.15687 -6.197172,-0.005 -0.246147,0.16152 -5.184891,11.51582 -5.083281,11.68659 0.04466,0.0751 0.09376,0.1358 0.109103,0.13497 0.01534,-8.4e-4 2.06199,-1.47905 4.548105,-3.28491 z m 35.040884,6.91699 c -2.14058,-0.57317 -3.12102,-1.91469 -3.11822,-4.26661 0.003,-2.70988 1.89156,-4.20288 5.33623,-4.21904 0.80333,-0.004 1.75634,0.0276 2.11779,0.0696 l 0.65718,0.0765 0.0451,-0.71068 c 0.0912,-1.43815 -0.4063,-2.45591 -1.4785,-3.02487 -0.70945,-0.37646 -2.49307,-0.43048 -4.01817,-0.12169 -0.49861,0.10095 -0.94142,0.14736 -0.98401,0.10313 -0.0426,-0.0442 -0.11431,-0.45498 -0.15937,-0.9128 -0.0702,-0.71292 -0.0425,-0.85359 0.1927,-0.98019 0.47582,-0.25608 2.14724,-0.48585 3.52147,-0.4841 1.88005,0.002 3.06993,0.40528 3.97611,1.34626 1.1874,1.23301 1.22164,1.43176 1.27756,7.41736 0.0267,2.86082 -0.005,5.25678 -0.0715,5.32434 -0.42173,0.43153 -6.01593,0.72508 -7.29435,0.38277 z m 4.88295,-1.96636 c 0.12309,-0.0786 0.17637,-0.74132 0.17812,-2.21552 l 0.003,-2.10339 -0.62055,-0.17397 c -0.99944,-0.28019 -3.2701,-0.11935 -4.02273,0.28494 -0.90559,0.48645 -1.22983,1.09519 -1.16358,2.18451 0.10066,1.6551 1.18507,2.25986 3.90984,2.18045 0.84743,-0.0247 1.61981,-0.0954 1.7164,-0.15702 z m 6.91674,1.89651 c -1.23971,-0.37958 -1.27977,-0.43424 -1.05984,-1.44636 0.0997,-0.45891 0.2349,-0.86859 0.3004,-0.91041 0.0655,-0.0418 0.50457,0.0703 0.9757,0.24915 0.67721,0.25708 1.20835,0.32862 2.53627,0.34161 2.07063,0.0203 2.72093,-0.23887 3.05585,-1.21766 0.18781,-0.54888 0.18119,-0.65927 -0.0716,-1.19466 -0.36218,-0.76703 -1.05518,-1.2376 -3.21132,-2.18063 -2.7382,-1.19759 -3.55267,-2.12313 -3.55702,-4.04206 -0.004,-1.78592 1.10057,-3.18622 2.96345,-3.75668 0.87841,-0.269 2.69234,-0.29281 4.03681,-0.053 1.45704,0.25989 1.52483,0.31979 1.40561,1.24201 -0.14066,1.08806 -0.24002,1.17349 -1.06456,0.9153 -1.69749,-0.53155 -3.63231,-0.40801 -4.4743,0.28568 -0.51939,0.42791 -0.66991,1.35825 -0.33019,2.0408 0.28582,0.57426 0.99374,1.01223 3.00726,1.86049 0.84308,0.35517 1.7706,0.80047 2.06117,0.98954 1.981,1.28906 2.33458,4.15343 0.7169,5.80759 -1.0073,1.03001 -1.72074,1.24922 -4.24831,1.3053 -1.73837,0.0386 -2.28358,-0.004 -3.04227,-0.23601 z m 13.99709,0.009 c -0.57608,-0.20575 -0.97756,-0.4862 -1.42074,-0.99245 -1.1065,-1.26398 -1.11172,-1.30669 -1.16143,-9.50617 -0.0312,-5.14114 0.003,-7.29391 0.11806,-7.43716 0.0891,-0.11088 0.53694,-0.2462 0.99528,-0.30071 0.45834,-0.0545 0.89909,-0.11134 0.97944,-0.12628 0.0889,-0.0165 0.1737,0.80205 0.21661,2.09107 l 0.0705,2.11825 2.55597,0.0789 2.55596,0.0789 -10e-4,0.90778 -0.001,0.90778 -2.43979,0.0725 c -1.54898,0.0461 -2.50093,0.1359 -2.60724,0.24607 -0.11998,0.12433 -0.15423,1.30393 -0.1208,4.16051 0.0424,3.62265 0.0732,4.04142 0.33756,4.58277 0.16,0.32768 0.47359,0.73448 0.69688,0.90399 0.55916,0.42451 2.12586,0.51184 3.23234,0.18017 0.45443,-0.13621 0.88436,-0.21036 0.95539,-0.16476 0.16545,0.10621 0.47116,1.57551 0.3648,1.75329 -0.0443,0.0739 -0.51198,0.27191 -1.03941,0.43992 -1.26338,0.40244 -3.16912,0.40493 -4.28724,0.006 z m -40.661897,-0.29812 c -0.115455,-0.31281 -0.09447,-17.96963 0.02173,-18.28214 0.07888,-0.21214 0.698583,-0.23843 5.477549,-0.23233 l 5.388607,0.007 -0.0013,1.05908 -0.0013,1.05907 -4.060478,-0.005 c -2.963403,-0.004 -4.107893,0.0438 -4.235967,0.17616 -0.253745,0.26219 -0.253062,5.35036 7.41e-4,5.52097 0.100337,0.0674 1.792706,0.15873 3.76082,0.20285 l 3.578389,0.0802 0.04236,0.94566 c 0.0233,0.52011 0.02278,0.95971 -0.0012,0.97688 -0.02394,0.0172 -1.719609,0.0661 -3.768159,0.10866 l -3.724638,0.0774 -0.04387,4.27408 -0.04387,4.27408 -1.150582,-0.001 c -0.91444,-0.001 -1.168719,-0.0506 -1.238954,-0.2409 z m 47.088777,0.11998 c 2.6e-4,-0.22464 2.38717,-6.86661 3.52241,-9.80171 0.86496,-2.23631 2.38521,-5.91312 3.20435,-7.74987 l 0.45519,-1.02068 1.1626,0.001 1.16261,0.001 0.52531,1.17322 c 0.88563,1.97798 2.75743,6.62977 3.82212,9.49875 1.46104,3.93699 2.79652,7.72107 2.79628,7.92323 -1.4e-4,0.11833 -0.3992,0.17421 -1.23658,0.17314 -1.45443,-0.002 -1.26389,0.21637 -2.1955,-2.51457 -0.36165,-1.06016 -0.73008,-2.01833 -0.81875,-2.12927 -0.23572,-0.29495 -8.04824,-0.30491 -8.28466,-0.0106 -0.0889,0.11072 -0.45964,1.06794 -0.82381,2.12718 -0.93462,2.71845 -0.75847,2.5108 -2.12844,2.50906 -0.79968,-0.001 -1.16328,-0.0576 -1.16313,-0.18088 z m 11.52018,-6.9592 c 0.0953,-0.50995 -2.97133,-8.47685 -3.23139,-8.39505 -0.24306,0.0765 -0.88679,1.52478 -1.99876,4.497 -1.31466,3.51398 -1.42855,3.91605 -1.15992,4.09479 0.11493,0.0765 1.5884,0.12406 3.27437,0.10576 2.80658,-0.0305 3.06965,-0.056 3.1157,-0.3025 z m 7.95202,-2.0865 0.0487,-9.26213 0.43834,-0.1366 c 0.24109,-0.0751 1.65901,-0.17195 3.15093,-0.21516 2.2092,-0.064 2.94099,-0.0305 3.94342,0.18051 3.21176,0.67605 4.87245,2.39085 5.05634,5.2211 0.12488,1.92189 -0.24825,3.14654 -1.32943,4.36328 -1.19662,1.34666 -3.11524,1.96067 -6.6239,2.11985 l -2.1665,0.0983 -0.0771,3.40408 -0.0771,3.40408 -1.20618,0.0424 -1.20617,0.0424 z m 7.40301,-0.21562 c 1.76644,-0.46514 2.64193,-1.59441 2.64409,-3.41053 0.002,-1.66933 -0.48522,-2.55639 -1.78028,-3.24134 -1.04822,-0.5544 -3.94818,-0.86762 -5.35389,-0.57826 l -0.45655,0.094 -0.004,3.67525 c -0.003,2.79379 0.0394,3.69578 0.1781,3.76087 0.31912,0.14976 3.92587,-0.0769 4.7729,-0.29997 z m 8.62839,0.10559 0.0111,-9.38039 1.15286,10e-4 c 0.91651,0.001 1.17097,0.0505 1.24123,0.2409 0.11545,0.31281 0.0945,17.96963 -0.0217,18.28214 -0.0707,0.19017 -0.32528,0.23891 -1.2418,0.23774 l -1.15285,-0.001 z"
         id="path3" /><path
         style="fill:#ffffff"
         d="m 67.991404,165.5098 c -3.465662,-0.76485 -6.040627,-2.81193 -7.525896,-5.98305 -1.447372,-3.0902 -1.443564,-6.29389 0.01115,-9.38039 1.107467,-2.34974 2.552954,-3.84363 4.825832,-4.98744 3.1512,-1.58582 6.707178,-1.4697 9.810021,0.32035 1.19497,0.68939 3.117014,2.64571 3.815473,3.88352 1.113354,1.97308 1.625025,4.58185 1.33312,6.79695 -0.344864,2.61699 -1.189449,4.38269 -3.002179,6.27637 -2.005972,2.09556 -4.152763,3.06302 -7.014666,3.16118 -0.883703,0.0303 -1.897487,-0.009 -2.252854,-0.0875 z m 0.948096,-8.14746 c 2.492488,-1.81255 4.531909,-3.39096 4.532047,-3.50756 1.99e-4,-0.16707 -0.402258,-0.22857 -1.898443,-0.29009 l -1.898695,-0.0781 2.704439,-1.94954 c 2.963042,-2.13595 3.391356,-2.48622 3.276426,-2.67938 -0.04235,-0.0712 -1.517598,-0.13124 -3.278336,-0.13348 -3.159643,-0.004 -3.204111,3.5e-4 -3.414011,0.33606 -0.201551,0.32237 -5.066204,11.40354 -5.066367,11.54066 -3.93e-4,0.33048 1.157961,-0.41342 5.04294,-3.2386 z m 35.4114,6.97556 c -1.91013,-0.34675 -3.17945,-1.47708 -3.50733,-3.1233 -0.46272,-2.32319 0.41672,-4.05972 2.49448,-4.92556 0.7161,-0.29841 1.06649,-0.33491 3.21373,-0.33479 l 2.41,1.3e-4 0.0463,-0.57033 c 0.0255,-0.31368 -0.0619,-0.95772 -0.19421,-1.43119 -0.28234,-1.01066 -0.90726,-1.70512 -1.7789,-1.97684 -0.77397,-0.24128 -2.36806,-0.22494 -3.54575,0.0363 -0.5223,0.11588 -0.99072,0.16395 -1.04092,0.10683 -0.0502,-0.0571 -0.13368,-0.45764 -0.18549,-0.89004 l -0.0942,-0.78618 0.55189,-0.15955 c 1.88412,-0.54472 4.58176,-0.51131 5.92812,0.0734 0.77422,0.33624 1.621,1.18065 2.01961,2.01395 0.33633,0.70311 0.34248,0.80116 0.38064,6.06924 0.0213,2.94502 -0.0145,5.40715 -0.0795,5.4714 -0.32638,0.32224 -5.39378,0.64877 -6.61839,0.42647 z m 4.39375,-1.95591 c 0.25798,-0.14259 0.28292,-0.33414 0.28512,-2.18995 0.002,-2.0327 0.002,-2.03382 -0.38409,-2.29673 -0.30387,-0.2068 -0.71754,-0.2646 -1.93498,-0.27036 -2.13781,-0.0101 -3.1387,0.4443 -3.6001,1.63456 -0.48954,1.26282 0.0854,2.59399 1.31575,3.04635 0.69528,0.25563 3.8916,0.31198 4.3183,0.0761 z m 8.24038,2.04976 c -0.16062,-0.0387 -0.65344,-0.14471 -1.09517,-0.23551 -0.44173,-0.0908 -0.94364,-0.25761 -1.11536,-0.37069 -0.28549,-0.188 -0.29972,-0.26776 -0.16608,-0.93156 0.0804,-0.39928 0.19699,-0.78226 0.25913,-0.85107 0.0621,-0.0688 0.55499,0.0169 1.09522,0.19052 1.09122,0.35065 3.38267,0.43693 4.33817,0.16334 0.72799,-0.20844 1.28867,-0.91804 1.28882,-1.63113 2.4e-4,-1.19534 -0.71016,-1.79372 -3.64732,-3.0722 -2.01889,-0.87877 -2.95316,-1.76298 -3.20063,-3.02909 -0.27919,-1.42844 0.13716,-2.76356 1.1241,-3.60468 1.24128,-1.05788 3.54113,-1.42224 5.89316,-0.93364 1.3723,0.28508 1.36794,0.28018 1.14833,1.29082 -0.10175,0.46827 -0.2567,0.85056 -0.34433,0.84955 -0.0876,-0.001 -0.48186,-0.10364 -0.87606,-0.22806 -0.9048,-0.28558 -3.0053,-0.29859 -3.63297,-0.0225 -0.76028,0.33442 -1.16818,0.89704 -1.16903,1.61245 -10e-4,1.07758 0.71939,1.78226 2.56253,2.50569 3.5379,1.38863 4.43241,2.38477 4.31171,4.80163 -0.0436,0.8722 -0.13349,1.23667 -0.40687,1.64885 -0.79851,1.20395 -2.20577,1.79136 -4.46858,1.86524 -0.8837,0.0289 -1.73814,0.0208 -1.89877,-0.018 z m 13.21677,-0.0946 c -1.56604,-0.36995 -2.42369,-1.24796 -2.83617,-2.90348 -0.18734,-0.75188 -0.22334,-2.09046 -0.21626,-8.0413 l 0.008,-7.13927 0.95508,-0.17103 c 0.5253,-0.0941 1.0183,-0.13045 1.09555,-0.0808 0.0786,0.0505 0.13942,0.97831 0.13808,2.10756 -0.002,1.70002 0.0339,2.03188 0.22853,2.10952 0.12701,0.0507 1.27718,0.0935 2.55594,0.0951 l 2.32502,0.003 -0.001,0.9042 -10e-4,0.90421 -2.51959,0.0382 -2.51959,0.0382 -0.005,4.2363 c -0.005,4.00876 0.0114,4.26884 0.30061,4.84189 0.46579,0.92286 1.06475,1.21403 2.46736,1.19947 0.71365,-0.007 1.37843,-0.10508 1.70782,-0.2509 0.67731,-0.29986 0.83158,-0.14478 0.88279,0.88743 l 0.0368,0.74254 -0.75798,0.25947 c -1.02603,0.35123 -2.84812,0.45539 -3.84533,0.21981 z m -41.117302,-0.34179 c -0.03963,-0.10774 -0.05011,-4.31492 -0.02329,-9.34929 l 0.04876,-9.15339 5.331204,0.007 5.331204,0.007 0.04236,0.94566 c 0.0233,0.52012 0.02277,0.95999 -0.0012,0.9775 -0.02394,0.0175 -1.916791,0.0662 -4.20634,0.10811 l -4.162818,0.0763 -0.0034,2.87464 -0.0034,2.87463 3.687976,0.0451 3.687977,0.0451 -0.0012,0.97823 -0.0012,0.97824 -3.688072,0.0357 -3.688073,0.0357 -0.07815,4.31186 -0.07816,4.31186 -1.061103,0.0431 c -0.765729,0.0311 -1.08116,-0.0114 -1.133157,-0.15274 z m 47.059002,0.13166 c -0.15427,-0.25927 4.14663,-11.73147 5.93966,-15.84344 1.32292,-3.03386 1.06342,-2.71542 2.25282,-2.76445 0.71585,-0.0295 1.07931,0.0176 1.17933,0.1528 0.2232,0.30172 1.80551,4.0053 2.89684,6.78038 1.45147,3.69087 4.2713,11.5562 4.19112,11.69023 -0.12934,0.21618 -2.19375,0.13055 -2.37688,-0.0986 -0.0932,-0.11663 -0.46285,-1.07712 -0.82141,-2.13443 -0.35857,-1.05731 -0.7186,-2.05177 -0.80007,-2.20993 -0.14017,-0.27212 -0.37089,-0.28784 -4.29709,-0.29285 -2.87673,-0.004 -4.17968,0.046 -4.24913,0.16213 -0.0551,0.0921 -0.44697,1.1639 -0.87085,2.38182 l -0.77068,2.21439 -1.10019,0.0426 c -0.6051,0.0234 -1.13317,-0.0129 -1.17347,-0.0806 z m 11.5381,-6.89647 c 0.0751,-0.20204 -1.85657,-5.60569 -2.71744,-7.60169 -0.44512,-1.03203 -0.60971,-1.2082 -0.84968,-0.90943 -0.45043,0.56078 -3.29809,8.18855 -3.17825,8.51326 0.11343,0.30731 6.63107,0.30524 6.74537,-0.002 z m 7.88185,6.79897 c -0.0499,-0.13513 -0.0859,-4.25465 -0.0801,-9.15449 0.0102,-8.60543 0.0201,-8.91405 0.28898,-9.06268 0.46355,-0.25622 3.7864,-0.50035 5.40981,-0.39746 3.44689,0.21845 5.67459,1.4189 6.51559,3.51108 0.5531,1.37597 0.51839,3.60284 -0.0778,4.9944 -0.35295,0.82375 -1.27013,1.77066 -2.17241,2.24283 -1.28083,0.67026 -2.29415,0.86744 -4.88876,0.95128 -1.63621,0.0529 -2.49237,0.13898 -2.58997,0.26049 -0.0843,0.1049 -0.1641,1.58131 -0.18916,3.49812 l -0.0434,3.31662 -1.04105,0.0428 c -0.85161,0.035 -1.05754,-0.002 -1.13173,-0.20294 z m 7.66119,-9.21183 c 1.05129,-0.34127 2.08742,-1.37879 2.34061,-2.34377 0.26816,-1.02207 0.10775,-2.31323 -0.3918,-3.15372 -0.33037,-0.55584 -0.6311,-0.8175 -1.42047,-1.23593 -0.99596,-0.52795 -1.01348,-0.53113 -3.24617,-0.58774 -1.62792,-0.0413 -2.30433,-0.006 -2.46144,0.12886 -0.17979,0.15417 -0.21734,0.77248 -0.22074,3.6347 -0.002,1.89691 0.0386,3.56467 0.0908,3.70614 0.0853,0.23107 0.31913,0.24986 2.30023,0.18478 1.5062,-0.0495 2.46006,-0.15514 3.00894,-0.33332 z m 8.41748,9.37053 c -0.0567,-0.0588 -0.0981,-4.24744 -0.0921,-9.30799 l 0.0109,-9.20099 0.33654,-0.087 c 0.1851,-0.0479 0.69451,-0.0655 1.13202,-0.0393 l 0.79547,0.0478 -0.0111,9.30474 -0.0111,9.30475 -1.02885,0.0425 c -0.56588,0.0234 -1.07523,-0.006 -1.1319,-0.0645 z"
         id="path2" /><path
         style="fill:#ffffff"
         d="m 67.542517,165.27734 c -0.522028,-0.1165 -1.569533,-0.53047 -2.327789,-0.91993 -1.13191,-0.58137 -1.604955,-0.94152 -2.643145,-2.01236 -1.058425,-1.0917 -1.375129,-1.53863 -1.943348,-2.74244 -1.497529,-3.17261 -1.493243,-6.36763 0.01279,-9.53169 0.972603,-2.04336 2.613201,-3.73859 4.588236,-4.74103 1.606496,-0.81538 2.938323,-1.14362 4.646467,-1.14514 3.924114,-0.004 7.629712,2.38261 9.295341,5.98545 0.755103,1.63333 1.000931,2.78816 0.998669,4.69148 -0.0013,1.11317 -0.08731,1.9898 -0.259684,2.64736 -1.253372,4.7814 -5.389227,8.04421 -10.132694,7.99379 -0.707133,-0.008 -1.71281,-0.10899 -2.234838,-0.22549 z m -2.593808,-4.87491 c 4.888969,-3.46151 8.734893,-6.34613 8.738236,-6.55408 0.0059,-0.36929 -0.295835,-0.43263 -2.071782,-0.4349 l -1.613924,-0.002 2.906413,-2.1119 c 1.909809,-1.38773 2.906521,-2.20356 2.90673,-2.37922 2.93e-4,-0.24654 -0.255124,-0.27052 -3.285997,-0.30861 -1.807473,-0.0227 -3.368707,0.0135 -3.46941,0.0804 -0.26355,0.17515 -5.330237,11.84771 -5.244061,12.08119 0.109156,0.29574 0.263773,0.24517 1.133795,-0.37082 z m 39.110301,3.74632 c -1.08952,-0.26722 -1.95244,-0.75803 -2.39705,-1.36339 -1.2212,-1.66271 -1.0249,-4.48717 0.38932,-5.60167 1.25899,-0.99217 3.41026,-1.46611 5.31296,-1.1705 0.60389,0.0938 1.22153,0.17075 1.37253,0.17094 0.37345,4.8e-4 0.48151,-0.61198 0.30455,-1.72609 -0.37118,-2.33693 -2.03648,-3.17754 -5.18178,-2.61567 -0.72041,0.1287 -1.32421,0.21906 -1.34178,0.20082 -0.0176,-0.0183 -0.076,-0.3803 -0.1298,-0.80457 l -0.0979,-0.77139 1.00237,-0.20814 c 0.55131,-0.11448 1.72537,-0.20722 2.60904,-0.20609 2.05872,0.003 2.9178,0.28872 3.88607,1.29418 1.14023,1.18402 1.1954,1.50592 1.25414,7.3176 0.0276,2.73579 -0.005,5.03165 -0.0733,5.1019 -0.39056,0.40357 -5.63852,0.69377 -6.90938,0.38207 z m 4.90728,-1.82789 c 0.15092,-0.21356 0.20738,-0.76941 0.20744,-2.04225 5e-5,-0.96185 -0.0386,-1.89914 -0.086,-2.08288 -0.12404,-0.4816 -0.83533,-0.67028 -2.53499,-0.67244 -1.25615,-0.002 -1.58401,0.0526 -2.26601,0.37503 -1.01007,0.47744 -1.3888,1.07154 -1.39087,2.18177 -0.004,1.98393 1.00161,2.61896 4.06166,2.5656 1.59283,-0.0278 1.82536,-0.0654 2.00872,-0.32483 z m 6.88365,1.76626 c -0.54402,-0.15243 -1.04912,-0.34025 -1.12246,-0.41738 -0.0806,-0.0847 -0.0729,-0.43046 0.0194,-0.8734 0.17068,-0.81909 0.0513,-0.79437 1.6504,-0.34184 0.99854,0.28258 2.94891,0.32485 3.79646,0.0823 0.31767,-0.0909 0.8029,-0.39813 1.0783,-0.6827 0.45908,-0.47437 0.4945,-0.57511 0.42602,-1.21152 -0.13627,-1.26629 -0.52122,-1.58572 -3.64245,-3.02241 -1.45822,-0.67122 -1.98195,-0.99508 -2.43553,-1.50606 -0.67199,-0.75702 -0.95373,-1.65709 -0.83674,-2.67305 0.30762,-2.67123 2.87917,-3.91663 6.66631,-3.22849 0.75909,0.13793 1.40629,0.2779 1.43822,0.31106 0.082,0.0852 -0.10969,1.18282 -0.24656,1.41158 -0.0906,0.15153 -0.30467,0.14338 -1.05172,-0.04 -2.06126,-0.50606 -4.11319,-0.13387 -4.59781,0.83397 -0.29609,0.59131 -0.26602,1.45054 0.0705,2.01621 0.34642,0.58222 0.93317,0.93262 2.92635,1.74761 2.52551,1.03266 3.33705,1.76569 3.65256,3.2992 0.12191,0.59254 0.11916,1.00888 -0.011,1.66425 -0.14622,0.73616 -0.28507,0.98588 -0.88027,1.5831 -0.94714,0.95036 -1.75336,1.20109 -4.0851,1.27045 -1.43855,0.0428 -2.03563,-0.004 -2.81494,-0.22283 z m 14.29739,0.12593 c -1.34191,-0.32809 -2.21401,-1.19402 -2.67601,-2.65709 -0.19452,-0.61604 -0.24053,-1.87781 -0.2869,-7.86935 -0.0628,-8.10784 -0.19062,-7.33551 1.24738,-7.53478 l 0.76273,-0.10569 0.0382,2.09398 0.0382,2.09398 2.55597,0.0789 2.55596,0.0789 -9e-4,0.75648 -9e-4,0.75649 -2.39959,0.0386 c -1.54196,0.0248 -2.47226,0.10096 -2.60292,0.213 -0.16677,0.14302 -0.19584,0.92442 -0.16168,4.34571 0.0412,4.12709 0.0455,4.17856 0.40678,4.85263 0.49617,0.92583 1.08396,1.21123 2.49895,1.21333 0.61249,9.1e-4 1.3877,-0.0981 1.7227,-0.22008 0.66629,-0.24255 0.61928,-0.28133 0.8682,0.71638 0.1667,0.66822 0.0906,0.73523 -1.2421,1.09297 -0.92511,0.24834 -2.43265,0.27355 -3.32414,0.0556 z m -40.975389,-9.41554 0.01097,-9.22909 5.265462,0.007 5.265463,0.007 -0.04484,0.8699 -0.04484,0.8699 -4.162811,0.0703 -4.162811,0.0703 -0.0432,2.85498 c -0.02992,1.97771 0.0081,2.91918 0.123789,3.06391 0.133595,0.16717 0.878918,0.20985 3.727579,0.21349 l 3.560595,0.005 -9.89e-4,0.83213 -9.9e-4,0.83213 -3.442021,-0.004 c -2.093354,-0.003 -3.552791,0.0568 -3.724725,0.15187 -0.269156,0.14877 -0.282946,0.35904 -0.287734,4.38724 l -0.005,4.23098 -1.022423,-0.001 -1.022423,-0.001 z m 47.088119,9.02439 c 0.0544,-0.14555 0.82607,-2.27218 1.71483,-4.72584 1.66564,-4.59841 3.16414,-8.40477 4.55431,-11.5684 l 0.79735,-1.81455 1.06709,0.001 1.06709,0.001 0.79387,1.81657 c 1.27701,2.92213 3.0863,7.56171 4.69292,12.03409 0.82242,2.28941 1.52673,4.24771 1.56511,4.35178 0.0521,0.14109 -0.21142,0.18885 -1.03614,0.1878 -1.30359,-0.002 -1.13991,0.19764 -2.06507,-2.51441 -0.36165,-1.06016 -0.73008,-2.01833 -0.81875,-2.12927 -0.1273,-0.1593 -1.03198,-0.20282 -4.30267,-0.20699 -4.86934,-0.006 -4.20862,-0.35287 -5.24995,2.75447 l -0.69687,2.07945 -1.09101,-0.001 c -0.97924,-0.001 -1.08088,-0.0285 -0.99211,-0.26604 z m 11.39399,-6.3183 c 0.12713,-0.0504 0.23124,-0.17492 0.23136,-0.27682 2.6e-4,-0.21456 -2.39818,-6.69562 -2.96265,-8.00568 -0.26997,-0.62656 -0.44969,-0.86788 -0.62033,-0.83292 -0.29793,0.061 -1.18969,2.10997 -2.57289,5.91157 -0.84194,2.314 -0.99948,2.87956 -0.85313,3.06268 0.14859,0.18592 0.72767,0.22529 3.363,0.22865 1.75092,0.002 3.28751,-0.0371 3.41464,-0.0875 z m 8.0106,-2.50106 0.0485,-9.10882 0.58441,-0.14139 c 0.96226,-0.23282 6.15441,-0.19928 7.08388,0.0457 2.85486,0.75262 4.37464,2.35814 4.60868,4.86867 0.23568,2.52817 -0.76249,4.47813 -2.79505,5.46022 -1.25678,0.60726 -2.53006,0.84767 -5.12225,0.96717 -2.10405,0.097 -2.23664,0.12116 -2.31497,0.42195 -0.0457,0.17549 -0.0857,1.7318 -0.0888,3.45847 l -0.006,3.1394 -1.02356,-0.001 -1.02357,-0.001 z m 7.39843,-0.0364 c 1.58337,-0.50103 2.37562,-1.34648 2.66853,-2.84769 0.33294,-1.70634 -0.3311,-3.28528 -1.70687,-4.05856 -0.9497,-0.53381 -2.08385,-0.73442 -4.16698,-0.73708 -1.36476,-0.002 -1.76244,0.0464 -1.94527,0.23527 -0.19559,0.20211 -0.23042,0.75546 -0.23394,3.71643 -0.003,2.26136 0.0525,3.58894 0.15774,3.79319 0.15578,0.30242 0.2423,0.31111 2.30018,0.23106 1.35228,-0.0526 2.42808,-0.17487 2.92661,-0.33262 z m 8.66831,-0.0255 0.0486,-9.19122 0.98597,-0.0435 0.98596,-0.0435 -0.011,9.23601 -0.011,9.236 -1.02355,-0.001 -1.02356,-0.001 z"
         id="path1" /></g></g></svg>
