<?xml version="1.0" encoding="UTF-8" standalone="no"?>
<!-- Created with Inkscape (http://www.inkscape.org/) -->

<svg
   width="148.04691mm"
   height="32.638424mm"
   viewBox="0 0 148.04691 32.638424"
   version="1.1"
   id="svg1"
   xml:space="preserve"
   xmlns="http://www.w3.org/2000/svg"
   xmlns:svg="http://www.w3.org/2000/svg"><defs
     id="defs1" /><g
     id="layer1"
     transform="translate(-31.316225,-148.19655)"><g
       id="g1"
       transform="translate(-4.285242,-2.1426207)"
       style="fill:#ffffff"><path
         style="fill:#ffffff"
         d="m 97.95555,182.73053 c -0.207207,-0.16396 -0.254891,-0.31848 -0.154188,-0.49966 0.224565,-0.40402 9.057278,-12.21749 9.622718,-12.87008 0.27459,-0.31691 0.5815,-0.5762 0.68203,-0.5762 0.15501,0 2.99459,3.65687 3.41614,4.39938 0.17337,0.30537 0.17921,0.29671 -3.64671,5.41341 -1.6659,2.22795 -3.20375,4.12275 -3.41745,4.21067 -0.64926,0.26712 -6.149859,0.20155 -6.50254,-0.0775 z m -62.17731,-0.28285 c -0.183493,-0.37102 -0.251698,-31.30899 -0.07015,-31.82095 0.08618,-0.24302 0.54462,-0.28044 3.435857,-0.28044 h 3.336411 l 1.19243,1.56314 c 0.655836,0.85973 5.873962,7.83257 11.595834,15.4952 l 10.403405,13.93206 0.08192,-15.45088 0.08192,-15.45087 h 13.024734 13.024735 l 0.0457,2.56935 c 0.04021,2.26091 0.01187,2.59612 -0.236105,2.79234 -0.219115,0.17338 -2.516949,0.22298 -10.329487,0.22298 H 71.31775 l 0.04422,3.76745 0.04422,3.76744 8.191657,0.0886 8.191657,0.0887 v 2.74801 2.74802 l -8.191657,0.0887 -8.191657,0.0886 v 3.81177 3.81176 l 10.239571,0.092 c 5.631764,0.0506 10.259923,0.11044 10.284797,0.13297 0.02487,0.0225 0.02487,1.25763 0,2.74466 l -0.04523,2.70369 -16.137564,0.0415 -16.137564,0.0415 -9.09274,-12.19256 -9.092739,-12.19255 -0.08192,11.9738 c -0.04505,6.58559 -0.141561,12.07353 -0.21446,12.19542 -0.09659,0.16149 -0.817252,0.22161 -2.656524,0.22161 -2.32771,0 -2.537169,-0.0267 -2.693578,-0.34293 z m 73.9649,-15.47167 c -6.48779,-8.69383 -11.819316,-15.99209 -11.847828,-16.21835 l -0.05184,-0.41137 h 3.446108 3.44611 l 4.14206,5.57258 c 2.27813,3.06493 4.1939,5.57803 4.25726,5.58468 0.0634,0.007 1.49765,-1.84282 3.1873,-4.10993 1.68965,-2.26711 3.57799,-4.78182 4.19631,-5.58824 l 1.12423,-1.46621 3.3865,0.0479 c 2.85667,0.0404 3.39374,0.0895 3.43279,0.31382 0.0255,0.14627 -2.56927,3.76942 -5.76608,8.05145 -3.19681,4.28204 -5.77691,7.84761 -5.73357,7.92349 0.0433,0.0759 2.65746,3.59035 5.80917,7.80991 3.1517,4.21957 5.73037,7.81435 5.73037,7.98841 0,0.29397 -0.24764,0.31621 -3.48145,0.31267 l -3.48146,-0.004 z m 34.43617,15.70063 c -0.0622,-0.0673 -0.11313,-6.09271 -0.11313,-13.38972 v -13.26731 l -4.95595,-0.003 c -2.72578,-10e-4 -5.05015,-0.0674 -5.16529,-0.14647 -0.15807,-0.10855 -0.19819,-0.79175 -0.16383,-2.78963 l 0.0455,-2.64586 12.93253,-0.0454 c 10.23766,-0.0359 12.95976,0.001 13.06319,0.17729 0.0719,0.12249 0.13178,1.2741 0.13316,2.55915 0.002,1.89022 -0.0467,2.38965 -0.25495,2.61504 -0.22257,0.24086 -0.92155,0.2786 -5.1597,0.2786 h -4.90226 l -0.042,13.34118 -0.042,13.34117 -2.63107,0.0486 c -1.44709,0.0267 -2.68199,-0.007 -2.74421,-0.0739 z m 15.74367,-0.33865 c -0.63266,-0.37159 -0.90983,-1.42949 -0.56409,-2.15299 0.53871,-1.12733 2.14225,-1.23112 2.73614,-0.17711 0.37017,0.65696 0.3957,0.99172 0.12473,1.63528 -0.36844,0.87508 -1.43865,1.19884 -2.29678,0.69482 z m 6.0244,0.0108 c -1.31083,-0.50532 -2.12895,-1.51928 -2.31622,-2.87065 -0.14113,-1.01846 0.0131,-1.13667 1.40502,-1.07688 1.04684,0.045 1.06882,0.0562 1.3416,0.68456 0.32626,0.75156 1.02759,1.13368 1.76085,0.9594 0.96863,-0.23022 0.99402,-0.37877 0.99402,-5.81569 0,-3.06372 0.0643,-5.06646 0.1696,-5.27929 0.14263,-0.2884 0.35013,-0.34293 1.3049,-0.34293 0.98644,0 1.1595,0.0489 1.31984,0.37314 0.12869,0.26021 0.16583,1.88319 0.12273,5.36306 -0.0531,4.2878 -0.10254,5.08971 -0.3513,5.69909 -0.67361,1.65016 -2.09682,2.57103 -3.95835,2.56121 -0.63076,-0.003 -1.43747,-0.11809 -1.79269,-0.25502 z m 10.16453,-0.17393 c -0.53166,-0.23653 -1.2127,-0.68812 -1.51343,-1.00355 -0.63281,-0.66372 -1.09253,-1.82628 -1.01455,-2.56563 l 0.0541,-0.51328 h 1.22746 1.22746 l 0.28708,0.65978 c 0.40906,0.94008 1.06333,1.25454 2.43566,1.17063 1.34105,-0.082 1.94908,-0.54753 1.94908,-1.49227 0,-0.75209 -0.5958,-1.15624 -2.45749,-1.66698 -3.33106,-0.91386 -4.42671,-1.95588 -4.4208,-4.20445 0.008,-2.99818 3.20323,-4.86535 6.57449,-3.84172 1.62253,0.49266 3.01215,2.17016 2.89366,3.49312 l -0.0504,0.56315 -1.19311,0.0522 -1.1931,0.0522 -0.24733,-0.64057 c -0.32458,-0.84063 -1.11973,-1.21541 -2.34534,-1.10542 -0.71537,0.0642 -0.96857,0.17554 -1.27454,0.56047 -0.93469,1.1759 -0.31058,1.79069 2.73101,2.69023 2.817,0.83313 4.13438,2.42145 3.82137,4.60731 -0.33726,2.35528 -2.09827,3.62713 -5.01092,3.61903 -1.2213,-0.003 -1.70043,-0.0873 -2.48035,-0.43426 z"
         id="path7" /><path
         style="fill:#ffffff"
         d="m 59.342554,182.12531 c -0.303337,-0.36592 -4.495805,-5.95302 -9.316595,-12.41578 l -8.765073,-11.75048 -0.08192,12.28281 -0.08192,12.28281 h -2.621331 -2.62133 l -0.04184,-15.84826 c -0.03053,-11.56223 0.0081,-15.91341 0.142936,-16.08919 0.143421,-0.187 0.856619,-0.24093 3.186495,-0.24093 2.880854,0 3.018406,0.0161 3.416216,0.39891 0.227975,0.21939 5.5059,7.22019 11.728723,15.55731 6.222822,8.33713 11.385464,15.18501 11.472538,15.21751 0.101076,0.0377 0.158316,-5.54822 0.158316,-15.4497 0,-13.97845 0.02557,-15.51942 0.25915,-15.61642 0.394287,-0.16373 25.186426,-0.12311 25.426367,0.0417 0.157833,0.10839 0.198216,0.77414 0.163833,2.70098 l -0.04563,2.55714 -10.201744,0.0457 -10.201744,0.0457 0.04409,3.94339 0.04409,3.94339 8.101037,0.046 c 6.230933,0.0354 8.130832,0.0968 8.230106,0.26594 0.151017,0.25732 0.180841,4.40271 0.03464,4.815 -0.08884,0.25053 -0.970972,0.28043 -8.273573,0.28043 h -8.174129 v 4.07636 4.07636 l 10.198613,0.0457 10.198613,0.0457 0.04563,2.55714 c 0.03438,1.92684 -0.006,2.59259 -0.163833,2.70098 -0.115205,0.0791 -7.296907,0.14506 -15.959339,0.14655 l -15.749876,0.003 z m 38.600145,0.48021 c -0.143434,-0.25115 -0.219825,-0.14276 5.117691,-7.26115 2.67112,-3.56235 4.83396,-6.29384 4.98356,-6.29384 0.24774,0 3.41944,4.05518 3.41944,4.37194 0,0.0803 -0.63995,1.00426 -1.4221,2.05334 -0.78215,1.04908 -2.19263,2.94457 -3.13439,4.2122 -2.55038,3.43288 -1.94545,3.1026 -5.68255,3.1026 -2.029759,0 -3.214093,-0.0668 -3.281651,-0.18509 z m 23.406891,-0.38749 c -0.27833,-0.3189 -5.64367,-7.46679 -11.92299,-15.88419 -6.94237,-9.30624 -11.396245,-15.42089 -11.36415,-15.60164 0.04684,-0.26379 0.406204,-0.30268 3.19125,-0.34537 3.06547,-0.047 3.14791,-0.0387 3.54415,0.35459 0.22312,0.22147 2.1571,2.75622 4.29773,5.63278 2.14063,2.87655 3.97151,5.23009 4.06862,5.23009 0.0971,0 2.02676,-2.47321 4.28811,-5.49603 l 4.11154,-5.49603 3.38717,-0.0479 c 2.67045,-0.0378 3.38718,2.2e-4 3.38718,0.1796 0,0.12514 -2.61413,3.72997 -5.80917,8.01073 -3.19505,4.28076 -5.77372,7.84529 -5.73038,7.92117 0.0433,0.0759 2.65937,3.59289 5.8134,7.81557 3.15403,4.22267 5.71331,7.79751 5.68729,7.94409 -0.0398,0.2243 -0.55372,0.27408 -3.24551,0.31444 l -3.19819,0.0479 z m 23.08627,0.42714 c -0.15885,-0.10917 -0.213,-3.06761 -0.24575,-13.42711 l -0.042,-13.28709 -4.98307,-0.047 c -3.343,-0.0315 -5.05503,-0.11159 -5.2017,-0.24332 -0.34197,-0.30713 -0.30844,-4.64001 0.0388,-5.01579 0.22957,-0.24843 1.61868,-0.2786 12.82813,-0.2786 9.55875,0 12.61779,0.051 12.76728,0.21275 0.27296,0.29538 0.27296,4.77515 0,5.07053 -0.14411,0.15596 -1.49998,0.21275 -5.07882,0.21275 h -4.88223 v 13.19555 c 0,11.75955 -0.028,13.22586 -0.25745,13.47414 -0.20923,0.22641 -0.67726,0.27809 -2.49846,0.27588 -1.23255,-0.001 -2.33269,-0.0657 -2.44474,-0.14272 z m 22.06554,-0.27022 c -1.52829,-0.45334 -2.48216,-1.40654 -2.70734,-2.70542 -0.17407,-1.0041 -0.0421,-1.13391 1.15237,-1.13391 h 1.06673 l 0.3303,0.70062 c 0.391,0.82939 1.17119,1.16978 1.98098,0.8643 0.84936,-0.32041 0.8836,-0.53482 0.97204,-6.08585 l 0.0819,-5.14145 h 1.22875 1.22875 v 5.31874 c 0,5.10667 -0.0141,5.34702 -0.35268,6.0279 -0.19398,0.39005 -0.52574,0.87967 -0.73725,1.08807 -1.02763,1.01248 -2.86841,1.47521 -4.24457,1.067 z m 10.77412,0.0604 c -2.00951,-0.38259 -3.55554,-1.95958 -3.55554,-3.62674 v -0.62759 h 1.1435 1.1435 l 0.34065,0.72258 c 0.44751,0.94925 1.17777,1.28895 2.56532,1.19334 0.86036,-0.0593 1.10722,-0.15393 1.52135,-0.58328 0.5871,-0.60869 0.64982,-1.34168 0.16013,-1.87159 -0.40517,-0.43845 -0.75608,-0.58863 -2.49645,-1.06839 -1.67465,-0.46165 -3.18123,-1.31115 -3.58494,-2.02141 -1.22654,-2.15785 -0.3237,-4.60437 2.05447,-5.56725 1.1285,-0.45691 2.97317,-0.50552 4.05441,-0.10685 1.4163,0.52223 2.60038,2.01026 2.60038,3.26788 v 0.53894 h -1.06286 c -1.05993,0 -1.06398,-0.002 -1.47217,-0.70165 -0.47311,-0.81102 -1.34007,-1.16428 -2.50778,-1.02185 -1.58973,0.1939 -2.17117,1.96218 -0.88235,2.6834 0.26313,0.14725 1.05884,0.4342 1.76825,0.63768 2.84629,0.81641 4.17158,1.9032 4.40886,3.61543 0.23462,1.69311 -0.51037,3.12269 -2.06005,3.95306 -1.17707,0.63071 -2.73766,0.85103 -4.13868,0.58429 z m -17.54871,-0.54481 c -0.55582,-0.71482 -0.53918,-1.30752 0.0548,-1.95024 0.74062,-0.80146 1.79617,-0.7051 2.23041,0.20361 0.35285,0.7384 0.29382,1.29872 -0.19223,1.8247 -0.63257,0.68453 -1.52586,0.65121 -2.09293,-0.0781 z"
         id="path6" /><path
         style="fill:#ffffff"
         d="m 36.04973,182.49967 c -0.06238,-0.0675 -0.113421,-7.28974 -0.113421,-16.04941 v -15.92668 h 3.164094 3.164095 l 0.424822,0.48755 c 0.233652,0.26816 5.488088,7.26895 11.676524,15.55732 6.188436,8.28837 11.319254,15.09636 11.401816,15.12886 0.09018,0.0355 0.151115,-6.08696 0.152622,-15.3357 0.0014,-8.46714 0.06131,-15.49502 0.133169,-15.61751 0.10342,-0.17628 2.792767,-0.21324 12.899351,-0.17729 l 12.768691,0.0454 v 2.48208 2.48208 l -10.239571,0.092 c -5.631764,0.0506 -10.259413,0.11044 -10.283664,0.13297 -0.02425,0.0225 -0.02425,1.81609 0,3.9857 l 0.04409,3.94473 8.191657,0.0886 8.191657,0.0887 0.04546,2.5264 c 0.025,1.38952 0.025,2.54448 0,2.56658 -0.025,0.0221 -3.731702,0.0819 -8.237114,0.13297 l -8.191657,0.0928 v 3.98906 3.98905 l 10.060481,0.0457 c 7.219959,0.0328 10.123872,0.10263 10.284998,0.24733 0.174343,0.15658 0.214366,0.74068 0.179091,2.61368 l -0.04543,2.41203 -15.974737,0.0452 -15.974736,0.0452 -9.173651,-12.31389 c -5.045507,-6.77264 -9.247375,-12.29124 -9.337483,-12.26355 -0.106164,0.0326 -0.192668,4.35124 -0.24575,12.26871 l -0.08192,12.21835 -2.385034,0.0489 c -1.311769,0.0269 -2.436074,-0.006 -2.498456,-0.0739 z m 62.007623,-0.12729 c 0.100775,-0.46668 9.719097,-13.21902 9.975657,-13.22612 0.2773,-0.008 3.26704,3.91839 3.26577,4.28852 -4.3e-4,0.12393 -1.49392,2.21985 -3.31887,4.65761 l -3.31809,4.43228 -3.32905,0.048 c -2.786759,0.0402 -3.320313,0.008 -3.275417,-0.20033 z m 11.848067,-15.55986 c -6.48694,-8.69044 -11.818569,-15.91231 -11.848067,-16.04859 -0.04484,-0.20714 0.491909,-0.2399 3.272647,-0.19974 l 3.32627,0.048 3.95741,5.29264 c 2.17658,2.91096 4.10453,5.45185 4.28434,5.64643 0.32668,0.35352 0.32979,0.34993 4.13914,-4.76077 2.09672,-2.81301 4.03717,-5.37384 4.31211,-5.69075 l 0.49988,-0.5762 h 3.16261 c 2.68701,0 3.16261,0.0396 3.16261,0.26314 0,0.14472 -2.57891,3.71492 -5.73091,7.93378 -3.152,4.21886 -5.73237,7.7506 -5.73416,7.84831 -0.002,0.0977 2.57712,3.62849 5.73091,7.84618 3.15378,4.2177 5.73416,7.78774 5.73416,7.93343 0,0.22606 -0.47458,0.2649 -3.23726,0.2649 h -3.23725 z m 34.45006,15.76109 c -0.0211,-0.0269 -0.0764,-6.07241 -0.12287,-13.43444 l -0.0845,-13.38549 -5.12427,-0.0469 -5.12427,-0.0469 0.0454,-2.52387 0.0454,-2.52387 12.81995,-0.0454 12.81994,-0.0454 v 2.57181 2.5718 l -4.87404,0.003 c -2.68072,0.001 -4.96572,0.0657 -5.07777,0.14272 -0.15885,0.10917 -0.213,3.06761 -0.24575,13.42711 l -0.042,13.28709 -2.49846,0.0489 c -1.37415,0.0269 -2.51572,0.0269 -2.53682,0 z m 15.84827,-0.33501 c -1.11962,-0.68762 -0.93862,-2.3998 0.28893,-2.7332 1.29346,-0.35131 2.24812,1.62176 1.22797,2.53795 -0.35708,0.32071 -1.14707,0.42239 -1.5169,0.19525 z m 6.14268,0.0423 c -1.31228,-0.46563 -2.16751,-1.34311 -2.46181,-2.52585 -0.24425,-0.98159 -0.032,-1.21944 1.08829,-1.21944 0.8457,0 0.89446,0.0266 1.28821,0.70154 0.61309,1.05097 1.34398,1.33226 2.27234,0.87453 0.77645,-0.38284 0.83679,-0.78603 0.92563,-6.18565 l 0.0831,-5.0528 h 1.06492 1.06492 l 0.0489,5.0528 c 0.0318,3.28739 -0.0137,5.28612 -0.13027,5.72059 -0.22993,0.85716 -1.01592,1.82269 -1.86908,2.29599 -0.72817,0.40397 -2.64781,0.59637 -3.37515,0.33829 z m 10.10301,-0.13433 c -1.03993,-0.35679 -2.29637,-1.65974 -2.57164,-2.66687 -0.31488,-1.15202 -0.17601,-1.325 1.01393,-1.26287 0.9869,0.0515 1.02099,0.07 1.36662,0.73951 0.19496,0.37766 0.53299,0.79259 0.75117,0.92206 1.5211,0.90262 3.91679,0.11343 3.95396,-1.30252 0.0212,-0.80762 -0.55435,-1.40922 -1.66559,-1.74097 -2.42341,-0.72348 -3.09689,-0.9841 -3.80906,-1.47403 -1.80935,-1.2447 -1.93663,-3.89668 -0.26058,-5.42964 0.95985,-0.87791 1.88058,-1.21718 3.32481,-1.22513 2.21874,-0.0122 3.5611,0.72774 4.3479,2.39668 0.59116,1.25396 0.40698,1.5846 -0.87985,1.57949 -0.8192,-0.003 -0.9677,-0.0962 -1.31038,-0.8202 -0.65726,-1.38859 -3.80405,-1.23883 -4.13703,0.19689 -0.28044,1.20913 0.28117,1.69514 2.82489,2.44461 1.81202,0.53389 2.72864,1.06229 3.39211,1.95545 0.41013,0.55211 0.51044,0.86978 0.56444,1.78752 0.10405,1.76844 -0.56386,2.8955 -2.18279,3.68333 -1.05499,0.51339 -3.52746,0.62683 -4.72291,0.21669 z"
         id="path5" /><path
         style="fill:#ffffff"
         d="m 36.140214,182.46658 c -0.163022,-0.112 -0.196999,-3.42982 -0.163833,-15.99783 l 0.04184,-15.85652 2.997844,-0.0484 c 1.648813,-0.0266 3.113041,0.0214 3.25384,0.10668 0.140798,0.0853 5.466326,7.12776 11.834505,15.64999 6.36818,8.52223 11.649781,15.49497 11.736892,15.49497 0.100136,0 0.18851,-5.73773 0.240301,-15.60164 l 0.08192,-15.60164 12.615152,-0.046 c 11.714391,-0.0427 12.629774,-0.0245 12.819943,0.2555 0.230153,0.33882 0.289797,4.24666 0.07052,4.62031 -0.100224,0.17078 -2.408766,0.23051 -10.278021,0.26594 l -10.148766,0.0457 -0.04403,4.03338 -0.04403,4.03337 h 7.999586 c 6.174073,0 8.063997,0.051 8.281839,0.22335 0.246464,0.19502 0.2764,0.51535 0.236104,2.5264 l -0.04615,2.30306 -8.191657,0.0886 -8.191657,0.0887 v 4.16635 4.16634 l 10.148766,0.0457 c 7.869255,0.0354 10.177797,0.0952 10.278021,0.26594 0.219282,0.37365 0.159636,4.2815 -0.07052,4.62015 -0.190648,0.28051 -1.296301,0.29816 -16.009112,0.2555 l -15.804322,-0.0458 -9.18887,-12.31009 c -5.053878,-6.77055 -9.277139,-12.34193 -9.385024,-12.38085 -0.151062,-0.0545 -0.196154,2.76083 -0.196154,12.2468 0,11.06845 -0.02628,12.32847 -0.259149,12.42517 -0.383496,0.15925 -4.376297,0.12541 -4.615773,-0.0391 z m 61.989101,0.002 c -0.08939,-0.15651 9.583025,-13.18738 9.863755,-13.28864 0.16223,-0.0585 3.30648,3.97127 3.30648,4.23772 0,0.16869 -6.34081,8.68396 -6.68278,8.9745 -0.29927,0.25427 -6.345208,0.32549 -6.487455,0.0764 z m 22.303265,-1.66826 c -6.76623,-8.95126 -22.134585,-29.68325 -22.197834,-29.94498 -0.07612,-0.31501 0.07397,-0.3313 3.051874,-0.3313 2.77791,0 3.16435,0.0354 3.41865,0.31352 0.15769,0.17244 2.08882,2.72831 4.2914,5.67971 2.20257,2.95141 4.09631,5.34337 4.2083,5.31548 0.11199,-0.0279 2.01847,-2.48403 4.23662,-5.45809 2.21816,-2.97407 4.15378,-5.50712 4.30138,-5.629 0.31991,-0.26419 5.87993,-0.31335 6.25673,-0.0553 0.19131,0.13101 0.12841,0.30325 -0.33895,0.92807 -4.86178,6.49986 -10.91513,14.64147 -11.00321,14.79904 -0.0664,0.11873 2.30096,3.43327 5.69818,7.97811 3.19644,4.27625 5.78876,7.85478 5.7607,7.95229 -0.031,0.10783 -1.27664,0.19614 -3.17918,0.2254 l -3.12816,0.0481 z m 24.03777,1.59184 c -0.0424,-0.12188 -0.0954,-6.1653 -0.11774,-13.42982 l -0.0407,-13.2082 -5.16074,-0.0887 -5.16075,-0.0886 -0.0455,-2.32329 c -0.0355,-1.81184 0.005,-2.36823 0.18185,-2.5275 0.16823,-0.15109 3.50529,-0.19241 12.82453,-0.1588 l 12.59713,0.0454 v 2.48208 2.48208 l -4.99691,0.0886 -4.99691,0.0887 -0.042,13.19141 c -0.0299,9.38653 -0.0948,13.26019 -0.22486,13.42983 -0.25325,0.33022 -4.70301,0.34572 -4.81737,0.0168 z m 22.05614,-0.16052 c -1.48903,-0.37457 -2.6365,-1.67125 -2.6365,-2.97934 v -0.53893 h 1.04504 c 1.00973,0 1.05201,0.0182 1.25133,0.53893 0.27613,0.72141 0.75811,1.05669 1.51902,1.05669 0.80032,0 1.19645,-0.232 1.50749,-0.88291 0.20339,-0.42561 0.24745,-1.39992 0.24745,-5.47181 0,-5.50692 -0.0749,-5.16922 1.14683,-5.16922 1.22051,0 1.14727,-0.32219 1.14292,5.02745 -0.002,2.64672 -0.071,5.12547 -0.15309,5.50832 -0.46941,2.19025 -2.74402,3.49604 -5.07049,2.91082 z m 10.96165,0.0933 c -1.98307,-0.4139 -3.30643,-1.60228 -3.66834,-3.2942 -0.1267,-0.5923 0.23441,-0.84923 1.19361,-0.84923 0.7002,0 0.83249,0.10161 1.3412,1.0301 0.3824,0.69794 1.17684,1.0974 2.18252,1.0974 2.22626,0 3.39251,-1.96996 1.82446,-3.08178 -0.22908,-0.16243 -1.13521,-0.502 -2.01361,-0.7546 -2.71025,-0.77938 -3.77997,-1.57685 -4.15458,-3.09723 -0.38912,-1.57926 0.47952,-3.31508 2.07303,-4.14258 0.94556,-0.49102 3.21423,-0.58449 4.34262,-0.17891 1.0238,0.36799 2.19914,1.54625 2.41571,2.42172 0.22452,0.90759 0.10946,1.03256 -0.95064,1.03256 -0.91202,0 -0.96262,-0.0245 -1.28909,-0.62325 -0.97017,-1.77938 -4.3345,-1.29853 -4.3345,0.61952 0,0.99251 0.39084,1.24753 3.40722,2.22317 0.80769,0.26125 1.77726,0.70485 2.15459,0.98579 2.27229,1.6918 1.56383,5.29686 -1.24676,6.34427 -0.63531,0.23675 -2.64024,0.40024 -3.27744,0.26725 z m -17.68209,-0.53286 c -0.18675,-0.25693 -0.33955,-0.64507 -0.33955,-0.86255 0,-0.21748 0.1528,-0.60562 0.33955,-0.86255 0.72595,-0.99869 2.28178,-0.35489 2.28178,0.9442 0,1.15974 -1.60671,1.70961 -2.28178,0.7809 z"
         id="path4" /><path
         style="fill:#ffffff"
         d="m 36.01725,182.03712 c -0.04902,-0.2194 -0.06886,-7.33986 -0.04408,-15.82325 l 0.04505,-15.42435 h 3.194297 3.194297 l 11.590593,15.51299 c 6.374826,8.53215 11.701249,15.53871 11.836497,15.57013 0.216935,0.0504 0.250834,-1.77709 0.287759,-15.51299 l 0.04185,-15.57013 12.738027,-0.0454 12.738026,-0.0454 v 2.37555 c 0,2.00264 -0.04068,2.39245 -0.259149,2.48317 -0.142532,0.0592 -4.742451,0.10761 -10.222043,0.10761 -8.933721,0 -9.973166,0.029 -10.062338,0.28044 -0.197999,0.55836 -0.11055,7.61474 0.09716,7.83951 0.147596,0.15972 2.210954,0.21274 8.278196,0.21274 h 8.081597 l -0.04558,2.43776 -0.04558,2.43776 -8.101037,0.046 c -6.230933,0.0354 -8.130833,0.0968 -8.230106,0.26594 -0.168558,0.28721 -0.168385,7.77646 1.85e-4,8.0637 0.100224,0.17078 2.408766,0.23051 10.278021,0.26594 l 10.148766,0.0457 0.04558,2.43776 0.04558,2.43776 -15.937396,-0.005 -15.937396,-0.005 -9.246137,-12.40503 C 45.442514,163.19826 41.221763,157.616 41.148442,157.616 c -0.07332,0 -0.133311,5.45848 -0.133311,12.12995 0,6.67148 -0.04475,12.25616 -0.09944,12.4104 -0.0843,0.23772 -0.458121,0.28044 -2.454375,0.28044 -2.306519,0 -2.356764,-0.008 -2.444066,-0.39891 z m 62.18594,0.26594 c 0.0264,-0.34125 9.61096,-12.89795 9.84503,-12.89795 0.28765,0 3.08838,3.65416 3.08611,4.0265 -7.7e-4,0.12567 -1.47796,2.20308 -3.28265,4.61646 l -3.28125,4.38796 h -3.18876 c -1.753824,0 -3.184138,-0.0598 -3.17848,-0.13297 z m 11.7857,-15.58401 c -6.44274,-8.63833 -11.738646,-15.77629 -11.768683,-15.86212 -0.03029,-0.0866 1.369674,-0.15606 3.144153,-0.15606 h 3.19875 l 4.20567,5.629 c 2.31311,3.09595 4.28842,5.629 4.38957,5.629 0.10116,0 2.06615,-2.5131 4.36667,-5.58467 l 4.18275,-5.58468 3.15138,-0.0482 c 2.03327,-0.0311 3.15138,0.0151 3.15138,0.13016 0,0.0981 -2.57891,3.63011 -5.73091,7.84897 -3.152,4.21886 -5.73237,7.7506 -5.73416,7.84831 -0.002,0.0977 2.57713,3.62849 5.73091,7.84618 3.15379,4.2177 5.73416,7.74785 5.73416,7.84479 0,0.11089 -1.16952,0.17422 -3.15378,0.17079 l -3.15379,-0.005 z m 34.48146,15.49536 c -0.0424,-0.12189 -0.0954,-6.12541 -0.11773,-13.34117 l -0.0407,-13.11956 -5.07883,-0.0887 -5.07882,-0.0886 -0.0456,-2.43885 -0.0456,-2.43884 12.74266,0.0454 12.74265,0.0454 0.0462,2.19121 c 0.0308,1.46412 -0.0166,2.27302 -0.14294,2.43776 -0.15371,0.20042 -1.10141,0.24654 -5.06648,0.24654 -4.29642,0 -4.88925,0.0334 -4.97685,0.28044 -0.0547,0.15424 -0.0994,6.17771 -0.0994,13.3855 V 182.436 h -2.38072 c -1.75426,0 -2.401,-0.0583 -2.45777,-0.22162 z m 15.63728,-0.18293 c -0.50281,-0.41776 -0.6852,-1.00251 -0.47995,-1.53875 0.49542,-1.29428 2.14897,-1.09305 2.39604,0.2916 0.18687,1.04722 -1.12725,1.90256 -1.91609,1.24715 z m 5.95133,-0.009 c -0.87075,-0.34173 -1.62589,-1.1123 -1.92747,-1.96683 -0.40042,-1.13464 -0.27433,-1.34233 0.81494,-1.34233 0.88417,0 0.90964,0.0143 1.228,0.6896 0.46933,0.99552 1.51375,1.35065 2.44296,0.83067 0.79125,-0.44278 0.84293,-0.80737 0.84293,-5.9464 0,-2.62021 0.0447,-4.89022 0.0994,-5.04446 0.0751,-0.21168 0.33539,-0.28044 1.0618,-0.28044 0.88905,0 0.97015,0.0336 1.06482,0.44182 0.0564,0.243 0.0732,2.5766 0.0375,5.18577 -0.0605,4.41509 -0.0891,4.79312 -0.41201,5.45312 -0.47178,0.96414 -1.14288,1.61709 -1.99732,1.94332 -0.83377,0.31834 -2.48971,0.33673 -3.25556,0.0362 z m 10.44618,-0.0358 c -1.35841,-0.45644 -2.60661,-1.99615 -2.61773,-3.22908 -0.003,-0.36964 0.0683,-0.3989 0.97607,-0.3989 h 0.97967 l 0.34065,0.72257 c 0.41896,0.8887 1.17885,1.27972 2.47045,1.27125 1.48888,-0.01 2.43822,-0.72908 2.43822,-1.84744 0,-1.12657 -0.42799,-1.44195 -2.95208,-2.1754 -2.65992,-0.77292 -3.72716,-1.65279 -3.88896,-3.2062 -0.13763,-1.32139 0.075,-1.99768 0.91313,-2.9047 1.22123,-1.32154 3.31262,-1.78132 5.2584,-1.15601 1.03545,0.33275 2.20777,1.4276 2.47825,2.31447 0.28219,0.92529 0.13341,1.13084 -0.81854,1.13084 -0.77689,0 -0.84439,-0.0379 -1.22356,-0.68792 -0.46037,-0.78918 -1.07564,-1.08499 -2.25672,-1.08499 -1.32495,0 -2.26108,0.75368 -2.26108,1.82042 0,0.75501 0.62841,1.30035 1.98949,1.72648 4.01614,1.25738 4.88962,1.99462 4.89089,4.12801 0.001,1.79346 -0.8973,3.05736 -2.55745,3.59803 -0.96935,0.3157 -3.18984,0.30426 -4.1591,-0.0214 z"
         id="path3" /><path
         style="fill:#ffffff"
         d="m 36.177373,182.21944 c -0.04394,-0.12465 -0.06086,-7.24738 -0.0376,-15.82828 l 0.04228,-15.60164 2.985413,-0.0483 2.985414,-0.0483 0.402272,0.49153 c 0.22125,0.27035 5.497518,7.31282 11.72504,15.64995 7.029731,9.41108 11.429035,15.15841 11.603046,15.15841 0.26205,0 0.283001,-1.01761 0.322127,-15.64596 l 0.04185,-15.64597 h 12.61114 12.611141 l 0.09173,0.39891 c 0.05045,0.2194 0.07029,1.2765 0.04408,2.34911 l -0.04765,1.9502 -10.239571,0.092 c -5.631765,0.0506 -10.259362,0.11044 -10.283549,0.13297 -0.02419,0.0225 -0.02419,1.89587 0,4.16299 l 0.04398,4.12202 8.191657,0.0886 8.191657,0.0887 0.04571,2.34911 0.04571,2.34911 h -8.019179 c -4.410549,0 -8.135797,0.0484 -8.278329,0.10762 -0.226305,0.094 -0.259149,0.64448 -0.259149,4.34363 0,2.32982 0.01843,4.25446 0.04096,4.27699 0.02253,0.0225 4.648765,0.0824 10.28053,0.13297 l 10.239571,0.092 v 2.30478 2.30479 l -15.817655,0.0427 -15.817655,0.0427 -9.228353,-12.36443 c -5.371983,-7.19755 -9.339599,-12.36444 -9.494566,-12.36444 -0.242387,0 -0.273542,1.10272 -0.348128,12.32175 l -0.08192,12.32175 -2.256065,0.0494 c -1.714414,0.0375 -2.275243,-0.005 -2.335948,-0.17729 z m 62.179362,0.0771 c 0,-0.17425 9.472965,-12.87223 9.655895,-12.94319 0.23602,-0.0916 3.15687,4.01555 3.02275,4.25038 -0.23637,0.41387 -6.35488,8.5669 -6.52646,8.69662 -0.23294,0.17612 -6.152185,0.17245 -6.152185,-0.004 z m 11.792875,-15.54131 c -6.43781,-8.62445 -11.731559,-15.76664 -11.763874,-15.87155 -0.04089,-0.13275 0.879045,-0.17606 3.025614,-0.14245 l 3.08437,0.0483 4.18408,5.58307 c 2.30125,3.07069 4.30099,5.60744 4.44387,5.63722 0.17151,0.0357 1.62804,-1.77802 4.2864,-5.3377 2.21464,-2.9655 4.14709,-5.5222 4.29433,-5.68153 0.38505,-0.41668 6.19656,-0.44066 6.11335,-0.0252 -0.0291,0.14546 -2.55961,3.62372 -5.62329,7.72947 -3.06368,4.10575 -5.6276,7.57362 -5.6976,7.70639 -0.12321,0.2337 1.14644,1.99519 8.95551,12.42471 1.39724,1.8661 2.49527,3.44178 2.44007,3.50151 -0.0552,0.0597 -1.43625,0.1086 -3.06903,0.1086 h -2.96867 z m 34.40807,2.41053 c 0,-10.85618 -0.0399,-13.31585 -0.21863,-13.47637 -0.14668,-0.13173 -1.85871,-0.21181 -5.20171,-0.24332 l -4.98306,-0.047 v -2.30478 -2.30479 h 12.61515 12.61515 l 0.0457,2.34911 0.0457,2.34911 -4.87879,0.003 c -2.68334,10e-4 -4.97048,0.0657 -5.08254,0.14273 -0.15885,0.10917 -0.21299,3.06761 -0.24575,13.42711 l -0.042,13.28709 -2.33463,0.0492 -2.33462,0.0492 z m 21.87172,12.88585 c -1.25004,-0.36502 -2.37365,-1.63003 -2.37496,-2.67385 -6e-4,-0.47258 0.0269,-0.48755 0.89626,-0.48755 0.82671,0 0.91636,0.0408 1.1459,0.52111 0.3506,0.73369 0.87189,1.07451 1.64347,1.07451 0.71952,0 1.27091,-0.32468 1.59611,-0.93987 0.14642,-0.277 0.22976,-1.8521 0.28797,-5.44262 l 0.0819,-5.0528 h 0.90108 0.90108 v 5.24443 5.24442 l -0.49296,0.86242 c -0.33426,0.58477 -0.72984,0.99379 -1.22875,1.27047 -0.86517,0.47981 -2.41376,0.65479 -3.35712,0.37933 z m 10.42727,-0.0716 c -1.41108,-0.41079 -2.47952,-1.43713 -2.79883,-2.68858 -0.20085,-0.7872 -0.0616,-0.92653 0.92979,-0.93041 0.63213,-0.002 0.73101,0.0603 1.10531,0.70197 0.54785,0.93913 1.02562,1.24816 2.11839,1.37021 1.19595,0.13357 2.29253,-0.29849 2.73056,-1.07586 0.42079,-0.74677 0.3952,-1.22251 -0.10001,-1.85938 -0.41975,-0.53983 -1.04841,-0.82353 -3.01437,-1.36029 -2.84748,-0.77745 -4.00871,-2.27686 -3.44642,-4.45013 0.28742,-1.11089 1.50406,-2.27487 2.6739,-2.55817 1.34802,-0.32646 3.1608,-0.16138 4.12515,0.37566 0.85872,0.47821 1.65963,1.53017 1.74616,2.29349 0.0479,0.42261 0.006,0.44571 -0.89179,0.4964 -0.53515,0.0302 -0.94204,-0.0213 -0.94204,-0.11936 0,-0.0949 -0.1869,-0.41291 -0.41534,-0.7067 -0.55914,-0.71908 -1.8983,-1.06726 -2.88033,-0.74887 -1.44758,0.46934 -1.95921,2.00667 -0.96815,2.9091 0.26803,0.24406 0.72881,0.52297 1.02395,0.61979 0.29515,0.0968 1.21906,0.39565 2.05314,0.66405 2.27522,0.73217 3.31656,1.85603 3.31656,3.57941 0,0.88382 -0.59049,2.11337 -1.31066,2.72912 -1.10189,0.94211 -3.2943,1.2711 -5.05497,0.75855 z m -16.9713,-0.29262 c -0.34232,-0.52887 -0.32222,-1.25813 0.0446,-1.61734 0.4049,-0.39653 1.38012,-0.37909 1.72291,0.0308 0.35989,0.43033 0.34485,1.32155 -0.0285,1.68715 -0.44831,0.43903 -1.42636,0.38244 -1.73902,-0.10062 z"
         id="path2" /><path
         style="fill:#ffffff"
         d="m 36.263975,166.56845 v -15.69029 l 2.989955,0.006 2.989955,0.006 11.386403,15.24887 c 6.262522,8.38688 11.521571,15.44494 11.686776,15.68457 l 0.300373,0.43569 H 62.775784 59.934132 L 50.679426,169.8503 c -5.427392,-7.27689 -9.366027,-12.40925 -9.523887,-12.4104 -0.148049,-0.001 -0.31393,0.12424 -0.368624,0.27848 -0.0547,0.15424 -0.09945,5.73892 -0.09945,12.4104 v 12.12996 H 38.475717 36.26397 Z m 30.021533,0.0443 0.04185,-15.64596 12.574194,-0.0454 12.574193,-0.0454 v 2.21725 2.21724 H 81.471151 c -6.583113,0 -10.112968,0.0628 -10.321488,0.18353 -0.298815,0.17306 -0.316895,0.40993 -0.316895,4.15184 0,2.18258 0.04475,4.09452 0.09944,4.24876 0.08884,0.25054 0.971404,0.28044 8.278469,0.28044 H 87.3897 l -0.04585,2.26046 -0.04585,2.26047 -8.191657,0.0886 -8.191657,0.0887 v 4.34364 4.34363 l 10.239571,0.0887 10.239572,0.0887 0.04585,2.26046 0.04585,2.26047 H 78.864596 66.24366 Z m 32.427941,15.3217 c 0.536111,-0.82225 9.237841,-12.42823 9.322621,-12.43412 0.0523,-0.004 0.74157,0.87294 1.53169,1.94792 1.37914,1.87634 1.42647,1.9703 1.18332,2.34911 -0.1393,0.21703 -1.60281,2.18967 -3.25225,4.38365 l -2.99899,3.98906 -3.00155,0.0484 c -2.906881,0.0469 -2.994709,0.0379 -2.784841,-0.28399 z m 11.474671,-15.3217 -11.675733,-15.64596 2.894943,-0.0485 c 2.36806,-0.0397 2.9428,-9.5e-4 3.15788,0.21284 0.14461,0.14375 2.06919,2.69447 4.27685,5.66827 2.36617,3.18734 4.12891,5.41071 4.29405,5.41616 0.1752,0.006 1.82907,-2.06633 4.41469,-5.5311 2.274,-3.0472 4.21223,-5.59897 4.30718,-5.67061 0.27637,-0.20852 5.86134,-0.16538 5.79661,0.0448 -0.0306,0.0993 -2.58513,3.57163 -5.67678,7.71639 -3.79364,5.08586 -5.60434,7.64673 -5.56936,7.87672 0.0285,0.18743 2.48477,3.59355 5.45834,7.56915 2.97357,3.97561 5.54086,7.41051 5.70509,7.63312 l 0.2986,0.40474 h -3.00331 -3.00332 z m 34.47878,15.52777 c -0.0601,-0.065 -0.10922,-6.07917 -0.10922,-13.36482 v -13.2466 l -0.36862,-0.10691 c -0.20275,-0.0588 -2.52508,-0.10799 -5.16075,-0.10932 l -4.79212,-0.002 v -2.21614 -2.21615 h 12.53324 12.53323 v 2.21615 2.21614 h -4.76193 c -2.96921,0 -4.88123,0.0691 -5.07883,0.18353 -0.30897,0.17894 -0.31689,0.51555 -0.31689,13.47414 v 13.29062 h -2.18444 c -1.20145,0 -2.2336,-0.0532 -2.29367,-0.1182 z m 15.49138,-0.33509 c -0.74934,-0.56797 -0.29055,-2.02879 0.63719,-2.02879 0.47645,0 1.00565,0.60641 1.00565,1.15239 0,0.54598 -0.5292,1.15239 -1.00565,1.15239 -0.15019,0 -0.43692,-0.12419 -0.63719,-0.27599 z m 5.9466,0.003 c -0.35871,-0.148 -0.88192,-0.51005 -1.16271,-0.80455 -0.49795,-0.52228 -0.9589,-1.66988 -0.78972,-1.9661 0.0465,-0.0814 0.41006,-0.14804 0.80792,-0.14804 0.62358,0 0.75554,0.0673 0.95655,0.48797 0.38397,0.80349 0.86549,1.15382 1.70606,1.24122 0.67585,0.0703 0.86096,0.0148 1.30753,-0.39183 0.28612,-0.26053 0.59569,-0.76775 0.68793,-1.12714 0.0947,-0.36889 0.16811,-2.68011 0.16863,-5.30735 l 9.1e-4,-4.6539 h 0.81917 0.81917 v 5.018 5.01799 l -0.42543,0.92384 c -0.58988,1.28099 -1.48422,1.83968 -3.07335,1.9199 -0.7714,0.0389 -1.39283,-0.0327 -1.82266,-0.21001 z m 10.42856,-0.0652 c -1.0472,-0.39138 -2.09801,-1.43871 -2.32307,-2.31541 -0.23179,-0.90285 -0.23924,-0.89265 0.65223,-0.89265 0.72301,0 0.84141,0.055 1.04935,0.48755 0.56142,1.1678 1.79373,1.76276 3.21345,1.55146 1.00607,-0.14974 1.76802,-0.66347 2.04395,-1.3781 0.49671,-1.28644 -0.18719,-2.20093 -2.09474,-2.80103 -0.64729,-0.20363 -1.56901,-0.49619 -2.04828,-0.65014 -1.84801,-0.59361 -2.75723,-1.80183 -2.60934,-3.46741 0.24807,-2.7938 4.10723,-4.22949 6.89291,-2.56431 0.73756,0.44089 1.68646,1.8969 1.52781,2.34431 -0.0641,0.18086 -0.31215,0.27247 -0.73765,0.27247 -0.54012,0 -0.70991,-0.0977 -1.07853,-0.62071 -0.60591,-0.85964 -1.21189,-1.1522 -2.38656,-1.1522 -1.17459,0 -1.86037,0.32843 -2.20897,1.05794 -0.64247,1.34446 -0.0597,2.27934 1.78375,2.86132 3.29241,1.03945 4.04524,1.47339 4.61134,2.65803 0.57303,1.19916 0.10958,3.07485 -0.98247,3.97622 -1.19314,0.9848 -3.59617,1.27137 -5.30518,0.63266 z"
         id="path1" /></g></g></svg>
